<?xml version="1.0" encoding="utf-8" standalone="no"?>
<!DOCTYPE svg PUBLIC "-//W3C//DTD SVG 1.1//EN"
  "http://www.w3.org/Graphics/SVG/1.1/DTD/svg11.dtd">
<svg xmlns:xlink="http://www.w3.org/1999/xlink" width="288pt" height="288pt" viewBox="0 0 288 288" xmlns="http://www.w3.org/2000/svg" version="1.1">
 <metadata>
  <rdf:RDF xmlns:dc="http://purl.org/dc/elements/1.1/" xmlns:cc="http://creativecommons.org/ns#" xmlns:rdf="http://www.w3.org/1999/02/22-rdf-syntax-ns#">
   <cc:Work>
    <dc:type rdf:resource="http://purl.org/dc/dcmitype/StillImage"/>
    <dc:date>2022-06-28T17:52:20.363416</dc:date>
    <dc:format>image/svg+xml</dc:format>
    <dc:creator>
     <cc:Agent>
      <dc:title>Matplotlib v3.5.2, https://matplotlib.org/</dc:title>
     </cc:Agent>
    </dc:creator>
   </cc:Work>
  </rdf:RDF>
 </metadata>
 <defs>
  <style type="text/css">*{stroke-linejoin: round; stroke-linecap: butt}</style>
 </defs>
 <g id="figure_1">
  <g id="patch_1">
   <path d="M 0 288 
L 288 288 
L 288 0 
L 0 0 
L 0 288 
z
" style="fill: none"/>
  </g>
  <g id="axes_1">
   <g id="line2d_1">
    <path d="M 34.690909 252.584116 
L 65.502868 253.054007 
L 84.576937 253.307173 
L 88.978646 253.017567 
L 91.913118 252.593706 
L 93.380354 252.296428 
L 94.84759 251.845716 
L 96.314826 251.596387 
L 102.183771 250.006429 
L 105.118243 248.909378 
L 108.052715 246.916657 
L 110.987187 243.665779 
L 112.454423 241.755528 
L 116.856132 234.758949 
L 118.323368 231.78617 
L 119.790604 230.209638 
L 121.25784 227.934982 
L 125.659549 219.46352 
L 127.126785 216.901176 
L 128.594021 217.440113 
L 130.061257 217.620397 
L 131.528493 217.545598 
L 132.995729 216.697877 
L 135.930201 214.010868 
L 137.397437 211.834026 
L 138.864674 208.358752 
L 140.33191 202.463059 
L 141.799146 194.860416 
L 144.733618 184.582272 
L 146.200854 181.158781 
L 147.66809 178.803573 
L 149.135326 177.100458 
L 150.602563 172.539639 
L 152.069799 169.045185 
L 153.537035 167.34207 
L 155.004271 161.145264 
L 156.471507 149.392238 
L 157.938743 146.705229 
L 159.405979 145.98409 
L 160.873215 138.193491 
L 162.340451 135.991716 
L 163.807688 128.661418 
L 165.274924 126.6476 
L 166.74216 120.477645 
L 168.209396 114.869641 
L 169.676632 110.095933 
L 171.143868 106.503665 
L 172.611104 103.36978 
L 174.07834 99.482152 
L 175.545577 94.670086 
L 177.012813 90.884108 
L 178.480049 87.942015 
L 179.947285 83.379278 
L 181.414521 80.017161 
L 182.881757 77.431802 
L 184.348993 75.571418 
L 185.816229 73.187441 
L 187.283466 71.319385 
L 188.750702 69.666136 
L 190.217938 61.315503 
L 191.685174 60.678753 
L 193.15241 59.702531 
L 194.619646 58.503829 
L 196.086882 57.588981 
L 197.554118 55.216511 
L 199.021354 51.796856 
L 200.488591 49.683306 
L 201.955827 46.029664 
L 203.423063 43.988995 
L 206.357535 41.576249 
L 207.824771 40.613452 
L 210.759243 39.280497 
L 213.693716 36.392106 
L 215.160952 36.098664 
L 218.095424 35.227927 
L 221.029896 34.735021 
L 223.964369 34.733103 
L 225.431605 34.784887 
L 226.898841 35.392869 
L 228.366077 36.955975 
L 229.833313 38.035765 
L 231.300549 40.632632 
L 232.767785 41.499532 
L 234.235021 43.361835 
L 235.702257 46.206113 
L 237.169494 47.842101 
L 238.63673 50.531027 
L 240.103966 50.389101 
L 241.571202 52.52183 
L 244.505674 56.359593 
L 245.97291 60.64423 
L 247.440146 64.470485 
L 248.907383 65.419856 
L 250.374619 68.187418 
L 251.841855 70.180139 
L 253.309091 74.762055 
L 253.309091 74.762055 
" clip-path="url(#p55b6cf408e)" style="fill: none; stroke: #1f77b4; stroke-width: 5; stroke-linecap: square"/>
   </g>
  </g>
 </g>
 <defs>
  <clipPath id="p55b6cf408e">
   <rect x="23.76" y="23.76" width="240.48" height="240.48"/>
  </clipPath>
 </defs>
</svg>
