<?xml version="1.0" encoding="utf-8" standalone="no"?>
<!DOCTYPE svg PUBLIC "-//W3C//DTD SVG 1.1//EN"
  "http://www.w3.org/Graphics/SVG/1.1/DTD/svg11.dtd">
<svg xmlns:xlink="http://www.w3.org/1999/xlink" width="576pt" height="432pt" viewBox="0 0 576 432" xmlns="http://www.w3.org/2000/svg" version="1.1">
 <metadata>
  <rdf:RDF xmlns:dc="http://purl.org/dc/elements/1.1/" xmlns:cc="http://creativecommons.org/ns#" xmlns:rdf="http://www.w3.org/1999/02/22-rdf-syntax-ns#">
   <cc:Work>
    <dc:type rdf:resource="http://purl.org/dc/dcmitype/StillImage"/>
    <dc:date>2022-06-28T17:51:24.793639</dc:date>
    <dc:format>image/svg+xml</dc:format>
    <dc:creator>
     <cc:Agent>
      <dc:title>Matplotlib v3.5.2, https://matplotlib.org/</dc:title>
     </cc:Agent>
    </dc:creator>
   </cc:Work>
  </rdf:RDF>
 </metadata>
 <defs>
  <style type="text/css">*{stroke-linejoin: round; stroke-linecap: butt}</style>
 </defs>
 <g id="figure_1">
  <g id="patch_1">
   <path d="M 0 432 
L 576 432 
L 576 0 
L 0 0 
L 0 432 
z
" style="fill: none"/>
  </g>
  <g id="axes_1">
   <g id="line2d_1">
    <path d="M 47.781818 341.016432 
L 150.962782 340.97068 
L 163.860403 340.82119 
L 176.758023 340.322181 
L 205.777669 339.019996 
L 209.002074 338.979697 
L 212.22648 339.06721 
L 215.450885 339.28147 
L 221.899695 340.127472 
L 225.1241 340.791399 
L 228.348505 341.646843 
L 231.57291 342.641271 
L 238.021721 344.466272 
L 244.470531 345.681742 
L 247.694936 346.487578 
L 250.919341 346.912109 
L 257.368151 347.012389 
L 260.592556 347.786572 
L 263.816962 349.161374 
L 267.041367 350.922137 
L 273.490177 353.710179 
L 276.714582 355.100941 
L 279.938987 356.353119 
L 283.163392 357.370688 
L 286.387797 357.440911 
L 289.612203 358.893251 
L 305.734228 362.223393 
L 308.958633 362.650983 
L 315.407444 363.209974 
L 318.631849 363.725741 
L 321.856254 363.943459 
L 325.080659 365.153876 
L 328.305064 365.948274 
L 331.529469 367.116663 
L 334.753874 367.859591 
L 341.202685 369.707734 
L 344.42709 370.630342 
L 347.651495 371.303313 
L 357.32471 374.109841 
L 363.77352 375.922075 
L 373.446736 378.114151 
L 379.895546 379.329888 
L 383.119951 379.781948 
L 386.344356 380.119631 
L 389.568761 381.740613 
L 396.017572 382.466916 
L 402.466382 382.860059 
L 405.690787 383.455492 
L 408.915192 384.457367 
L 418.588408 385.938302 
L 425.037218 386.522563 
L 428.261623 386.756906 
L 437.934838 387.105095 
L 441.159243 387.405006 
L 450.832459 387.581495 
L 463.730079 388.001902 
L 466.954484 388.150328 
L 473.403295 388.779942 
L 479.852105 389.378048 
L 486.300915 389.823033 
L 492.749725 390.105814 
L 499.198536 390.403025 
L 515.320561 390.650122 
L 518.544966 390.595726 
L 521.769372 390.763636 
L 528.218182 390.451317 
L 528.218182 390.451317 
" clip-path="url(#p458ac0822d)" style="fill: none; stroke: #1f77b4; stroke-width: 5; stroke-linecap: square"/>
   </g>
   <g id="line2d_2">
    <path d="M 47.781818 192.334287 
L 163.860403 192.739932 
L 173.533618 192.340937 
L 183.206833 191.649346 
L 196.104454 190.546791 
L 202.553264 189.786042 
L 209.002074 188.40419 
L 215.450885 186.149871 
L 218.67529 184.825209 
L 228.348505 179.973435 
L 231.57291 177.911963 
L 234.797315 176.818717 
L 238.021721 175.241359 
L 247.694936 169.366828 
L 250.919341 167.589972 
L 254.143746 167.963697 
L 257.368151 168.088716 
L 260.592556 168.036846 
L 263.816962 167.448994 
L 270.265772 165.585689 
L 273.490177 164.07616 
L 276.714582 161.666233 
L 279.938987 157.577868 
L 283.163392 152.305819 
L 286.387797 148.855846 
L 289.612203 145.178446 
L 292.836608 142.804428 
L 296.061013 141.17121 
L 299.285418 139.990186 
L 302.509823 136.827489 
L 305.734228 134.404262 
L 308.958633 133.223238 
L 312.183038 128.926066 
L 315.407444 120.775936 
L 318.631849 118.912632 
L 321.856254 118.412558 
L 325.080659 113.010172 
L 328.305064 111.483352 
L 331.529469 106.400161 
L 334.753874 105.00368 
L 337.978279 100.725128 
L 341.202685 96.836261 
L 344.42709 93.525935 
L 347.651495 91.034879 
L 350.8759 88.861689 
L 354.100305 86.165815 
L 357.32471 82.82889 
L 360.549115 80.203506 
L 363.77352 78.163314 
L 366.997926 74.999286 
L 370.222331 72.667828 
L 373.446736 70.875012 
L 376.671141 69.58493 
L 379.895546 67.931762 
L 383.119951 66.63636 
L 386.344356 65.489915 
L 389.568761 59.699174 
L 392.793167 59.25762 
L 396.017572 58.580659 
L 399.241977 57.74942 
L 402.466382 57.115019 
L 405.690787 55.469831 
L 408.915192 53.098473 
L 412.139597 51.632833 
L 415.364002 49.099217 
L 418.588408 47.684116 
L 425.037218 46.010999 
L 428.261623 45.343348 
L 434.710433 44.419011 
L 441.159243 42.416058 
L 444.383649 42.21257 
L 450.832459 41.608759 
L 457.281269 41.266953 
L 463.730079 41.265623 
L 466.954484 41.301533 
L 470.17889 41.723137 
L 473.403295 42.807072 
L 476.6277 43.555852 
L 479.852105 45.356648 
L 483.07651 45.9578 
L 486.300915 47.249212 
L 489.52532 49.221575 
L 492.749725 50.35605 
L 495.974131 52.220685 
L 499.198536 52.122266 
L 502.422941 53.601206 
L 508.871751 56.2625 
L 512.096156 59.23368 
L 515.320561 61.886994 
L 518.544966 62.545335 
L 521.769372 64.464499 
L 524.993777 65.84635 
L 528.218182 69.023677 
L 528.218182 69.023677 
" clip-path="url(#p458ac0822d)" style="fill: none; stroke: #ff7f0e; stroke-width: 5; stroke-linecap: square"/>
   </g>
   <g id="line2d_3">
    <path d="M 47.781818 336.807571 
L 167.084808 337.010792 
L 176.758023 337.148179 
L 186.431239 337.477083 
L 202.553264 337.992185 
L 209.002074 338.316435 
L 221.899695 338.614351 
L 228.348505 339.643757 
L 231.57291 340.331757 
L 234.797315 340.88596 
L 238.021721 341.806042 
L 244.470531 344.332077 
L 247.694936 345.351774 
L 250.919341 345.806495 
L 254.143746 345.84267 
L 257.368151 346.034188 
L 263.816962 348.070257 
L 267.041367 348.727002 
L 270.265772 349.112564 
L 273.490177 349.265512 
L 276.714582 349.165763 
L 283.163392 349.845916 
L 286.387797 351.652031 
L 289.612203 351.98865 
L 292.836608 351.814023 
L 299.285418 352.30492 
L 302.509823 352.712559 
L 305.734228 353.388057 
L 308.958633 353.719488 
L 312.183038 354.167426 
L 315.407444 353.780136 
L 321.856254 353.666555 
L 325.080659 352.741952 
L 328.305064 352.332849 
L 331.529469 351.600694 
L 334.753874 351.528077 
L 337.978279 350.795922 
L 347.651495 349.751088 
L 350.8759 349.990485 
L 360.549115 348.512609 
L 366.997926 347.57843 
L 373.446736 346.726576 
L 383.119951 346.290342 
L 386.344356 346.016233 
L 389.568761 344.360006 
L 392.793167 344.213841 
L 402.466382 343.11767 
L 405.690787 343.500971 
L 408.915192 344.47904 
L 412.139597 344.775227 
L 415.364002 345.398456 
L 418.588408 345.842404 
L 421.812813 346.057196 
L 428.261623 345.95931 
L 434.710433 345.59915 
L 437.934838 345.108653 
L 441.159243 345.039627 
L 444.383649 345.092693 
L 457.281269 344.647947 
L 466.954484 344.574931 
L 470.17889 344.70394 
L 473.403295 345.146026 
L 476.6277 345.396594 
L 479.852105 346.11146 
L 483.07651 346.225173 
L 486.300915 346.575357 
L 489.52532 347.067717 
L 492.749725 347.335309 
L 495.974131 347.899886 
L 499.198536 347.751327 
L 508.871751 348.941528 
L 512.096156 350.110582 
L 515.320561 350.957914 
L 518.544966 351.037314 
L 521.769372 351.461312 
L 524.993777 351.53885 
L 528.218182 351.752844 
L 528.218182 351.752844 
" clip-path="url(#p458ac0822d)" style="fill: none; stroke: #2ca02c; stroke-width: 5; stroke-linecap: square"/>
   </g>
   <g id="legend_1">
    <g id="line2d_4">
     <path d="M 43.56 52.576563 
L 65.56 52.576563 
L 87.56 52.576563 
" style="fill: none; stroke: #1f77b4; stroke-width: 5; stroke-linecap: square"/>
    </g>
    <g id="text_1">
     <!-- X -->
     <g style="fill: #212121" transform="translate(105.16 60.276563)scale(0.22 -0.22)">
      <defs>
       <path id="DejaVuSans-58" d="M 403 4666 
L 1081 4666 
L 2241 2931 
L 3406 4666 
L 4084 4666 
L 2584 2425 
L 4184 0 
L 3506 0 
L 2194 1984 
L 872 0 
L 191 0 
L 1856 2491 
L 403 4666 
z
" transform="scale(0.015625)"/>
      </defs>
      <use xlink:href="#DejaVuSans-58"/>
     </g>
    </g>
    <g id="line2d_5">
     <path d="M 43.56 84.868438 
L 65.56 84.868438 
L 87.56 84.868438 
" style="fill: none; stroke: #ff7f0e; stroke-width: 5; stroke-linecap: square"/>
    </g>
    <g id="text_2">
     <!-- Y -->
     <g style="fill: #212121" transform="translate(105.16 92.568438)scale(0.22 -0.22)">
      <defs>
       <path id="DejaVuSans-59" d="M -13 4666 
L 666 4666 
L 1959 2747 
L 3244 4666 
L 3922 4666 
L 2272 2222 
L 2272 0 
L 1638 0 
L 1638 2222 
L -13 4666 
z
" transform="scale(0.015625)"/>
      </defs>
      <use xlink:href="#DejaVuSans-59"/>
     </g>
    </g>
    <g id="line2d_6">
     <path d="M 43.56 117.160313 
L 65.56 117.160313 
L 87.56 117.160313 
" style="fill: none; stroke: #2ca02c; stroke-width: 5; stroke-linecap: square"/>
    </g>
    <g id="text_3">
     <!-- Z -->
     <g style="fill: #212121" transform="translate(105.16 124.860313)scale(0.22 -0.22)">
      <defs>
       <path id="DejaVuSans-5a" d="M 359 4666 
L 4025 4666 
L 4025 4184 
L 1075 531 
L 4097 531 
L 4097 0 
L 288 0 
L 288 481 
L 3238 4134 
L 359 4134 
L 359 4666 
z
" transform="scale(0.015625)"/>
      </defs>
      <use xlink:href="#DejaVuSans-5a"/>
     </g>
    </g>
   </g>
  </g>
 </g>
 <defs>
  <clipPath id="p458ac0822d">
   <rect x="23.76" y="23.76" width="528.48" height="384.48"/>
  </clipPath>
 </defs>
</svg>
