<?xml version="1.0" encoding="utf-8" standalone="no"?>
<!DOCTYPE svg PUBLIC "-//W3C//DTD SVG 1.1//EN"
  "http://www.w3.org/Graphics/SVG/1.1/DTD/svg11.dtd">
<svg xmlns:xlink="http://www.w3.org/1999/xlink" width="288pt" height="288pt" viewBox="0 0 288 288" xmlns="http://www.w3.org/2000/svg" version="1.1">
 <metadata>
  <rdf:RDF xmlns:dc="http://purl.org/dc/elements/1.1/" xmlns:cc="http://creativecommons.org/ns#" xmlns:rdf="http://www.w3.org/1999/02/22-rdf-syntax-ns#">
   <cc:Work>
    <dc:type rdf:resource="http://purl.org/dc/dcmitype/StillImage"/>
    <dc:date>2022-06-28T17:52:00.354220</dc:date>
    <dc:format>image/svg+xml</dc:format>
    <dc:creator>
     <cc:Agent>
      <dc:title>Matplotlib v3.5.2, https://matplotlib.org/</dc:title>
     </cc:Agent>
    </dc:creator>
   </cc:Work>
  </rdf:RDF>
 </metadata>
 <defs>
  <style type="text/css">*{stroke-linejoin: round; stroke-linecap: butt}</style>
 </defs>
 <g id="figure_1">
  <g id="patch_1">
   <path d="M 0 288 
L 288 288 
L 288 0 
L 0 0 
L 0 288 
z
" style="fill: none"/>
  </g>
  <g id="axes_1">
   <g id="line2d_1">
    <path d="M 34.690909 43.289467 
L 56.699451 43.274868 
L 84.576937 42.973913 
L 86.044173 42.788062 
L 87.511409 42.465209 
L 90.445882 41.544937 
L 94.84759 39.709448 
L 96.314826 39.325393 
L 99.249298 37.919439 
L 100.716534 37.337181 
L 105.118243 35.269237 
L 106.585479 34.861039 
L 108.052715 34.690909 
L 109.519951 35.060365 
L 110.987187 35.964915 
L 112.454423 37.605008 
L 113.92166 39.536511 
L 115.388896 42.339437 
L 116.856132 45.950898 
L 118.323368 50.14911 
L 119.790604 53.843109 
L 121.25784 57.853785 
L 124.192312 62.985183 
L 125.659549 66.387211 
L 127.126785 68.179466 
L 128.594021 68.276603 
L 130.061257 68.602824 
L 131.528493 71.87122 
L 132.995729 77.675274 
L 134.462965 85.108753 
L 137.397437 96.879131 
L 138.864674 102.750563 
L 140.33191 108.036929 
L 141.799146 112.332839 
L 143.266382 112.629303 
L 144.733618 118.760702 
L 149.135326 127.085817 
L 152.069799 132.819686 
L 153.537035 134.624855 
L 155.004271 135.907845 
L 156.471507 136.98477 
L 157.938743 139.162203 
L 159.405979 140.081351 
L 160.873215 145.191412 
L 162.340451 148.545152 
L 163.807688 153.477784 
L 165.274924 156.614231 
L 166.74216 160.341358 
L 169.676632 168.311615 
L 171.143868 171.152722 
L 172.611104 175.187542 
L 174.07834 178.751838 
L 175.545577 183.001145 
L 178.480049 190.651918 
L 179.947285 193.728848 
L 181.414521 197.23082 
L 185.816229 205.038809 
L 187.283466 206.947291 
L 188.750702 208.372897 
L 190.217938 215.216258 
L 191.685174 216.856351 
L 193.15241 218.282519 
L 196.086882 219.942264 
L 197.554118 222.456025 
L 199.021354 226.68568 
L 200.488591 228.870412 
L 201.955827 230.728922 
L 203.423063 232.937798 
L 204.890299 234.399901 
L 207.824771 236.393728 
L 210.759243 237.141063 
L 212.22648 237.863692 
L 213.693716 239.129837 
L 215.160952 239.222482 
L 218.095424 239.874926 
L 222.497132 241.054041 
L 225.431605 242.27639 
L 226.898841 243.387005 
L 229.833313 246.383754 
L 232.767785 248.631429 
L 234.235021 249.338112 
L 235.702257 249.814755 
L 238.63673 251.339351 
L 240.103966 251.786685 
L 241.571202 252.011727 
L 243.038438 252.555412 
L 244.505674 252.574221 
L 247.440146 252.829865 
L 248.907383 252.600218 
L 250.374619 253.309091 
L 251.841855 252.518915 
L 253.309091 251.990559 
L 253.309091 251.990559 
" clip-path="url(#pe680c4e40f)" style="fill: none; stroke: #1f77b4; stroke-width: 5; stroke-linecap: square"/>
   </g>
  </g>
 </g>
 <defs>
  <clipPath id="pe680c4e40f">
   <rect x="23.76" y="23.76" width="240.48" height="240.48"/>
  </clipPath>
 </defs>
</svg>
