<?xml version="1.0" encoding="utf-8" standalone="no"?>
<!DOCTYPE svg PUBLIC "-//W3C//DTD SVG 1.1//EN"
  "http://www.w3.org/Graphics/SVG/1.1/DTD/svg11.dtd">
<svg xmlns:xlink="http://www.w3.org/1999/xlink" width="288pt" height="288pt" viewBox="0 0 288 288" xmlns="http://www.w3.org/2000/svg" version="1.1">
 <metadata>
  <rdf:RDF xmlns:dc="http://purl.org/dc/elements/1.1/" xmlns:cc="http://creativecommons.org/ns#" xmlns:rdf="http://www.w3.org/1999/02/22-rdf-syntax-ns#">
   <cc:Work>
    <dc:type rdf:resource="http://purl.org/dc/dcmitype/StillImage"/>
    <dc:date>2022-06-28T17:52:29.728989</dc:date>
    <dc:format>image/svg+xml</dc:format>
    <dc:creator>
     <cc:Agent>
      <dc:title>Matplotlib v3.5.2, https://matplotlib.org/</dc:title>
     </cc:Agent>
    </dc:creator>
   </cc:Work>
  </rdf:RDF>
 </metadata>
 <defs>
  <style type="text/css">*{stroke-linejoin: round; stroke-linecap: butt}</style>
 </defs>
 <g id="figure_1">
  <g id="patch_1">
   <path d="M 0 288 
L 288 288 
L 288 0 
L 0 0 
L 0 288 
z
" style="fill: none"/>
  </g>
  <g id="axes_1">
   <g id="line2d_1">
    <path d="M 34.690909 34.690909 
L 47.896034 35.106281 
L 65.502868 36.02747 
L 81.642465 36.888363 
L 84.576937 36.970432 
L 86.044173 37.069251 
L 87.511409 37.032403 
L 90.445882 37.561668 
L 91.913118 38.06246 
L 93.380354 38.980299 
L 94.84759 40.720508 
L 96.314826 41.653421 
L 97.782062 43.122298 
L 99.249298 44.169104 
L 102.183771 45.979658 
L 105.118243 49.609142 
L 106.585479 51.997533 
L 108.052715 53.69252 
L 109.519951 54.704153 
L 110.987187 55.375783 
L 112.454423 56.198153 
L 113.92166 57.44427 
L 116.856132 70.407908 
L 118.323368 79.072107 
L 119.790604 86.051367 
L 121.25784 97.638247 
L 124.192312 129.449405 
L 125.659549 142.290776 
L 127.126785 148.01722 
L 128.594021 148.47279 
L 130.061257 150.88463 
L 132.995729 176.525499 
L 134.462965 184.796099 
L 135.930201 189.651601 
L 137.397437 191.577722 
L 138.864674 190.321556 
L 140.33191 194.870553 
L 141.799146 198.886936 
L 143.266382 221.631923 
L 144.733618 225.871066 
L 146.200854 223.671937 
L 147.66809 226.26634 
L 149.135326 229.853951 
L 150.602563 234.987485 
L 152.069799 243.494244 
L 153.537035 247.668066 
L 155.004271 253.309091 
L 156.471507 248.431815 
L 157.938743 248.2928 
L 159.405979 247.001461 
L 160.873215 235.357635 
L 162.340451 230.205678 
L 163.807688 220.985416 
L 165.274924 220.070927 
L 166.74216 210.850665 
L 168.209396 206.574675 
L 169.676632 202.983714 
L 171.143868 197.692741 
L 172.611104 200.70754 
L 174.07834 194.172125 
L 175.545577 188.944798 
L 177.012813 182.096178 
L 178.480049 176.915748 
L 179.947285 170.331761 
L 182.881757 159.604099 
L 184.348993 158.16202 
L 185.816229 156.941027 
L 187.283466 154.110465 
L 188.750702 150.65852 
L 190.217938 129.801132 
L 191.685174 127.96043 
L 193.15241 123.458329 
L 194.619646 118.40854 
L 196.086882 114.155998 
L 197.554118 118.983027 
L 199.021354 131.300157 
L 200.488591 135.030134 
L 201.955827 142.878662 
L 203.423063 148.46944 
L 204.890299 151.174385 
L 206.357535 150.675268 
L 207.824771 149.941667 
L 209.292007 148.010521 
L 210.759243 145.406069 
L 212.22648 139.22908 
L 213.693716 138.359813 
L 215.160952 139.028093 
L 218.095424 135.792209 
L 219.56266 134.460672 
L 221.029896 133.427266 
L 222.497132 132.958297 
L 225.431605 132.507752 
L 226.898841 134.132394 
L 228.366077 139.699724 
L 229.833313 142.855214 
L 231.300549 151.85774 
L 232.767785 153.28977 
L 234.235021 157.699751 
L 235.702257 163.900189 
L 237.169494 167.270065 
L 238.63673 174.379967 
L 240.103966 172.509116 
L 241.571202 177.384717 
L 243.038438 181.563564 
L 244.505674 187.497694 
L 245.97291 202.219965 
L 247.440146 212.89068 
L 248.907383 213.890588 
L 250.374619 219.230133 
L 251.841855 220.206593 
L 253.309091 222.901489 
L 253.309091 222.901489 
" clip-path="url(#pdc136aac9a)" style="fill: none; stroke: #1f77b4; stroke-width: 5; stroke-linecap: square"/>
   </g>
  </g>
 </g>
 <defs>
  <clipPath id="pdc136aac9a">
   <rect x="23.76" y="23.76" width="240.48" height="240.48"/>
  </clipPath>
 </defs>
</svg>
