<?xml version="1.0" encoding="utf-8" standalone="no"?>
<!DOCTYPE svg PUBLIC "-//W3C//DTD SVG 1.1//EN"
  "http://www.w3.org/Graphics/SVG/1.1/DTD/svg11.dtd">
<svg xmlns:xlink="http://www.w3.org/1999/xlink" width="1152pt" height="504pt" viewBox="0 0 1152 504" xmlns="http://www.w3.org/2000/svg" version="1.1">
 <metadata>
  <rdf:RDF xmlns:dc="http://purl.org/dc/elements/1.1/" xmlns:cc="http://creativecommons.org/ns#" xmlns:rdf="http://www.w3.org/1999/02/22-rdf-syntax-ns#">
   <cc:Work>
    <dc:type rdf:resource="http://purl.org/dc/dcmitype/StillImage"/>
    <dc:date>2022-06-22T20:30:34.268442</dc:date>
    <dc:format>image/svg+xml</dc:format>
    <dc:creator>
     <cc:Agent>
      <dc:title>Matplotlib v3.5.2, https://matplotlib.org/</dc:title>
     </cc:Agent>
    </dc:creator>
   </cc:Work>
  </rdf:RDF>
 </metadata>
 <defs>
  <style type="text/css">*{stroke-linejoin: round; stroke-linecap: butt}</style>
 </defs>
 <g id="figure_1">
  <g id="patch_1">
   <path d="M 0 504 
L 1152 504 
L 1152 0 
L 0 0 
L 0 504 
z
" style="fill: none"/>
  </g>
  <g id="axes_1">
   <g id="patch_2">
    <path d="M 47.2375 461.8875 
L 570.6 461.8875 
L 570.6 10.8 
L 47.2375 10.8 
z
" style="fill: #ffffff"/>
   </g>
   <g id="matplotlib.axis_1">
    <g id="xtick_1">
     <g id="line2d_1">
      <defs>
       <path id="mf476f1b68b" d="M 0 0 
L 0 3.5 
" style="stroke: #212121; stroke-width: 0.8"/>
      </defs>
      <g>
       <use xlink:href="#mf476f1b68b" x="71.026705" y="461.8875" style="fill: #212121; stroke: #212121; stroke-width: 0.8"/>
      </g>
     </g>
     <g id="text_1">
      <!-- 0.0 -->
      <g style="fill: #212121" transform="translate(64.776705 475.83125)scale(0.1 -0.1)">
       <defs>
        <path id="TimesNewRomanPSMT-30" d="M 231 2094 
Q 231 2819 450 3342 
Q 669 3866 1031 4122 
Q 1313 4325 1613 4325 
Q 2100 4325 2488 3828 
Q 2972 3213 2972 2159 
Q 2972 1422 2759 906 
Q 2547 391 2217 158 
Q 1888 -75 1581 -75 
Q 975 -75 572 641 
Q 231 1244 231 2094 
z
M 844 2016 
Q 844 1141 1059 588 
Q 1238 122 1591 122 
Q 1759 122 1940 273 
Q 2122 425 2216 781 
Q 2359 1319 2359 2297 
Q 2359 3022 2209 3506 
Q 2097 3866 1919 4016 
Q 1791 4119 1609 4119 
Q 1397 4119 1231 3928 
Q 1006 3669 925 3112 
Q 844 2556 844 2016 
z
" transform="scale(0.015625)"/>
        <path id="TimesNewRomanPSMT-2e" d="M 800 606 
Q 947 606 1047 504 
Q 1147 403 1147 259 
Q 1147 116 1045 14 
Q 944 -88 800 -88 
Q 656 -88 554 14 
Q 453 116 453 259 
Q 453 406 554 506 
Q 656 606 800 606 
z
" transform="scale(0.015625)"/>
       </defs>
       <use xlink:href="#TimesNewRomanPSMT-30"/>
       <use xlink:href="#TimesNewRomanPSMT-2e" x="50"/>
       <use xlink:href="#TimesNewRomanPSMT-30" x="75"/>
      </g>
     </g>
    </g>
    <g id="xtick_2">
     <g id="line2d_2">
      <g>
       <use xlink:href="#mf476f1b68b" x="150.324053" y="461.8875" style="fill: #212121; stroke: #212121; stroke-width: 0.8"/>
      </g>
     </g>
     <g id="text_2">
      <!-- 0.5 -->
      <g style="fill: #212121" transform="translate(144.074053 475.83125)scale(0.1 -0.1)">
       <defs>
        <path id="TimesNewRomanPSMT-35" d="M 2778 4238 
L 2534 3706 
L 1259 3706 
L 981 3138 
Q 1809 3016 2294 2522 
Q 2709 2097 2709 1522 
Q 2709 1188 2573 903 
Q 2438 619 2231 419 
Q 2025 219 1772 97 
Q 1413 -75 1034 -75 
Q 653 -75 479 54 
Q 306 184 306 341 
Q 306 428 378 495 
Q 450 563 559 563 
Q 641 563 702 538 
Q 763 513 909 409 
Q 1144 247 1384 247 
Q 1750 247 2026 523 
Q 2303 800 2303 1197 
Q 2303 1581 2056 1914 
Q 1809 2247 1375 2428 
Q 1034 2569 447 2591 
L 1259 4238 
L 2778 4238 
z
" transform="scale(0.015625)"/>
       </defs>
       <use xlink:href="#TimesNewRomanPSMT-30"/>
       <use xlink:href="#TimesNewRomanPSMT-2e" x="50"/>
       <use xlink:href="#TimesNewRomanPSMT-35" x="75"/>
      </g>
     </g>
    </g>
    <g id="xtick_3">
     <g id="line2d_3">
      <g>
       <use xlink:href="#mf476f1b68b" x="229.621402" y="461.8875" style="fill: #212121; stroke: #212121; stroke-width: 0.8"/>
      </g>
     </g>
     <g id="text_3">
      <!-- 1.0 -->
      <g style="fill: #212121" transform="translate(223.371402 475.83125)scale(0.1 -0.1)">
       <defs>
        <path id="TimesNewRomanPSMT-31" d="M 750 3822 
L 1781 4325 
L 1884 4325 
L 1884 747 
Q 1884 391 1914 303 
Q 1944 216 2037 169 
Q 2131 122 2419 116 
L 2419 0 
L 825 0 
L 825 116 
Q 1125 122 1212 167 
Q 1300 213 1334 289 
Q 1369 366 1369 747 
L 1369 3034 
Q 1369 3497 1338 3628 
Q 1316 3728 1258 3775 
Q 1200 3822 1119 3822 
Q 1003 3822 797 3725 
L 750 3822 
z
" transform="scale(0.015625)"/>
       </defs>
       <use xlink:href="#TimesNewRomanPSMT-31"/>
       <use xlink:href="#TimesNewRomanPSMT-2e" x="50"/>
       <use xlink:href="#TimesNewRomanPSMT-30" x="75"/>
      </g>
     </g>
    </g>
    <g id="xtick_4">
     <g id="line2d_4">
      <g>
       <use xlink:href="#mf476f1b68b" x="308.91875" y="461.8875" style="fill: #212121; stroke: #212121; stroke-width: 0.8"/>
      </g>
     </g>
     <g id="text_4">
      <!-- 1.5 -->
      <g style="fill: #212121" transform="translate(302.66875 475.83125)scale(0.1 -0.1)">
       <use xlink:href="#TimesNewRomanPSMT-31"/>
       <use xlink:href="#TimesNewRomanPSMT-2e" x="50"/>
       <use xlink:href="#TimesNewRomanPSMT-35" x="75"/>
      </g>
     </g>
    </g>
    <g id="xtick_5">
     <g id="line2d_5">
      <g>
       <use xlink:href="#mf476f1b68b" x="388.216098" y="461.8875" style="fill: #212121; stroke: #212121; stroke-width: 0.8"/>
      </g>
     </g>
     <g id="text_5">
      <!-- 2.0 -->
      <g style="fill: #212121" transform="translate(381.966098 475.83125)scale(0.1 -0.1)">
       <defs>
        <path id="TimesNewRomanPSMT-32" d="M 2934 816 
L 2638 0 
L 138 0 
L 138 116 
Q 1241 1122 1691 1759 
Q 2141 2397 2141 2925 
Q 2141 3328 1894 3587 
Q 1647 3847 1303 3847 
Q 991 3847 742 3664 
Q 494 3481 375 3128 
L 259 3128 
Q 338 3706 661 4015 
Q 984 4325 1469 4325 
Q 1984 4325 2329 3994 
Q 2675 3663 2675 3213 
Q 2675 2891 2525 2569 
Q 2294 2063 1775 1497 
Q 997 647 803 472 
L 1909 472 
Q 2247 472 2383 497 
Q 2519 522 2628 598 
Q 2738 675 2819 816 
L 2934 816 
z
" transform="scale(0.015625)"/>
       </defs>
       <use xlink:href="#TimesNewRomanPSMT-32"/>
       <use xlink:href="#TimesNewRomanPSMT-2e" x="50"/>
       <use xlink:href="#TimesNewRomanPSMT-30" x="75"/>
      </g>
     </g>
    </g>
    <g id="xtick_6">
     <g id="line2d_6">
      <g>
       <use xlink:href="#mf476f1b68b" x="467.513447" y="461.8875" style="fill: #212121; stroke: #212121; stroke-width: 0.8"/>
      </g>
     </g>
     <g id="text_6">
      <!-- 2.5 -->
      <g style="fill: #212121" transform="translate(461.263447 475.83125)scale(0.1 -0.1)">
       <use xlink:href="#TimesNewRomanPSMT-32"/>
       <use xlink:href="#TimesNewRomanPSMT-2e" x="50"/>
       <use xlink:href="#TimesNewRomanPSMT-35" x="75"/>
      </g>
     </g>
    </g>
    <g id="xtick_7">
     <g id="line2d_7">
      <g>
       <use xlink:href="#mf476f1b68b" x="546.810795" y="461.8875" style="fill: #212121; stroke: #212121; stroke-width: 0.8"/>
      </g>
     </g>
     <g id="text_7">
      <!-- 3.0 -->
      <g style="fill: #212121" transform="translate(540.560795 475.83125)scale(0.1 -0.1)">
       <defs>
        <path id="TimesNewRomanPSMT-33" d="M 325 3431 
Q 506 3859 782 4092 
Q 1059 4325 1472 4325 
Q 1981 4325 2253 3994 
Q 2459 3747 2459 3466 
Q 2459 3003 1878 2509 
Q 2269 2356 2469 2072 
Q 2669 1788 2669 1403 
Q 2669 853 2319 450 
Q 1863 -75 997 -75 
Q 569 -75 414 31 
Q 259 138 259 259 
Q 259 350 332 419 
Q 406 488 509 488 
Q 588 488 669 463 
Q 722 447 909 348 
Q 1097 250 1169 231 
Q 1284 197 1416 197 
Q 1734 197 1970 444 
Q 2206 691 2206 1028 
Q 2206 1275 2097 1509 
Q 2016 1684 1919 1775 
Q 1784 1900 1550 2001 
Q 1316 2103 1072 2103 
L 972 2103 
L 972 2197 
Q 1219 2228 1467 2375 
Q 1716 2522 1828 2728 
Q 1941 2934 1941 3181 
Q 1941 3503 1739 3701 
Q 1538 3900 1238 3900 
Q 753 3900 428 3381 
L 325 3431 
z
" transform="scale(0.015625)"/>
       </defs>
       <use xlink:href="#TimesNewRomanPSMT-33"/>
       <use xlink:href="#TimesNewRomanPSMT-2e" x="50"/>
       <use xlink:href="#TimesNewRomanPSMT-30" x="75"/>
      </g>
     </g>
    </g>
    <g id="text_8">
     <!-- Time (s) -->
     <g style="fill: #212121" transform="translate(292.016406 488.914062)scale(0.1 -0.1)">
      <defs>
       <path id="TimesNewRomanPSMT-54" d="M 3703 4238 
L 3750 3244 
L 3631 3244 
Q 3597 3506 3538 3619 
Q 3441 3800 3280 3886 
Q 3119 3972 2856 3972 
L 2259 3972 
L 2259 734 
Q 2259 344 2344 247 
Q 2463 116 2709 116 
L 2856 116 
L 2856 0 
L 1059 0 
L 1059 116 
L 1209 116 
Q 1478 116 1591 278 
Q 1659 378 1659 734 
L 1659 3972 
L 1150 3972 
Q 853 3972 728 3928 
Q 566 3869 450 3700 
Q 334 3531 313 3244 
L 194 3244 
L 244 4238 
L 3703 4238 
z
" transform="scale(0.015625)"/>
       <path id="TimesNewRomanPSMT-69" d="M 928 4444 
Q 1059 4444 1151 4351 
Q 1244 4259 1244 4128 
Q 1244 3997 1151 3903 
Q 1059 3809 928 3809 
Q 797 3809 703 3903 
Q 609 3997 609 4128 
Q 609 4259 701 4351 
Q 794 4444 928 4444 
z
M 1188 2947 
L 1188 647 
Q 1188 378 1227 289 
Q 1266 200 1342 156 
Q 1419 113 1622 113 
L 1622 0 
L 231 0 
L 231 113 
Q 441 113 512 153 
Q 584 194 626 287 
Q 669 381 669 647 
L 669 1750 
Q 669 2216 641 2353 
Q 619 2453 572 2492 
Q 525 2531 444 2531 
Q 356 2531 231 2484 
L 188 2597 
L 1050 2947 
L 1188 2947 
z
" transform="scale(0.015625)"/>
       <path id="TimesNewRomanPSMT-6d" d="M 1050 2338 
Q 1363 2650 1419 2697 
Q 1559 2816 1721 2881 
Q 1884 2947 2044 2947 
Q 2313 2947 2506 2790 
Q 2700 2634 2766 2338 
Q 3088 2713 3309 2830 
Q 3531 2947 3766 2947 
Q 3994 2947 4170 2830 
Q 4347 2713 4450 2447 
Q 4519 2266 4519 1878 
L 4519 647 
Q 4519 378 4559 278 
Q 4591 209 4675 161 
Q 4759 113 4950 113 
L 4950 0 
L 3538 0 
L 3538 113 
L 3597 113 
Q 3781 113 3884 184 
Q 3956 234 3988 344 
Q 4000 397 4000 647 
L 4000 1878 
Q 4000 2228 3916 2372 
Q 3794 2572 3525 2572 
Q 3359 2572 3192 2489 
Q 3025 2406 2788 2181 
L 2781 2147 
L 2788 2013 
L 2788 647 
Q 2788 353 2820 281 
Q 2853 209 2943 161 
Q 3034 113 3253 113 
L 3253 0 
L 1806 0 
L 1806 113 
Q 2044 113 2133 169 
Q 2222 225 2256 338 
Q 2272 391 2272 647 
L 2272 1878 
Q 2272 2228 2169 2381 
Q 2031 2581 1784 2581 
Q 1616 2581 1450 2491 
Q 1191 2353 1050 2181 
L 1050 647 
Q 1050 366 1089 281 
Q 1128 197 1204 155 
Q 1281 113 1516 113 
L 1516 0 
L 100 0 
L 100 113 
Q 297 113 375 155 
Q 453 197 493 289 
Q 534 381 534 647 
L 534 1741 
Q 534 2213 506 2350 
Q 484 2453 437 2492 
Q 391 2531 309 2531 
Q 222 2531 100 2484 
L 53 2597 
L 916 2947 
L 1050 2947 
L 1050 2338 
z
" transform="scale(0.015625)"/>
       <path id="TimesNewRomanPSMT-65" d="M 681 1784 
Q 678 1147 991 784 
Q 1303 422 1725 422 
Q 2006 422 2214 576 
Q 2422 731 2563 1106 
L 2659 1044 
Q 2594 616 2278 264 
Q 1963 -88 1488 -88 
Q 972 -88 605 314 
Q 238 716 238 1394 
Q 238 2128 614 2539 
Q 991 2950 1559 2950 
Q 2041 2950 2350 2633 
Q 2659 2316 2659 1784 
L 681 1784 
z
M 681 1966 
L 2006 1966 
Q 1991 2241 1941 2353 
Q 1863 2528 1708 2628 
Q 1553 2728 1384 2728 
Q 1125 2728 920 2526 
Q 716 2325 681 1966 
z
" transform="scale(0.015625)"/>
       <path id="TimesNewRomanPSMT-20" transform="scale(0.015625)"/>
       <path id="TimesNewRomanPSMT-28" d="M 1988 -1253 
L 1988 -1369 
Q 1516 -1131 1200 -813 
Q 750 -359 506 256 
Q 263 872 263 1534 
Q 263 2503 741 3301 
Q 1219 4100 1988 4444 
L 1988 4313 
Q 1603 4100 1356 3731 
Q 1109 3363 987 2797 
Q 866 2231 866 1616 
Q 866 947 969 400 
Q 1050 -31 1165 -292 
Q 1281 -553 1476 -793 
Q 1672 -1034 1988 -1253 
z
" transform="scale(0.015625)"/>
       <path id="TimesNewRomanPSMT-73" d="M 2050 2947 
L 2050 1972 
L 1947 1972 
Q 1828 2431 1642 2597 
Q 1456 2763 1169 2763 
Q 950 2763 815 2647 
Q 681 2531 681 2391 
Q 681 2216 781 2091 
Q 878 1963 1175 1819 
L 1631 1597 
Q 2266 1288 2266 781 
Q 2266 391 1970 151 
Q 1675 -88 1309 -88 
Q 1047 -88 709 6 
Q 606 38 541 38 
Q 469 38 428 -44 
L 325 -44 
L 325 978 
L 428 978 
Q 516 541 762 319 
Q 1009 97 1316 97 
Q 1531 97 1667 223 
Q 1803 350 1803 528 
Q 1803 744 1651 891 
Q 1500 1038 1047 1263 
Q 594 1488 453 1669 
Q 313 1847 313 2119 
Q 313 2472 555 2709 
Q 797 2947 1181 2947 
Q 1350 2947 1591 2875 
Q 1750 2828 1803 2828 
Q 1853 2828 1881 2850 
Q 1909 2872 1947 2947 
L 2050 2947 
z
" transform="scale(0.015625)"/>
       <path id="TimesNewRomanPSMT-29" d="M 144 4313 
L 144 4444 
Q 619 4209 934 3891 
Q 1381 3434 1625 2820 
Q 1869 2206 1869 1541 
Q 1869 572 1392 -226 
Q 916 -1025 144 -1369 
L 144 -1253 
Q 528 -1038 776 -670 
Q 1025 -303 1145 264 
Q 1266 831 1266 1447 
Q 1266 2113 1163 2663 
Q 1084 3094 967 3353 
Q 850 3613 656 3853 
Q 463 4094 144 4313 
z
" transform="scale(0.015625)"/>
      </defs>
      <use xlink:href="#TimesNewRomanPSMT-54"/>
      <use xlink:href="#TimesNewRomanPSMT-69" x="57.583984"/>
      <use xlink:href="#TimesNewRomanPSMT-6d" x="85.367188"/>
      <use xlink:href="#TimesNewRomanPSMT-65" x="163.150391"/>
      <use xlink:href="#TimesNewRomanPSMT-20" x="207.535156"/>
      <use xlink:href="#TimesNewRomanPSMT-28" x="232.535156"/>
      <use xlink:href="#TimesNewRomanPSMT-73" x="265.835938"/>
      <use xlink:href="#TimesNewRomanPSMT-29" x="304.751953"/>
     </g>
    </g>
   </g>
   <g id="matplotlib.axis_2">
    <g id="ytick_1">
     <g id="line2d_8">
      <defs>
       <path id="mf3daae426f" d="M 0 0 
L -3.5 0 
" style="stroke: #212121; stroke-width: 0.8"/>
      </defs>
      <g>
       <use xlink:href="#mf3daae426f" x="47.2375" y="402.539937" style="fill: #212121; stroke: #212121; stroke-width: 0.8"/>
      </g>
     </g>
     <g id="text_9">
      <!-- 0 -->
      <g style="fill: #212121" transform="translate(35.2375 406.011812)scale(0.1 -0.1)">
       <use xlink:href="#TimesNewRomanPSMT-30"/>
      </g>
     </g>
    </g>
    <g id="ytick_2">
     <g id="line2d_9">
      <g>
       <use xlink:href="#mf3daae426f" x="47.2375" y="323.735316" style="fill: #212121; stroke: #212121; stroke-width: 0.8"/>
      </g>
     </g>
     <g id="text_10">
      <!-- 50 -->
      <g style="fill: #212121" transform="translate(30.2375 327.207191)scale(0.1 -0.1)">
       <use xlink:href="#TimesNewRomanPSMT-35"/>
       <use xlink:href="#TimesNewRomanPSMT-30" x="50"/>
      </g>
     </g>
    </g>
    <g id="ytick_3">
     <g id="line2d_10">
      <g>
       <use xlink:href="#mf3daae426f" x="47.2375" y="244.930696" style="fill: #212121; stroke: #212121; stroke-width: 0.8"/>
      </g>
     </g>
     <g id="text_11">
      <!-- 100 -->
      <g style="fill: #212121" transform="translate(25.2375 248.402571)scale(0.1 -0.1)">
       <use xlink:href="#TimesNewRomanPSMT-31"/>
       <use xlink:href="#TimesNewRomanPSMT-30" x="50"/>
       <use xlink:href="#TimesNewRomanPSMT-30" x="100"/>
      </g>
     </g>
    </g>
    <g id="ytick_4">
     <g id="line2d_11">
      <g>
       <use xlink:href="#mf3daae426f" x="47.2375" y="166.126075" style="fill: #212121; stroke: #212121; stroke-width: 0.8"/>
      </g>
     </g>
     <g id="text_12">
      <!-- 150 -->
      <g style="fill: #212121" transform="translate(25.2375 169.59795)scale(0.1 -0.1)">
       <use xlink:href="#TimesNewRomanPSMT-31"/>
       <use xlink:href="#TimesNewRomanPSMT-35" x="50"/>
       <use xlink:href="#TimesNewRomanPSMT-30" x="100"/>
      </g>
     </g>
    </g>
    <g id="ytick_5">
     <g id="line2d_12">
      <g>
       <use xlink:href="#mf3daae426f" x="47.2375" y="87.321454" style="fill: #212121; stroke: #212121; stroke-width: 0.8"/>
      </g>
     </g>
     <g id="text_13">
      <!-- 200 -->
      <g style="fill: #212121" transform="translate(25.2375 90.793329)scale(0.1 -0.1)">
       <use xlink:href="#TimesNewRomanPSMT-32"/>
       <use xlink:href="#TimesNewRomanPSMT-30" x="50"/>
       <use xlink:href="#TimesNewRomanPSMT-30" x="100"/>
      </g>
     </g>
    </g>
    <g id="text_14">
     <!-- Landmark Coordinate (mm) -->
     <g style="fill: #212121" transform="translate(19.098438 292.715625)rotate(-90)scale(0.1 -0.1)">
      <defs>
       <path id="TimesNewRomanPSMT-4c" d="M 3669 1172 
L 3772 1150 
L 3409 0 
L 128 0 
L 128 116 
L 288 116 
Q 556 116 672 291 
Q 738 391 738 753 
L 738 3488 
Q 738 3884 650 3984 
Q 528 4122 288 4122 
L 128 4122 
L 128 4238 
L 2047 4238 
L 2047 4122 
Q 1709 4125 1573 4059 
Q 1438 3994 1388 3894 
Q 1338 3794 1338 3416 
L 1338 753 
Q 1338 494 1388 397 
Q 1425 331 1503 300 
Q 1581 269 1991 269 
L 2300 269 
Q 2788 269 2984 341 
Q 3181 413 3343 595 
Q 3506 778 3669 1172 
z
" transform="scale(0.015625)"/>
       <path id="TimesNewRomanPSMT-61" d="M 1822 413 
Q 1381 72 1269 19 
Q 1100 -59 909 -59 
Q 613 -59 420 144 
Q 228 347 228 678 
Q 228 888 322 1041 
Q 450 1253 767 1440 
Q 1084 1628 1822 1897 
L 1822 2009 
Q 1822 2438 1686 2597 
Q 1550 2756 1291 2756 
Q 1094 2756 978 2650 
Q 859 2544 859 2406 
L 866 2225 
Q 866 2081 792 2003 
Q 719 1925 600 1925 
Q 484 1925 411 2006 
Q 338 2088 338 2228 
Q 338 2497 613 2722 
Q 888 2947 1384 2947 
Q 1766 2947 2009 2819 
Q 2194 2722 2281 2516 
Q 2338 2381 2338 1966 
L 2338 994 
Q 2338 584 2353 492 
Q 2369 400 2405 369 
Q 2441 338 2488 338 
Q 2538 338 2575 359 
Q 2641 400 2828 588 
L 2828 413 
Q 2478 -56 2159 -56 
Q 2006 -56 1915 50 
Q 1825 156 1822 413 
z
M 1822 616 
L 1822 1706 
Q 1350 1519 1213 1441 
Q 966 1303 859 1153 
Q 753 1003 753 825 
Q 753 600 887 451 
Q 1022 303 1197 303 
Q 1434 303 1822 616 
z
" transform="scale(0.015625)"/>
       <path id="TimesNewRomanPSMT-6e" d="M 1034 2341 
Q 1538 2947 1994 2947 
Q 2228 2947 2397 2830 
Q 2566 2713 2666 2444 
Q 2734 2256 2734 1869 
L 2734 647 
Q 2734 375 2778 278 
Q 2813 200 2889 156 
Q 2966 113 3172 113 
L 3172 0 
L 1756 0 
L 1756 113 
L 1816 113 
Q 2016 113 2095 173 
Q 2175 234 2206 353 
Q 2219 400 2219 647 
L 2219 1819 
Q 2219 2209 2117 2386 
Q 2016 2563 1775 2563 
Q 1403 2563 1034 2156 
L 1034 647 
Q 1034 356 1069 288 
Q 1113 197 1189 155 
Q 1266 113 1500 113 
L 1500 0 
L 84 0 
L 84 113 
L 147 113 
Q 366 113 442 223 
Q 519 334 519 647 
L 519 1709 
Q 519 2225 495 2337 
Q 472 2450 423 2490 
Q 375 2531 294 2531 
Q 206 2531 84 2484 
L 38 2597 
L 900 2947 
L 1034 2947 
L 1034 2341 
z
" transform="scale(0.015625)"/>
       <path id="TimesNewRomanPSMT-64" d="M 2222 322 
Q 2013 103 1813 7 
Q 1613 -88 1381 -88 
Q 913 -88 563 304 
Q 213 697 213 1313 
Q 213 1928 600 2439 
Q 988 2950 1597 2950 
Q 1975 2950 2222 2709 
L 2222 3238 
Q 2222 3728 2198 3840 
Q 2175 3953 2125 3993 
Q 2075 4034 2000 4034 
Q 1919 4034 1784 3984 
L 1744 4094 
L 2597 4444 
L 2738 4444 
L 2738 1134 
Q 2738 631 2761 520 
Q 2784 409 2836 365 
Q 2888 322 2956 322 
Q 3041 322 3181 375 
L 3216 266 
L 2366 -88 
L 2222 -88 
L 2222 322 
z
M 2222 541 
L 2222 2016 
Q 2203 2228 2109 2403 
Q 2016 2578 1861 2667 
Q 1706 2756 1559 2756 
Q 1284 2756 1069 2509 
Q 784 2184 784 1559 
Q 784 928 1059 592 
Q 1334 256 1672 256 
Q 1956 256 2222 541 
z
" transform="scale(0.015625)"/>
       <path id="TimesNewRomanPSMT-72" d="M 1038 2947 
L 1038 2303 
Q 1397 2947 1775 2947 
Q 1947 2947 2059 2842 
Q 2172 2738 2172 2600 
Q 2172 2478 2090 2393 
Q 2009 2309 1897 2309 
Q 1788 2309 1652 2417 
Q 1516 2525 1450 2525 
Q 1394 2525 1328 2463 
Q 1188 2334 1038 2041 
L 1038 669 
Q 1038 431 1097 309 
Q 1138 225 1241 169 
Q 1344 113 1538 113 
L 1538 0 
L 72 0 
L 72 113 
Q 291 113 397 181 
Q 475 231 506 341 
Q 522 394 522 644 
L 522 1753 
Q 522 2253 501 2348 
Q 481 2444 426 2487 
Q 372 2531 291 2531 
Q 194 2531 72 2484 
L 41 2597 
L 906 2947 
L 1038 2947 
z
" transform="scale(0.015625)"/>
       <path id="TimesNewRomanPSMT-6b" d="M 1047 4444 
L 1047 1594 
L 1775 2259 
Q 2006 2472 2044 2528 
Q 2069 2566 2069 2603 
Q 2069 2666 2017 2711 
Q 1966 2756 1847 2763 
L 1847 2863 
L 3091 2863 
L 3091 2763 
Q 2834 2756 2664 2684 
Q 2494 2613 2291 2428 
L 1556 1750 
L 2291 822 
Q 2597 438 2703 334 
Q 2853 188 2966 144 
Q 3044 113 3238 113 
L 3238 0 
L 1847 0 
L 1847 113 
Q 1966 116 2008 148 
Q 2050 181 2050 241 
Q 2050 313 1925 472 
L 1047 1594 
L 1047 644 
Q 1047 366 1086 278 
Q 1125 191 1197 153 
Q 1269 116 1509 113 
L 1509 0 
L 53 0 
L 53 113 
Q 272 113 381 166 
Q 447 200 481 272 
Q 528 375 528 628 
L 528 3234 
Q 528 3731 506 3842 
Q 484 3953 434 3995 
Q 384 4038 303 4038 
Q 238 4038 106 3984 
L 53 4094 
L 903 4444 
L 1047 4444 
z
" transform="scale(0.015625)"/>
       <path id="TimesNewRomanPSMT-43" d="M 3853 4334 
L 3950 2894 
L 3853 2894 
Q 3659 3541 3300 3825 
Q 2941 4109 2438 4109 
Q 2016 4109 1675 3895 
Q 1334 3681 1139 3212 
Q 944 2744 944 2047 
Q 944 1472 1128 1050 
Q 1313 628 1683 403 
Q 2053 178 2528 178 
Q 2941 178 3256 354 
Q 3572 531 3950 1056 
L 4047 994 
Q 3728 428 3303 165 
Q 2878 -97 2294 -97 
Q 1241 -97 663 684 
Q 231 1266 231 2053 
Q 231 2688 515 3219 
Q 800 3750 1298 4042 
Q 1797 4334 2388 4334 
Q 2847 4334 3294 4109 
Q 3425 4041 3481 4041 
Q 3566 4041 3628 4100 
Q 3709 4184 3744 4334 
L 3853 4334 
z
" transform="scale(0.015625)"/>
       <path id="TimesNewRomanPSMT-6f" d="M 1600 2947 
Q 2250 2947 2644 2453 
Q 2978 2031 2978 1484 
Q 2978 1100 2793 706 
Q 2609 313 2286 112 
Q 1963 -88 1566 -88 
Q 919 -88 538 428 
Q 216 863 216 1403 
Q 216 1797 411 2186 
Q 606 2575 925 2761 
Q 1244 2947 1600 2947 
z
M 1503 2744 
Q 1338 2744 1170 2645 
Q 1003 2547 900 2300 
Q 797 2053 797 1666 
Q 797 1041 1045 587 
Q 1294 134 1700 134 
Q 2003 134 2200 384 
Q 2397 634 2397 1244 
Q 2397 2006 2069 2444 
Q 1847 2744 1503 2744 
z
" transform="scale(0.015625)"/>
       <path id="TimesNewRomanPSMT-74" d="M 1031 3803 
L 1031 2863 
L 1700 2863 
L 1700 2644 
L 1031 2644 
L 1031 788 
Q 1031 509 1111 412 
Q 1191 316 1316 316 
Q 1419 316 1516 380 
Q 1613 444 1666 569 
L 1788 569 
Q 1678 263 1478 108 
Q 1278 -47 1066 -47 
Q 922 -47 784 33 
Q 647 113 581 261 
Q 516 409 516 719 
L 516 2644 
L 63 2644 
L 63 2747 
Q 234 2816 414 2980 
Q 594 3144 734 3369 
Q 806 3488 934 3803 
L 1031 3803 
z
" transform="scale(0.015625)"/>
      </defs>
      <use xlink:href="#TimesNewRomanPSMT-4c"/>
      <use xlink:href="#TimesNewRomanPSMT-61" x="61.083984"/>
      <use xlink:href="#TimesNewRomanPSMT-6e" x="105.46875"/>
      <use xlink:href="#TimesNewRomanPSMT-64" x="155.46875"/>
      <use xlink:href="#TimesNewRomanPSMT-6d" x="205.46875"/>
      <use xlink:href="#TimesNewRomanPSMT-61" x="283.251953"/>
      <use xlink:href="#TimesNewRomanPSMT-72" x="327.636719"/>
      <use xlink:href="#TimesNewRomanPSMT-6b" x="360.9375"/>
      <use xlink:href="#TimesNewRomanPSMT-20" x="410.9375"/>
      <use xlink:href="#TimesNewRomanPSMT-43" x="435.9375"/>
      <use xlink:href="#TimesNewRomanPSMT-6f" x="502.636719"/>
      <use xlink:href="#TimesNewRomanPSMT-6f" x="552.636719"/>
      <use xlink:href="#TimesNewRomanPSMT-72" x="602.636719"/>
      <use xlink:href="#TimesNewRomanPSMT-64" x="635.9375"/>
      <use xlink:href="#TimesNewRomanPSMT-69" x="685.9375"/>
      <use xlink:href="#TimesNewRomanPSMT-6e" x="713.720703"/>
      <use xlink:href="#TimesNewRomanPSMT-61" x="763.720703"/>
      <use xlink:href="#TimesNewRomanPSMT-74" x="808.105469"/>
      <use xlink:href="#TimesNewRomanPSMT-65" x="835.888672"/>
      <use xlink:href="#TimesNewRomanPSMT-20" x="880.273438"/>
      <use xlink:href="#TimesNewRomanPSMT-28" x="905.273438"/>
      <use xlink:href="#TimesNewRomanPSMT-6d" x="938.574219"/>
      <use xlink:href="#TimesNewRomanPSMT-6d" x="1016.357422"/>
      <use xlink:href="#TimesNewRomanPSMT-29" x="1094.140625"/>
     </g>
    </g>
   </g>
   <g id="line2d_13">
    <path d="M 71.026705 420.509755 
L 90.733738 420.416923 
L 151.262483 419.938421 
L 156.893064 419.729116 
L 159.708355 419.440061 
L 166.746581 419.913046 
L 168.154226 420.032829 
L 170.969517 419.774823 
L 175.192452 419.678051 
L 176.600097 419.617214 
L 179.415388 419.334778 
L 182.230678 418.897255 
L 183.638324 418.673765 
L 186.453614 418.536172 
L 192.084195 419.027913 
L 193.49184 419.285761 
L 194.899486 419.693812 
L 197.714776 421.073208 
L 199.122421 421.554389 
L 200.530067 422.334082 
L 201.937712 422.867274 
L 204.753002 425.151977 
L 206.160648 427.238724 
L 207.568293 428.567842 
L 208.975938 426.702695 
L 211.791228 426.137035 
L 214.606519 428.240488 
L 216.014164 429.058953 
L 217.421809 430.299968 
L 221.644745 436.093369 
L 223.05239 437.381194 
L 224.460036 439.57606 
L 225.867681 440.472226 
L 227.275326 441.176267 
L 230.090617 441.383523 
L 231.498262 440.872711 
L 232.905907 439.925007 
L 234.313552 439.487641 
L 237.128843 439.705615 
L 238.536488 439.931154 
L 239.944133 439.900735 
L 241.351779 440.102002 
L 242.759424 440.119969 
L 244.167069 439.91098 
L 245.574714 439.81736 
L 248.390005 439.309385 
L 249.79765 438.85484 
L 252.61294 437.520993 
L 254.020586 436.708045 
L 255.428231 436.058852 
L 259.651167 432.74433 
L 261.058812 431.733424 
L 263.874102 430.467979 
L 269.504683 428.667294 
L 272.319974 427.976335 
L 276.542909 427.415877 
L 279.3582 427.263941 
L 297.657588 426.679999 
L 307.511105 426.160204 
L 315.956976 425.706604 
L 321.587557 425.231885 
L 346.925171 423.977 
L 352.555752 423.999381 
L 359.593979 423.767695 
L 363.816914 423.932555 
L 370.855141 423.724038 
L 372.262786 423.729869 
L 376.485721 424.277088 
L 383.523948 424.796726 
L 386.339238 425.119195 
L 389.154529 425.045118 
L 391.969819 425.111945 
L 393.377464 425.125499 
L 396.192755 425.47287 
L 399.008045 425.964453 
L 404.638626 427.219968 
L 406.046272 427.286007 
L 408.861562 427.679714 
L 413.084498 427.960574 
L 415.899788 427.730937 
L 418.715079 427.338963 
L 421.530369 426.583069 
L 422.938014 426.402449 
L 427.16095 426.197715 
L 429.976241 425.855703 
L 434.199176 424.88546 
L 438.422112 424.791367 
L 445.460338 423.808831 
L 449.683274 423.601575 
L 452.498564 423.473754 
L 459.536791 423.6632 
L 470.797953 424.201594 
L 475.020888 424.498214 
L 480.651469 424.609644 
L 489.097341 424.660394 
L 494.727922 424.468899 
L 510.212019 423.732233 
L 527.103762 423.37714 
L 546.810795 422.110592 
L 546.810795 422.110592 
" clip-path="url(#pb83d511c6e)" style="fill: none; stroke: #1f77b4; stroke-width: 3; stroke-linecap: square"/>
   </g>
   <g id="line2d_14">
    <path d="M 71.026705 240.571224 
L 132.963095 240.902203 
L 135.778386 240.739866 
L 138.593676 240.404158 
L 142.816612 239.553068 
L 147.039547 238.090454 
L 148.447193 237.461594 
L 149.854838 236.635721 
L 152.670128 234.63566 
L 155.485419 232.4575 
L 162.523645 224.71731 
L 165.338936 220.121425 
L 166.746581 218.249027 
L 169.561871 213.980969 
L 175.192452 205.526809 
L 178.007743 201.671687 
L 186.453614 192.38535 
L 189.268905 189.813168 
L 190.67655 188.523924 
L 192.084195 186.799679 
L 193.49184 184.876846 
L 194.899486 183.516678 
L 196.307131 181.429932 
L 197.714776 179.644219 
L 199.122421 178.484215 
L 200.530067 176.455784 
L 201.937712 175.097193 
L 203.345357 172.826044 
L 204.753002 170.2381 
L 206.160648 164.654004 
L 207.568293 160.012412 
L 208.975938 157.905177 
L 210.383583 156.765662 
L 211.791228 154.915329 
L 213.198874 153.823097 
L 214.606519 152.904235 
L 217.421809 149.687431 
L 218.829455 146.677094 
L 220.2371 143.045777 
L 221.644745 140.074843 
L 224.460036 131.964272 
L 230.090617 121.894617 
L 232.905907 114.858941 
L 234.313552 112.969206 
L 241.351779 98.385623 
L 242.759424 94.489522 
L 245.574714 89.044123 
L 246.982359 85.884058 
L 248.390005 80.857899 
L 249.79765 76.690711 
L 251.205295 73.355699 
L 252.61294 70.591233 
L 254.020586 68.164051 
L 256.835876 62.871532 
L 258.243521 60.902993 
L 259.651167 57.807547 
L 261.058812 54.173078 
L 262.466457 51.805787 
L 263.874102 50.046868 
L 265.281748 48.598439 
L 268.097038 46.138159 
L 269.504683 44.768535 
L 272.319974 41.559611 
L 275.135264 39.345201 
L 276.542909 38.451556 
L 277.950555 37.401879 
L 280.765845 35.62247 
L 283.581136 34.308009 
L 286.396426 33.442735 
L 289.211717 32.88007 
L 293.434652 32.314253 
L 303.288169 31.444249 
L 313.141686 31.330771 
L 315.956976 31.442673 
L 334.256364 33.422245 
L 337.071655 33.898225 
L 345.517526 35.521601 
L 348.332817 36.467256 
L 351.148107 37.646173 
L 355.371043 39.832213 
L 356.778688 40.733738 
L 358.186333 41.405154 
L 363.816914 44.921416 
L 368.03985 48.294254 
L 369.447495 49.441649 
L 373.670431 53.950849 
L 375.078076 55.145527 
L 377.893367 58.058146 
L 379.301012 59.703587 
L 380.708657 61.656365 
L 384.931593 66.61948 
L 386.339238 68.583291 
L 387.746883 76.916092 
L 389.154529 82.835895 
L 390.562174 87.955043 
L 391.969819 88.914883 
L 393.377464 89.138688 
L 394.78511 91.693534 
L 396.192755 93.178213 
L 397.6004 93.658922 
L 399.008045 94.365011 
L 400.415691 95.348493 
L 401.823336 96.826867 
L 403.230981 98.574754 
L 404.638626 101.167426 
L 411.676852 117.305036 
L 414.492143 124.186256 
L 418.715079 134.19129 
L 421.530369 141.113488 
L 425.753305 150.959337 
L 427.16095 153.684401 
L 429.976241 159.66252 
L 431.383886 162.466388 
L 435.606822 171.470604 
L 437.014467 174.093222 
L 439.829757 178.285628 
L 444.052693 184.842172 
L 445.460338 186.798103 
L 448.275629 190.114201 
L 451.090919 193.05519 
L 452.498564 194.130085 
L 453.90621 195.030034 
L 459.536791 199.184613 
L 460.944436 200.128692 
L 463.759726 201.804079 
L 466.575017 203.596096 
L 470.797953 206.406269 
L 473.613243 207.878339 
L 475.020888 208.562363 
L 476.428533 209.061984 
L 477.836179 209.690845 
L 479.243824 211.257481 
L 487.689695 213.73037 
L 497.543212 215.812388 
L 505.989084 218.061472 
L 510.212019 218.918866 
L 525.696117 221.669148 
L 536.957279 223.303555 
L 546.810795 224.439918 
L 546.810795 224.439918 
" clip-path="url(#pb83d511c6e)" style="fill: none; stroke: #ff7f0e; stroke-width: 3; stroke-linecap: square"/>
   </g>
   <g id="line2d_15">
    <path d="M 71.026705 348.043232 
L 142.816612 348.639941 
L 148.447193 348.429847 
L 156.893064 348.046227 
L 168.154226 346.854858 
L 169.561871 346.519623 
L 170.969517 345.976502 
L 172.377162 345.283021 
L 178.007743 343.094775 
L 179.415388 342.339196 
L 183.638324 340.569244 
L 185.045969 339.857954 
L 187.861259 338.960684 
L 193.49184 337.446847 
L 197.714776 337.415326 
L 199.122421 337.429038 
L 201.937712 337.08608 
L 203.345357 336.658644 
L 204.753002 337.53637 
L 206.160648 340.280977 
L 207.568293 342.384587 
L 208.975938 343.734983 
L 210.383583 344.173925 
L 211.791228 343.462792 
L 213.198874 342.915258 
L 214.606519 342.601773 
L 216.014164 342.686724 
L 218.829455 342.44968 
L 220.2371 342.188364 
L 221.644745 342.165668 
L 223.05239 340.773506 
L 224.460036 339.117821 
L 225.867681 338.394079 
L 230.090617 335.300367 
L 231.498262 332.027454 
L 232.905907 326.18283 
L 234.313552 322.465931 
L 235.721198 319.104757 
L 237.128843 316.417677 
L 238.536488 314.169066 
L 239.944133 312.197689 
L 241.351779 310.543896 
L 242.759424 308.535481 
L 245.574714 305.411035 
L 246.982359 304.071987 
L 248.390005 302.353101 
L 252.61294 298.571898 
L 255.428231 296.555918 
L 256.835876 295.589143 
L 258.243521 294.859412 
L 259.651167 293.912338 
L 261.058812 292.486132 
L 262.466457 291.634096 
L 266.689393 289.931759 
L 269.504683 288.933462 
L 270.912329 288.324145 
L 275.135264 286.954836 
L 279.3582 285.763152 
L 282.17349 285.364243 
L 286.396426 285.044139 
L 294.842298 284.758708 
L 306.10346 284.605512 
L 313.141686 284.697871 
L 318.772267 285.048552 
L 325.810493 285.787109 
L 345.517526 288.197112 
L 348.332817 288.717065 
L 355.371043 290.59687 
L 359.593979 291.808727 
L 361.001624 292.426871 
L 363.816914 294.060806 
L 365.22456 294.930021 
L 366.632205 295.631697 
L 370.855141 298.336902 
L 372.262786 299.135666 
L 377.893367 301.895246 
L 384.931593 305.628063 
L 386.339238 306.536838 
L 387.746883 310.346254 
L 389.154529 312.717327 
L 390.562174 313.99869 
L 393.377464 314.278604 
L 394.78511 315.681011 
L 396.192755 316.554797 
L 397.6004 317.094609 
L 400.415691 319.016023 
L 403.230981 321.037046 
L 411.676852 329.211765 
L 413.084498 330.48178 
L 417.307433 333.689916 
L 420.122724 335.637809 
L 424.34566 338.177997 
L 425.753305 339.267077 
L 428.568595 341.112366 
L 431.383886 342.728491 
L 432.791531 343.77344 
L 437.014467 346.266503 
L 441.237403 347.880422 
L 445.460338 349.008116 
L 449.683274 349.2781 
L 453.90621 349.345084 
L 458.129145 349.243899 
L 463.759726 348.969817 
L 473.613243 348.471456 
L 482.059114 347.787432 
L 490.504986 347.492545 
L 497.543212 347.499795 
L 518.657891 347.917617 
L 528.511407 347.85347 
L 539.772569 347.623519 
L 542.58786 347.541877 
L 546.810795 347.260545 
L 546.810795 347.260545 
" clip-path="url(#pb83d511c6e)" style="fill: none; stroke: #2ca02c; stroke-width: 3; stroke-linecap: square"/>
   </g>
   <g id="patch_3">
    <path d="M 47.2375 461.8875 
L 47.2375 10.8 
" style="fill: none; stroke: #212121; stroke-width: 0.8; stroke-linejoin: miter; stroke-linecap: square"/>
   </g>
   <g id="patch_4">
    <path d="M 570.6 461.8875 
L 570.6 10.8 
" style="fill: none; stroke: #212121; stroke-width: 0.8; stroke-linejoin: miter; stroke-linecap: square"/>
   </g>
   <g id="patch_5">
    <path d="M 47.2375 461.8875 
L 570.6 461.8875 
" style="fill: none; stroke: #212121; stroke-width: 0.8; stroke-linejoin: miter; stroke-linecap: square"/>
   </g>
   <g id="patch_6">
    <path d="M 47.2375 10.8 
L 570.6 10.8 
" style="fill: none; stroke: #212121; stroke-width: 0.8; stroke-linejoin: miter; stroke-linecap: square"/>
   </g>
   <g id="legend_1">
    <g id="line2d_16">
     <path d="M 526.378125 23.3 
L 536.378125 23.3 
L 546.378125 23.3 
" style="fill: none; stroke: #1f77b4; stroke-width: 3; stroke-linecap: square"/>
    </g>
    <g id="text_15">
     <!-- X -->
     <g style="fill: #212121" transform="translate(554.378125 26.8)scale(0.1 -0.1)">
      <defs>
       <path id="TimesNewRomanPSMT-58" d="M 2613 2347 
L 3522 991 
Q 3900 428 4083 279 
Q 4266 131 4547 116 
L 4547 0 
L 2728 0 
L 2728 116 
Q 2909 119 2997 153 
Q 3063 181 3105 239 
Q 3147 297 3147 356 
Q 3147 428 3119 500 
Q 3097 553 2947 775 
L 2228 1863 
L 1341 725 
Q 1200 544 1172 483 
Q 1144 422 1144 356 
Q 1144 256 1228 190 
Q 1313 125 1550 116 
L 1550 0 
L 47 0 
L 47 116 
Q 206 131 322 181 
Q 516 263 691 400 
Q 866 538 1091 822 
L 2091 2084 
L 1256 3306 
Q 916 3803 678 3958 
Q 441 4113 131 4122 
L 131 4238 
L 2091 4238 
L 2091 4122 
Q 1841 4113 1748 4041 
Q 1656 3969 1656 3881 
Q 1656 3766 1806 3544 
L 2456 2572 
L 3209 3525 
Q 3341 3694 3370 3756 
Q 3400 3819 3400 3884 
Q 3400 3950 3363 4000 
Q 3316 4066 3244 4092 
Q 3172 4119 2947 4122 
L 2947 4238 
L 4450 4238 
L 4450 4122 
Q 4272 4113 4159 4066 
Q 3991 3994 3850 3872 
Q 3709 3750 3453 3422 
L 2613 2347 
z
" transform="scale(0.015625)"/>
      </defs>
      <use xlink:href="#TimesNewRomanPSMT-58"/>
     </g>
    </g>
    <g id="line2d_17">
     <path d="M 526.378125 37.439063 
L 536.378125 37.439063 
L 546.378125 37.439063 
" style="fill: none; stroke: #ff7f0e; stroke-width: 3; stroke-linecap: square"/>
    </g>
    <g id="text_16">
     <!-- Y -->
     <g style="fill: #212121" transform="translate(554.378125 40.939063)scale(0.1 -0.1)">
      <defs>
       <path id="TimesNewRomanPSMT-59" d="M 3050 4238 
L 4528 4238 
L 4528 4122 
L 4447 4122 
Q 4366 4122 4209 4050 
Q 4053 3978 3925 3843 
Q 3797 3709 3609 3406 
L 2588 1797 
L 2588 734 
Q 2588 344 2675 247 
Q 2794 116 3050 116 
L 3188 116 
L 3188 0 
L 1388 0 
L 1388 116 
L 1538 116 
Q 1806 116 1919 278 
Q 1988 378 1988 734 
L 1988 1738 
L 825 3513 
Q 619 3825 545 3903 
Q 472 3981 241 4091 
Q 178 4122 59 4122 
L 59 4238 
L 1872 4238 
L 1872 4122 
L 1778 4122 
Q 1631 4122 1507 4053 
Q 1384 3984 1384 3847 
Q 1384 3734 1575 3441 
L 2459 2075 
L 3291 3381 
Q 3478 3675 3478 3819 
Q 3478 3906 3433 3975 
Q 3388 4044 3303 4083 
Q 3219 4122 3050 4122 
L 3050 4238 
z
" transform="scale(0.015625)"/>
      </defs>
      <use xlink:href="#TimesNewRomanPSMT-59"/>
     </g>
    </g>
    <g id="line2d_18">
     <path d="M 526.378125 51.578125 
L 536.378125 51.578125 
L 546.378125 51.578125 
" style="fill: none; stroke: #2ca02c; stroke-width: 3; stroke-linecap: square"/>
    </g>
    <g id="text_17">
     <!-- Z -->
     <g style="fill: #212121" transform="translate(554.378125 55.078125)scale(0.1 -0.1)">
      <defs>
       <path id="TimesNewRomanPSMT-5a" d="M 3681 4238 
L 897 256 
L 2634 256 
Q 3034 256 3248 431 
Q 3463 606 3628 1141 
L 3731 1122 
L 3531 0 
L 81 0 
L 81 116 
L 2800 3984 
L 1444 3984 
Q 1106 3984 954 3911 
Q 803 3838 723 3698 
Q 644 3559 578 3178 
L 459 3178 
L 547 4238 
L 3681 4238 
z
" transform="scale(0.015625)"/>
      </defs>
      <use xlink:href="#TimesNewRomanPSMT-5a"/>
     </g>
    </g>
   </g>
  </g>
  <g id="axes_2">
   <g id="patch_7">
    <path d="M 617.8375 461.8875 
L 1141.2 461.8875 
L 1141.2 10.8 
L 617.8375 10.8 
z
" style="fill: #ffffff"/>
   </g>
   <g id="matplotlib.axis_3">
    <g id="xtick_8">
     <g id="line2d_19">
      <g>
       <use xlink:href="#mf476f1b68b" x="641.626705" y="461.8875" style="fill: #212121; stroke: #212121; stroke-width: 0.8"/>
      </g>
     </g>
     <g id="text_18">
      <!-- 0.0 -->
      <g style="fill: #212121" transform="translate(635.376705 475.83125)scale(0.1 -0.1)">
       <use xlink:href="#TimesNewRomanPSMT-30"/>
       <use xlink:href="#TimesNewRomanPSMT-2e" x="50"/>
       <use xlink:href="#TimesNewRomanPSMT-30" x="75"/>
      </g>
     </g>
    </g>
    <g id="xtick_9">
     <g id="line2d_20">
      <g>
       <use xlink:href="#mf476f1b68b" x="720.924053" y="461.8875" style="fill: #212121; stroke: #212121; stroke-width: 0.8"/>
      </g>
     </g>
     <g id="text_19">
      <!-- 0.5 -->
      <g style="fill: #212121" transform="translate(714.674053 475.83125)scale(0.1 -0.1)">
       <use xlink:href="#TimesNewRomanPSMT-30"/>
       <use xlink:href="#TimesNewRomanPSMT-2e" x="50"/>
       <use xlink:href="#TimesNewRomanPSMT-35" x="75"/>
      </g>
     </g>
    </g>
    <g id="xtick_10">
     <g id="line2d_21">
      <g>
       <use xlink:href="#mf476f1b68b" x="800.221402" y="461.8875" style="fill: #212121; stroke: #212121; stroke-width: 0.8"/>
      </g>
     </g>
     <g id="text_20">
      <!-- 1.0 -->
      <g style="fill: #212121" transform="translate(793.971402 475.83125)scale(0.1 -0.1)">
       <use xlink:href="#TimesNewRomanPSMT-31"/>
       <use xlink:href="#TimesNewRomanPSMT-2e" x="50"/>
       <use xlink:href="#TimesNewRomanPSMT-30" x="75"/>
      </g>
     </g>
    </g>
    <g id="xtick_11">
     <g id="line2d_22">
      <g>
       <use xlink:href="#mf476f1b68b" x="879.51875" y="461.8875" style="fill: #212121; stroke: #212121; stroke-width: 0.8"/>
      </g>
     </g>
     <g id="text_21">
      <!-- 1.5 -->
      <g style="fill: #212121" transform="translate(873.26875 475.83125)scale(0.1 -0.1)">
       <use xlink:href="#TimesNewRomanPSMT-31"/>
       <use xlink:href="#TimesNewRomanPSMT-2e" x="50"/>
       <use xlink:href="#TimesNewRomanPSMT-35" x="75"/>
      </g>
     </g>
    </g>
    <g id="xtick_12">
     <g id="line2d_23">
      <g>
       <use xlink:href="#mf476f1b68b" x="958.816098" y="461.8875" style="fill: #212121; stroke: #212121; stroke-width: 0.8"/>
      </g>
     </g>
     <g id="text_22">
      <!-- 2.0 -->
      <g style="fill: #212121" transform="translate(952.566098 475.83125)scale(0.1 -0.1)">
       <use xlink:href="#TimesNewRomanPSMT-32"/>
       <use xlink:href="#TimesNewRomanPSMT-2e" x="50"/>
       <use xlink:href="#TimesNewRomanPSMT-30" x="75"/>
      </g>
     </g>
    </g>
    <g id="xtick_13">
     <g id="line2d_24">
      <g>
       <use xlink:href="#mf476f1b68b" x="1038.113447" y="461.8875" style="fill: #212121; stroke: #212121; stroke-width: 0.8"/>
      </g>
     </g>
     <g id="text_23">
      <!-- 2.5 -->
      <g style="fill: #212121" transform="translate(1031.863447 475.83125)scale(0.1 -0.1)">
       <use xlink:href="#TimesNewRomanPSMT-32"/>
       <use xlink:href="#TimesNewRomanPSMT-2e" x="50"/>
       <use xlink:href="#TimesNewRomanPSMT-35" x="75"/>
      </g>
     </g>
    </g>
    <g id="xtick_14">
     <g id="line2d_25">
      <g>
       <use xlink:href="#mf476f1b68b" x="1117.410795" y="461.8875" style="fill: #212121; stroke: #212121; stroke-width: 0.8"/>
      </g>
     </g>
     <g id="text_24">
      <!-- 3.0 -->
      <g style="fill: #212121" transform="translate(1111.160795 475.83125)scale(0.1 -0.1)">
       <use xlink:href="#TimesNewRomanPSMT-33"/>
       <use xlink:href="#TimesNewRomanPSMT-2e" x="50"/>
       <use xlink:href="#TimesNewRomanPSMT-30" x="75"/>
      </g>
     </g>
    </g>
    <g id="text_25">
     <!-- Time (s) -->
     <g style="fill: #212121" transform="translate(862.616406 488.914062)scale(0.1 -0.1)">
      <use xlink:href="#TimesNewRomanPSMT-54"/>
      <use xlink:href="#TimesNewRomanPSMT-69" x="57.583984"/>
      <use xlink:href="#TimesNewRomanPSMT-6d" x="85.367188"/>
      <use xlink:href="#TimesNewRomanPSMT-65" x="163.150391"/>
      <use xlink:href="#TimesNewRomanPSMT-20" x="207.535156"/>
      <use xlink:href="#TimesNewRomanPSMT-28" x="232.535156"/>
      <use xlink:href="#TimesNewRomanPSMT-73" x="265.835938"/>
      <use xlink:href="#TimesNewRomanPSMT-29" x="304.751953"/>
     </g>
    </g>
   </g>
   <g id="matplotlib.axis_4">
    <g id="ytick_6">
     <g id="line2d_26">
      <g>
       <use xlink:href="#mf3daae426f" x="617.8375" y="410.046163" style="fill: #212121; stroke: #212121; stroke-width: 0.8"/>
      </g>
     </g>
     <g id="text_26">
      <!-- 0 -->
      <g style="fill: #212121" transform="translate(605.8375 413.518038)scale(0.1 -0.1)">
       <use xlink:href="#TimesNewRomanPSMT-30"/>
      </g>
     </g>
    </g>
    <g id="ytick_7">
     <g id="line2d_27">
      <g>
       <use xlink:href="#mf3daae426f" x="617.8375" y="331.420011" style="fill: #212121; stroke: #212121; stroke-width: 0.8"/>
      </g>
     </g>
     <g id="text_27">
      <!-- 50 -->
      <g style="fill: #212121" transform="translate(600.8375 334.891886)scale(0.1 -0.1)">
       <use xlink:href="#TimesNewRomanPSMT-35"/>
       <use xlink:href="#TimesNewRomanPSMT-30" x="50"/>
      </g>
     </g>
    </g>
    <g id="ytick_8">
     <g id="line2d_28">
      <g>
       <use xlink:href="#mf3daae426f" x="617.8375" y="252.793859" style="fill: #212121; stroke: #212121; stroke-width: 0.8"/>
      </g>
     </g>
     <g id="text_28">
      <!-- 100 -->
      <g style="fill: #212121" transform="translate(595.8375 256.265734)scale(0.1 -0.1)">
       <use xlink:href="#TimesNewRomanPSMT-31"/>
       <use xlink:href="#TimesNewRomanPSMT-30" x="50"/>
       <use xlink:href="#TimesNewRomanPSMT-30" x="100"/>
      </g>
     </g>
    </g>
    <g id="ytick_9">
     <g id="line2d_29">
      <g>
       <use xlink:href="#mf3daae426f" x="617.8375" y="174.167707" style="fill: #212121; stroke: #212121; stroke-width: 0.8"/>
      </g>
     </g>
     <g id="text_29">
      <!-- 150 -->
      <g style="fill: #212121" transform="translate(595.8375 177.639582)scale(0.1 -0.1)">
       <use xlink:href="#TimesNewRomanPSMT-31"/>
       <use xlink:href="#TimesNewRomanPSMT-35" x="50"/>
       <use xlink:href="#TimesNewRomanPSMT-30" x="100"/>
      </g>
     </g>
    </g>
    <g id="ytick_10">
     <g id="line2d_30">
      <g>
       <use xlink:href="#mf3daae426f" x="617.8375" y="95.541556" style="fill: #212121; stroke: #212121; stroke-width: 0.8"/>
      </g>
     </g>
     <g id="text_30">
      <!-- 200 -->
      <g style="fill: #212121" transform="translate(595.8375 99.013431)scale(0.1 -0.1)">
       <use xlink:href="#TimesNewRomanPSMT-32"/>
       <use xlink:href="#TimesNewRomanPSMT-30" x="50"/>
       <use xlink:href="#TimesNewRomanPSMT-30" x="100"/>
      </g>
     </g>
    </g>
    <g id="ytick_11">
     <g id="line2d_31">
      <g>
       <use xlink:href="#mf3daae426f" x="617.8375" y="16.915404" style="fill: #212121; stroke: #212121; stroke-width: 0.8"/>
      </g>
     </g>
     <g id="text_31">
      <!-- 250 -->
      <g style="fill: #212121" transform="translate(595.8375 20.387279)scale(0.1 -0.1)">
       <use xlink:href="#TimesNewRomanPSMT-32"/>
       <use xlink:href="#TimesNewRomanPSMT-35" x="50"/>
       <use xlink:href="#TimesNewRomanPSMT-30" x="100"/>
      </g>
     </g>
    </g>
    <g id="text_32">
     <!-- Landmark Coordinate (mm) -->
     <g style="fill: #212121" transform="translate(589.698437 292.715625)rotate(-90)scale(0.1 -0.1)">
      <use xlink:href="#TimesNewRomanPSMT-4c"/>
      <use xlink:href="#TimesNewRomanPSMT-61" x="61.083984"/>
      <use xlink:href="#TimesNewRomanPSMT-6e" x="105.46875"/>
      <use xlink:href="#TimesNewRomanPSMT-64" x="155.46875"/>
      <use xlink:href="#TimesNewRomanPSMT-6d" x="205.46875"/>
      <use xlink:href="#TimesNewRomanPSMT-61" x="283.251953"/>
      <use xlink:href="#TimesNewRomanPSMT-72" x="327.636719"/>
      <use xlink:href="#TimesNewRomanPSMT-6b" x="360.9375"/>
      <use xlink:href="#TimesNewRomanPSMT-20" x="410.9375"/>
      <use xlink:href="#TimesNewRomanPSMT-43" x="435.9375"/>
      <use xlink:href="#TimesNewRomanPSMT-6f" x="502.636719"/>
      <use xlink:href="#TimesNewRomanPSMT-6f" x="552.636719"/>
      <use xlink:href="#TimesNewRomanPSMT-72" x="602.636719"/>
      <use xlink:href="#TimesNewRomanPSMT-64" x="635.9375"/>
      <use xlink:href="#TimesNewRomanPSMT-69" x="685.9375"/>
      <use xlink:href="#TimesNewRomanPSMT-6e" x="713.720703"/>
      <use xlink:href="#TimesNewRomanPSMT-61" x="763.720703"/>
      <use xlink:href="#TimesNewRomanPSMT-74" x="808.105469"/>
      <use xlink:href="#TimesNewRomanPSMT-65" x="835.888672"/>
      <use xlink:href="#TimesNewRomanPSMT-20" x="880.273438"/>
      <use xlink:href="#TimesNewRomanPSMT-28" x="905.273438"/>
      <use xlink:href="#TimesNewRomanPSMT-6d" x="938.574219"/>
      <use xlink:href="#TimesNewRomanPSMT-6d" x="1016.357422"/>
      <use xlink:href="#TimesNewRomanPSMT-29" x="1094.140625"/>
     </g>
    </g>
   </g>
   <g id="line2d_32">
    <path d="M 641.626705 425.552082 
L 644.441995 426.539182 
L 647.257286 427.362445 
L 651.480221 428.30662 
L 655.703157 428.929946 
L 659.926093 429.268889 
L 664.149028 429.36351 
L 668.371964 429.255774 
L 674.002545 428.870625 
L 681.040771 428.138272 
L 699.340159 426.071656 
L 706.378386 425.572211 
L 712.008967 425.383176 
L 717.639547 425.40674 
L 723.270128 425.653314 
L 728.900709 426.122029 
L 734.53129 426.801984 
L 741.569517 427.918555 
L 748.607743 429.280919 
L 757.053614 431.14704 
L 785.206519 437.58707 
L 792.244745 438.884275 
L 799.282971 439.942287 
L 804.913552 440.591333 
L 810.544133 441.051072 
L 816.174714 441.314899 
L 821.805295 441.382042 
L 827.435876 441.25738 
L 834.474102 440.84786 
L 841.512329 440.185468 
L 848.550555 439.310804 
L 856.996426 438.049774 
L 871.072879 435.682211 
L 885.149331 433.375014 
L 893.595202 432.192952 
L 902.041074 431.250596 
L 909.0793 430.684447 
L 916.117526 430.335096 
L 923.155752 430.206195 
L 930.193979 430.288926 
L 938.63985 430.637311 
L 948.493367 431.313009 
L 963.977464 432.668583 
L 976.646272 433.699401 
L 985.092143 434.184956 
L 992.130369 434.40426 
L 999.168595 434.42545 
L 1006.206822 434.237223 
L 1013.245048 433.846758 
L 1021.690919 433.15123 
L 1034.359726 431.836979 
L 1045.620888 430.719281 
L 1052.659114 430.218475 
L 1058.289695 429.998911 
L 1063.920276 429.977483 
L 1069.550857 430.171436 
L 1075.181438 430.57339 
L 1082.219664 431.300348 
L 1092.073181 432.364059 
L 1096.296117 432.619291 
L 1099.111407 432.636824 
L 1101.926698 432.47921 
L 1104.741988 432.092571 
L 1107.557279 431.414747 
L 1110.372569 430.374489 
L 1113.18786 428.890618 
L 1114.595505 427.954023 
L 1116.00315 426.871123 
L 1117.410795 425.628567 
L 1117.410795 425.628567 
" clip-path="url(#p0dc8f00017)" style="fill: none; stroke: #1f77b4; stroke-width: 3; stroke-linecap: square"/>
   </g>
   <g id="line2d_33">
    <path d="M 641.626705 251.561766 
L 644.441995 250.122181 
L 647.257286 248.982534 
L 650.072576 248.119651 
L 652.887866 247.508697 
L 655.703157 247.123565 
L 658.518447 246.937247 
L 661.333738 246.922159 
L 665.556674 247.159646 
L 669.779609 247.625986 
L 676.817836 248.663495 
L 683.856062 249.680055 
L 688.078997 250.127247 
L 692.301933 250.365861 
L 696.524869 250.33345 
L 699.340159 250.133875 
L 702.15545 249.775001 
L 704.97074 249.244081 
L 707.786031 248.529943 
L 710.601321 247.622984 
L 713.416612 246.515152 
L 716.231902 245.199926 
L 719.047193 243.672286 
L 721.862483 241.928673 
L 724.677774 239.96695 
L 727.493064 237.786349 
L 730.308355 235.387422 
L 733.123645 232.771978 
L 735.938936 229.943029 
L 740.161871 225.308649 
L 744.384807 220.2219 
L 748.607743 214.706115 
L 752.830678 208.788991 
L 757.053614 202.502053 
L 761.27655 195.880112 
L 766.907131 186.595009 
L 772.537712 176.876403 
L 779.575938 164.27115 
L 790.8371 143.522471 
L 803.505907 120.229914 
L 810.544133 107.708771 
L 816.174714 98.062193 
L 821.805295 88.835496 
L 827.435876 80.10526 
L 831.658812 73.925397 
L 835.881748 68.090468 
L 840.104683 62.62455 
L 844.327619 57.549283 
L 848.550555 52.883871 
L 852.77349 48.645116 
L 856.996426 44.847452 
L 859.811717 42.566811 
L 862.627007 40.490689 
L 865.442298 38.621696 
L 868.257588 36.962023 
L 871.072879 35.513451 
L 873.888169 34.27737 
L 876.70346 33.254784 
L 879.51875 32.44633 
L 882.33404 31.852286 
L 885.149331 31.472587 
L 887.964621 31.306835 
L 890.779912 31.354313 
L 893.595202 31.613993 
L 896.410493 32.084551 
L 899.225783 32.764375 
L 902.041074 33.651572 
L 904.856364 34.743979 
L 907.671655 36.039169 
L 910.486945 37.534457 
L 913.302236 39.226905 
L 916.117526 41.113323 
L 918.932817 43.190276 
L 923.155752 46.654834 
L 927.378688 50.526276 
L 931.601624 54.789854 
L 935.82456 59.429522 
L 940.047495 64.427886 
L 944.270431 69.766145 
L 948.493367 75.424021 
L 954.123948 83.427067 
L 959.754529 91.90297 
L 965.38511 100.789795 
L 972.423336 112.372145 
L 980.869207 126.770336 
L 1004.799176 167.983113 
L 1010.429757 177.169394 
L 1016.060338 185.928787 
L 1020.283274 192.148234 
L 1024.50621 198.013372 
L 1028.729145 203.47657 
L 1032.952081 208.492266 
L 1035.767372 211.566353 
L 1038.582662 214.411105 
L 1041.397953 217.016081 
L 1044.213243 219.372121 
L 1047.028533 221.471581 
L 1049.843824 223.308586 
L 1052.659114 224.879311 
L 1055.474405 226.182277 
L 1058.289695 227.218683 
L 1061.104986 227.992757 
L 1063.920276 228.512142 
L 1066.735567 228.788311 
L 1069.550857 228.837007 
L 1072.366148 228.678725 
L 1075.181438 228.339227 
L 1079.404374 227.56101 
L 1086.4426 225.900523 
L 1090.665536 224.988667 
L 1093.480826 224.560367 
L 1096.296117 224.374138 
L 1099.111407 224.526927 
L 1100.519053 224.764072 
L 1101.926698 225.127931 
L 1103.334343 225.634228 
L 1104.741988 226.299584 
L 1106.149634 227.141545 
L 1107.557279 228.17862 
L 1108.964924 229.430316 
L 1110.372569 230.917177 
L 1111.780214 232.660822 
L 1113.18786 234.683983 
L 1114.595505 237.010547 
L 1116.00315 239.665594 
L 1117.410795 242.675446 
L 1117.410795 242.675446 
" clip-path="url(#p0dc8f00017)" style="fill: none; stroke: #ff7f0e; stroke-width: 3; stroke-linecap: square"/>
   </g>
   <g id="line2d_34">
    <path d="M 641.626705 353.209418 
L 644.441995 354.713475 
L 647.257286 355.788725 
L 650.072576 356.511527 
L 652.887866 356.949302 
L 655.703157 357.161222 
L 659.926093 357.166526 
L 664.149028 356.923312 
L 672.5949 356.121363 
L 681.040771 355.36751 
L 688.078997 354.993332 
L 693.709578 354.898845 
L 700.747805 355.013331 
L 710.601321 355.457951 
L 723.270128 356.038922 
L 730.308355 356.112015 
L 735.938936 355.936633 
L 741.569517 355.495616 
L 745.792452 354.963938 
L 750.015388 354.243562 
L 754.238324 353.32342 
L 758.461259 352.196037 
L 762.684195 350.857549 
L 766.907131 349.307672 
L 771.130067 347.549605 
L 775.353002 345.589893 
L 780.983583 342.680477 
L 786.614164 339.461213 
L 792.244745 335.97138 
L 799.282971 331.299769 
L 807.728843 325.377557 
L 830.251167 309.371277 
L 837.289393 304.757696 
L 842.919974 301.337366 
L 848.550555 298.214547 
L 852.77349 296.096448 
L 856.996426 294.190502 
L 861.219362 292.512729 
L 865.442298 291.077067 
L 869.665233 289.895255 
L 873.888169 288.97675 
L 878.111105 288.328663 
L 882.33404 287.95572 
L 886.556976 287.860241 
L 890.779912 288.042147 
L 895.002848 288.498989 
L 899.225783 289.225995 
L 903.448719 290.216134 
L 907.671655 291.460213 
L 911.894591 292.946972 
L 916.117526 294.663214 
L 920.340462 296.593943 
L 924.563398 298.722513 
L 930.193979 301.836835 
L 935.82456 305.224006 
L 942.862786 309.76552 
L 951.308657 315.53047 
L 976.646272 333.121921 
L 983.684498 337.635858 
L 989.315079 341.012574 
L 994.94566 344.139146 
L 1000.576241 346.982737 
L 1006.206822 349.516518 
L 1010.429757 351.201076 
L 1014.652693 352.693807 
L 1018.875629 353.991003 
L 1023.098564 355.091326 
L 1027.3215 355.995857 
L 1031.544436 356.708136 
L 1035.767372 357.234182 
L 1039.990307 357.582494 
L 1045.620888 357.789757 
L 1051.251469 357.733589 
L 1056.88205 357.454275 
L 1063.920276 356.864458 
L 1075.181438 355.626879 
L 1085.034955 354.610579 
L 1090.665536 354.221016 
L 1096.296117 354.073481 
L 1100.519053 354.174386 
L 1104.741988 354.49951 
L 1108.964924 355.0889 
L 1113.18786 355.983938 
L 1116.00315 356.771477 
L 1117.410795 357.227352 
L 1117.410795 357.227352 
" clip-path="url(#p0dc8f00017)" style="fill: none; stroke: #2ca02c; stroke-width: 3; stroke-linecap: square"/>
   </g>
   <g id="patch_8">
    <path d="M 617.8375 461.8875 
L 617.8375 10.8 
" style="fill: none; stroke: #212121; stroke-width: 0.8; stroke-linejoin: miter; stroke-linecap: square"/>
   </g>
   <g id="patch_9">
    <path d="M 1141.2 461.8875 
L 1141.2 10.8 
" style="fill: none; stroke: #212121; stroke-width: 0.8; stroke-linejoin: miter; stroke-linecap: square"/>
   </g>
   <g id="patch_10">
    <path d="M 617.8375 461.8875 
L 1141.2 461.8875 
" style="fill: none; stroke: #212121; stroke-width: 0.8; stroke-linejoin: miter; stroke-linecap: square"/>
   </g>
   <g id="patch_11">
    <path d="M 617.8375 10.8 
L 1141.2 10.8 
" style="fill: none; stroke: #212121; stroke-width: 0.8; stroke-linejoin: miter; stroke-linecap: square"/>
   </g>
   <g id="legend_2">
    <g id="line2d_35">
     <path d="M 1057.267188 23.3 
L 1067.267188 23.3 
L 1077.267188 23.3 
" style="fill: none; stroke: #1f77b4; stroke-width: 3; stroke-linecap: square"/>
    </g>
    <g id="text_33">
     <!-- X (Approx) -->
     <g style="fill: #212121" transform="translate(1085.267188 26.8)scale(0.1 -0.1)">
      <defs>
       <path id="TimesNewRomanPSMT-41" d="M 2928 1419 
L 1288 1419 
L 1000 750 
Q 894 503 894 381 
Q 894 284 986 211 
Q 1078 138 1384 116 
L 1384 0 
L 50 0 
L 50 116 
Q 316 163 394 238 
Q 553 388 747 847 
L 2238 4334 
L 2347 4334 
L 3822 809 
Q 4000 384 4145 257 
Q 4291 131 4550 116 
L 4550 0 
L 2878 0 
L 2878 116 
Q 3131 128 3220 200 
Q 3309 272 3309 375 
Q 3309 513 3184 809 
L 2928 1419 
z
M 2841 1650 
L 2122 3363 
L 1384 1650 
L 2841 1650 
z
" transform="scale(0.015625)"/>
       <path id="TimesNewRomanPSMT-70" d="M -6 2578 
L 875 2934 
L 994 2934 
L 994 2266 
Q 1216 2644 1439 2795 
Q 1663 2947 1909 2947 
Q 2341 2947 2628 2609 
Q 2981 2197 2981 1534 
Q 2981 794 2556 309 
Q 2206 -88 1675 -88 
Q 1444 -88 1275 -22 
Q 1150 25 994 166 
L 994 -706 
Q 994 -1000 1030 -1079 
Q 1066 -1159 1155 -1206 
Q 1244 -1253 1478 -1253 
L 1478 -1369 
L -22 -1369 
L -22 -1253 
L 56 -1253 
Q 228 -1256 350 -1188 
Q 409 -1153 442 -1076 
Q 475 -1000 475 -688 
L 475 2019 
Q 475 2297 450 2372 
Q 425 2447 370 2484 
Q 316 2522 222 2522 
Q 147 2522 31 2478 
L -6 2578 
z
M 994 2081 
L 994 1013 
Q 994 666 1022 556 
Q 1066 375 1236 237 
Q 1406 100 1666 100 
Q 1978 100 2172 344 
Q 2425 663 2425 1241 
Q 2425 1897 2138 2250 
Q 1938 2494 1663 2494 
Q 1513 2494 1366 2419 
Q 1253 2363 994 2081 
z
" transform="scale(0.015625)"/>
       <path id="TimesNewRomanPSMT-78" d="M 84 2863 
L 1431 2863 
L 1431 2747 
Q 1303 2747 1251 2703 
Q 1200 2659 1200 2588 
Q 1200 2513 1309 2356 
Q 1344 2306 1413 2200 
L 1616 1875 
L 1850 2200 
Q 2075 2509 2075 2591 
Q 2075 2656 2022 2701 
Q 1969 2747 1850 2747 
L 1850 2863 
L 2819 2863 
L 2819 2747 
Q 2666 2738 2553 2663 
Q 2400 2556 2134 2200 
L 1744 1678 
L 2456 653 
Q 2719 275 2831 198 
Q 2944 122 3122 113 
L 3122 0 
L 1772 0 
L 1772 113 
Q 1913 113 1991 175 
Q 2050 219 2050 291 
Q 2050 363 1850 653 
L 1431 1266 
L 972 653 
Q 759 369 759 316 
Q 759 241 829 180 
Q 900 119 1041 113 
L 1041 0 
L 106 0 
L 106 113 
Q 219 128 303 191 
Q 422 281 703 653 
L 1303 1450 
L 759 2238 
Q 528 2575 401 2661 
Q 275 2747 84 2747 
L 84 2863 
z
" transform="scale(0.015625)"/>
      </defs>
      <use xlink:href="#TimesNewRomanPSMT-58"/>
      <use xlink:href="#TimesNewRomanPSMT-20" x="72.216797"/>
      <use xlink:href="#TimesNewRomanPSMT-28" x="97.216797"/>
      <use xlink:href="#TimesNewRomanPSMT-41" x="130.517578"/>
      <use xlink:href="#TimesNewRomanPSMT-70" x="202.734375"/>
      <use xlink:href="#TimesNewRomanPSMT-70" x="252.734375"/>
      <use xlink:href="#TimesNewRomanPSMT-72" x="302.734375"/>
      <use xlink:href="#TimesNewRomanPSMT-6f" x="336.035156"/>
      <use xlink:href="#TimesNewRomanPSMT-78" x="386.035156"/>
      <use xlink:href="#TimesNewRomanPSMT-29" x="436.035156"/>
     </g>
    </g>
    <g id="line2d_36">
     <path d="M 1057.267188 37.439063 
L 1067.267188 37.439063 
L 1077.267188 37.439063 
" style="fill: none; stroke: #ff7f0e; stroke-width: 3; stroke-linecap: square"/>
    </g>
    <g id="text_34">
     <!-- Y (Approx) -->
     <g style="fill: #212121" transform="translate(1085.267188 40.939063)scale(0.1 -0.1)">
      <use xlink:href="#TimesNewRomanPSMT-59"/>
      <use xlink:href="#TimesNewRomanPSMT-20" x="68.466797"/>
      <use xlink:href="#TimesNewRomanPSMT-28" x="93.466797"/>
      <use xlink:href="#TimesNewRomanPSMT-41" x="126.767578"/>
      <use xlink:href="#TimesNewRomanPSMT-70" x="198.984375"/>
      <use xlink:href="#TimesNewRomanPSMT-70" x="248.984375"/>
      <use xlink:href="#TimesNewRomanPSMT-72" x="298.984375"/>
      <use xlink:href="#TimesNewRomanPSMT-6f" x="332.285156"/>
      <use xlink:href="#TimesNewRomanPSMT-78" x="382.285156"/>
      <use xlink:href="#TimesNewRomanPSMT-29" x="432.285156"/>
     </g>
    </g>
    <g id="line2d_37">
     <path d="M 1057.267188 51.578125 
L 1067.267188 51.578125 
L 1077.267188 51.578125 
" style="fill: none; stroke: #2ca02c; stroke-width: 3; stroke-linecap: square"/>
    </g>
    <g id="text_35">
     <!-- Z (Approx) -->
     <g style="fill: #212121" transform="translate(1085.267188 55.078125)scale(0.1 -0.1)">
      <use xlink:href="#TimesNewRomanPSMT-5a"/>
      <use xlink:href="#TimesNewRomanPSMT-20" x="61.083984"/>
      <use xlink:href="#TimesNewRomanPSMT-28" x="86.083984"/>
      <use xlink:href="#TimesNewRomanPSMT-41" x="119.384766"/>
      <use xlink:href="#TimesNewRomanPSMT-70" x="191.601562"/>
      <use xlink:href="#TimesNewRomanPSMT-70" x="241.601562"/>
      <use xlink:href="#TimesNewRomanPSMT-72" x="291.601562"/>
      <use xlink:href="#TimesNewRomanPSMT-6f" x="324.902344"/>
      <use xlink:href="#TimesNewRomanPSMT-78" x="374.902344"/>
      <use xlink:href="#TimesNewRomanPSMT-29" x="424.902344"/>
     </g>
    </g>
   </g>
  </g>
 </g>
 <defs>
  <clipPath id="pb83d511c6e">
   <rect x="47.2375" y="10.8" width="523.3625" height="451.0875"/>
  </clipPath>
  <clipPath id="p0dc8f00017">
   <rect x="617.8375" y="10.8" width="523.3625" height="451.0875"/>
  </clipPath>
 </defs>
</svg>
