<?xml version="1.0" encoding="utf-8" standalone="no"?>
<!DOCTYPE svg PUBLIC "-//W3C//DTD SVG 1.1//EN"
  "http://www.w3.org/Graphics/SVG/1.1/DTD/svg11.dtd">
<svg xmlns:xlink="http://www.w3.org/1999/xlink" width="1152pt" height="504pt" viewBox="0 0 1152 504" xmlns="http://www.w3.org/2000/svg" version="1.1">
 <metadata>
  <rdf:RDF xmlns:dc="http://purl.org/dc/elements/1.1/" xmlns:cc="http://creativecommons.org/ns#" xmlns:rdf="http://www.w3.org/1999/02/22-rdf-syntax-ns#">
   <cc:Work>
    <dc:type rdf:resource="http://purl.org/dc/dcmitype/StillImage"/>
    <dc:date>2022-06-22T02:02:20.790374</dc:date>
    <dc:format>image/svg+xml</dc:format>
    <dc:creator>
     <cc:Agent>
      <dc:title>Matplotlib v3.5.2, https://matplotlib.org/</dc:title>
     </cc:Agent>
    </dc:creator>
   </cc:Work>
  </rdf:RDF>
 </metadata>
 <defs>
  <style type="text/css">*{stroke-linejoin: round; stroke-linecap: butt}</style>
 </defs>
 <g id="figure_1">
  <g id="patch_1">
   <path d="M 0 504 
L 1152 504 
L 1152 0 
L 0 0 
L 0 504 
z
" style="fill: none"/>
  </g>
  <g id="axes_1">
   <g id="patch_2">
    <path d="M 47.7375 461.8875 
L 570.6 461.8875 
L 570.6 11.690736 
L 47.7375 11.690736 
z
" style="fill: #ffffff"/>
   </g>
   <g id="matplotlib.axis_1">
    <g id="xtick_1">
     <g id="line2d_1">
      <defs>
       <path id="m4b818a1cf4" d="M 0 0 
L 0 3.5 
" style="stroke: #212121; stroke-width: 0.8"/>
      </defs>
      <g>
       <use xlink:href="#m4b818a1cf4" x="71.503977" y="461.8875" style="fill: #212121; stroke: #212121; stroke-width: 0.8"/>
      </g>
     </g>
     <g id="text_1">
      <!-- 0.0 -->
      <g style="fill: #212121" transform="translate(65.253977 475.83125)scale(0.1 -0.1)">
       <defs>
        <path id="TimesNewRomanPSMT-30" d="M 231 2094 
Q 231 2819 450 3342 
Q 669 3866 1031 4122 
Q 1313 4325 1613 4325 
Q 2100 4325 2488 3828 
Q 2972 3213 2972 2159 
Q 2972 1422 2759 906 
Q 2547 391 2217 158 
Q 1888 -75 1581 -75 
Q 975 -75 572 641 
Q 231 1244 231 2094 
z
M 844 2016 
Q 844 1141 1059 588 
Q 1238 122 1591 122 
Q 1759 122 1940 273 
Q 2122 425 2216 781 
Q 2359 1319 2359 2297 
Q 2359 3022 2209 3506 
Q 2097 3866 1919 4016 
Q 1791 4119 1609 4119 
Q 1397 4119 1231 3928 
Q 1006 3669 925 3112 
Q 844 2556 844 2016 
z
" transform="scale(0.015625)"/>
        <path id="TimesNewRomanPSMT-2e" d="M 800 606 
Q 947 606 1047 504 
Q 1147 403 1147 259 
Q 1147 116 1045 14 
Q 944 -88 800 -88 
Q 656 -88 554 14 
Q 453 116 453 259 
Q 453 406 554 506 
Q 656 606 800 606 
z
" transform="scale(0.015625)"/>
       </defs>
       <use xlink:href="#TimesNewRomanPSMT-30"/>
       <use xlink:href="#TimesNewRomanPSMT-2e" x="50"/>
       <use xlink:href="#TimesNewRomanPSMT-30" x="75"/>
      </g>
     </g>
    </g>
    <g id="xtick_2">
     <g id="line2d_2">
      <g>
       <use xlink:href="#m4b818a1cf4" x="150.725568" y="461.8875" style="fill: #212121; stroke: #212121; stroke-width: 0.8"/>
      </g>
     </g>
     <g id="text_2">
      <!-- 0.5 -->
      <g style="fill: #212121" transform="translate(144.475568 475.83125)scale(0.1 -0.1)">
       <defs>
        <path id="TimesNewRomanPSMT-35" d="M 2778 4238 
L 2534 3706 
L 1259 3706 
L 981 3138 
Q 1809 3016 2294 2522 
Q 2709 2097 2709 1522 
Q 2709 1188 2573 903 
Q 2438 619 2231 419 
Q 2025 219 1772 97 
Q 1413 -75 1034 -75 
Q 653 -75 479 54 
Q 306 184 306 341 
Q 306 428 378 495 
Q 450 563 559 563 
Q 641 563 702 538 
Q 763 513 909 409 
Q 1144 247 1384 247 
Q 1750 247 2026 523 
Q 2303 800 2303 1197 
Q 2303 1581 2056 1914 
Q 1809 2247 1375 2428 
Q 1034 2569 447 2591 
L 1259 4238 
L 2778 4238 
z
" transform="scale(0.015625)"/>
       </defs>
       <use xlink:href="#TimesNewRomanPSMT-30"/>
       <use xlink:href="#TimesNewRomanPSMT-2e" x="50"/>
       <use xlink:href="#TimesNewRomanPSMT-35" x="75"/>
      </g>
     </g>
    </g>
    <g id="xtick_3">
     <g id="line2d_3">
      <g>
       <use xlink:href="#m4b818a1cf4" x="229.947159" y="461.8875" style="fill: #212121; stroke: #212121; stroke-width: 0.8"/>
      </g>
     </g>
     <g id="text_3">
      <!-- 1.0 -->
      <g style="fill: #212121" transform="translate(223.697159 475.83125)scale(0.1 -0.1)">
       <defs>
        <path id="TimesNewRomanPSMT-31" d="M 750 3822 
L 1781 4325 
L 1884 4325 
L 1884 747 
Q 1884 391 1914 303 
Q 1944 216 2037 169 
Q 2131 122 2419 116 
L 2419 0 
L 825 0 
L 825 116 
Q 1125 122 1212 167 
Q 1300 213 1334 289 
Q 1369 366 1369 747 
L 1369 3034 
Q 1369 3497 1338 3628 
Q 1316 3728 1258 3775 
Q 1200 3822 1119 3822 
Q 1003 3822 797 3725 
L 750 3822 
z
" transform="scale(0.015625)"/>
       </defs>
       <use xlink:href="#TimesNewRomanPSMT-31"/>
       <use xlink:href="#TimesNewRomanPSMT-2e" x="50"/>
       <use xlink:href="#TimesNewRomanPSMT-30" x="75"/>
      </g>
     </g>
    </g>
    <g id="xtick_4">
     <g id="line2d_4">
      <g>
       <use xlink:href="#m4b818a1cf4" x="309.16875" y="461.8875" style="fill: #212121; stroke: #212121; stroke-width: 0.8"/>
      </g>
     </g>
     <g id="text_4">
      <!-- 1.5 -->
      <g style="fill: #212121" transform="translate(302.91875 475.83125)scale(0.1 -0.1)">
       <use xlink:href="#TimesNewRomanPSMT-31"/>
       <use xlink:href="#TimesNewRomanPSMT-2e" x="50"/>
       <use xlink:href="#TimesNewRomanPSMT-35" x="75"/>
      </g>
     </g>
    </g>
    <g id="xtick_5">
     <g id="line2d_5">
      <g>
       <use xlink:href="#m4b818a1cf4" x="388.390341" y="461.8875" style="fill: #212121; stroke: #212121; stroke-width: 0.8"/>
      </g>
     </g>
     <g id="text_5">
      <!-- 2.0 -->
      <g style="fill: #212121" transform="translate(382.140341 475.83125)scale(0.1 -0.1)">
       <defs>
        <path id="TimesNewRomanPSMT-32" d="M 2934 816 
L 2638 0 
L 138 0 
L 138 116 
Q 1241 1122 1691 1759 
Q 2141 2397 2141 2925 
Q 2141 3328 1894 3587 
Q 1647 3847 1303 3847 
Q 991 3847 742 3664 
Q 494 3481 375 3128 
L 259 3128 
Q 338 3706 661 4015 
Q 984 4325 1469 4325 
Q 1984 4325 2329 3994 
Q 2675 3663 2675 3213 
Q 2675 2891 2525 2569 
Q 2294 2063 1775 1497 
Q 997 647 803 472 
L 1909 472 
Q 2247 472 2383 497 
Q 2519 522 2628 598 
Q 2738 675 2819 816 
L 2934 816 
z
" transform="scale(0.015625)"/>
       </defs>
       <use xlink:href="#TimesNewRomanPSMT-32"/>
       <use xlink:href="#TimesNewRomanPSMT-2e" x="50"/>
       <use xlink:href="#TimesNewRomanPSMT-30" x="75"/>
      </g>
     </g>
    </g>
    <g id="xtick_6">
     <g id="line2d_6">
      <g>
       <use xlink:href="#m4b818a1cf4" x="467.611932" y="461.8875" style="fill: #212121; stroke: #212121; stroke-width: 0.8"/>
      </g>
     </g>
     <g id="text_6">
      <!-- 2.5 -->
      <g style="fill: #212121" transform="translate(461.361932 475.83125)scale(0.1 -0.1)">
       <use xlink:href="#TimesNewRomanPSMT-32"/>
       <use xlink:href="#TimesNewRomanPSMT-2e" x="50"/>
       <use xlink:href="#TimesNewRomanPSMT-35" x="75"/>
      </g>
     </g>
    </g>
    <g id="xtick_7">
     <g id="line2d_7">
      <g>
       <use xlink:href="#m4b818a1cf4" x="546.833523" y="461.8875" style="fill: #212121; stroke: #212121; stroke-width: 0.8"/>
      </g>
     </g>
     <g id="text_7">
      <!-- 3.0 -->
      <g style="fill: #212121" transform="translate(540.583523 475.83125)scale(0.1 -0.1)">
       <defs>
        <path id="TimesNewRomanPSMT-33" d="M 325 3431 
Q 506 3859 782 4092 
Q 1059 4325 1472 4325 
Q 1981 4325 2253 3994 
Q 2459 3747 2459 3466 
Q 2459 3003 1878 2509 
Q 2269 2356 2469 2072 
Q 2669 1788 2669 1403 
Q 2669 853 2319 450 
Q 1863 -75 997 -75 
Q 569 -75 414 31 
Q 259 138 259 259 
Q 259 350 332 419 
Q 406 488 509 488 
Q 588 488 669 463 
Q 722 447 909 348 
Q 1097 250 1169 231 
Q 1284 197 1416 197 
Q 1734 197 1970 444 
Q 2206 691 2206 1028 
Q 2206 1275 2097 1509 
Q 2016 1684 1919 1775 
Q 1784 1900 1550 2001 
Q 1316 2103 1072 2103 
L 972 2103 
L 972 2197 
Q 1219 2228 1467 2375 
Q 1716 2522 1828 2728 
Q 1941 2934 1941 3181 
Q 1941 3503 1739 3701 
Q 1538 3900 1238 3900 
Q 753 3900 428 3381 
L 325 3431 
z
" transform="scale(0.015625)"/>
       </defs>
       <use xlink:href="#TimesNewRomanPSMT-33"/>
       <use xlink:href="#TimesNewRomanPSMT-2e" x="50"/>
       <use xlink:href="#TimesNewRomanPSMT-30" x="75"/>
      </g>
     </g>
    </g>
    <g id="text_8">
     <!-- Time (s) -->
     <g style="fill: #212121" transform="translate(292.266406 488.914062)scale(0.1 -0.1)">
      <defs>
       <path id="TimesNewRomanPSMT-54" d="M 3703 4238 
L 3750 3244 
L 3631 3244 
Q 3597 3506 3538 3619 
Q 3441 3800 3280 3886 
Q 3119 3972 2856 3972 
L 2259 3972 
L 2259 734 
Q 2259 344 2344 247 
Q 2463 116 2709 116 
L 2856 116 
L 2856 0 
L 1059 0 
L 1059 116 
L 1209 116 
Q 1478 116 1591 278 
Q 1659 378 1659 734 
L 1659 3972 
L 1150 3972 
Q 853 3972 728 3928 
Q 566 3869 450 3700 
Q 334 3531 313 3244 
L 194 3244 
L 244 4238 
L 3703 4238 
z
" transform="scale(0.015625)"/>
       <path id="TimesNewRomanPSMT-69" d="M 928 4444 
Q 1059 4444 1151 4351 
Q 1244 4259 1244 4128 
Q 1244 3997 1151 3903 
Q 1059 3809 928 3809 
Q 797 3809 703 3903 
Q 609 3997 609 4128 
Q 609 4259 701 4351 
Q 794 4444 928 4444 
z
M 1188 2947 
L 1188 647 
Q 1188 378 1227 289 
Q 1266 200 1342 156 
Q 1419 113 1622 113 
L 1622 0 
L 231 0 
L 231 113 
Q 441 113 512 153 
Q 584 194 626 287 
Q 669 381 669 647 
L 669 1750 
Q 669 2216 641 2353 
Q 619 2453 572 2492 
Q 525 2531 444 2531 
Q 356 2531 231 2484 
L 188 2597 
L 1050 2947 
L 1188 2947 
z
" transform="scale(0.015625)"/>
       <path id="TimesNewRomanPSMT-6d" d="M 1050 2338 
Q 1363 2650 1419 2697 
Q 1559 2816 1721 2881 
Q 1884 2947 2044 2947 
Q 2313 2947 2506 2790 
Q 2700 2634 2766 2338 
Q 3088 2713 3309 2830 
Q 3531 2947 3766 2947 
Q 3994 2947 4170 2830 
Q 4347 2713 4450 2447 
Q 4519 2266 4519 1878 
L 4519 647 
Q 4519 378 4559 278 
Q 4591 209 4675 161 
Q 4759 113 4950 113 
L 4950 0 
L 3538 0 
L 3538 113 
L 3597 113 
Q 3781 113 3884 184 
Q 3956 234 3988 344 
Q 4000 397 4000 647 
L 4000 1878 
Q 4000 2228 3916 2372 
Q 3794 2572 3525 2572 
Q 3359 2572 3192 2489 
Q 3025 2406 2788 2181 
L 2781 2147 
L 2788 2013 
L 2788 647 
Q 2788 353 2820 281 
Q 2853 209 2943 161 
Q 3034 113 3253 113 
L 3253 0 
L 1806 0 
L 1806 113 
Q 2044 113 2133 169 
Q 2222 225 2256 338 
Q 2272 391 2272 647 
L 2272 1878 
Q 2272 2228 2169 2381 
Q 2031 2581 1784 2581 
Q 1616 2581 1450 2491 
Q 1191 2353 1050 2181 
L 1050 647 
Q 1050 366 1089 281 
Q 1128 197 1204 155 
Q 1281 113 1516 113 
L 1516 0 
L 100 0 
L 100 113 
Q 297 113 375 155 
Q 453 197 493 289 
Q 534 381 534 647 
L 534 1741 
Q 534 2213 506 2350 
Q 484 2453 437 2492 
Q 391 2531 309 2531 
Q 222 2531 100 2484 
L 53 2597 
L 916 2947 
L 1050 2947 
L 1050 2338 
z
" transform="scale(0.015625)"/>
       <path id="TimesNewRomanPSMT-65" d="M 681 1784 
Q 678 1147 991 784 
Q 1303 422 1725 422 
Q 2006 422 2214 576 
Q 2422 731 2563 1106 
L 2659 1044 
Q 2594 616 2278 264 
Q 1963 -88 1488 -88 
Q 972 -88 605 314 
Q 238 716 238 1394 
Q 238 2128 614 2539 
Q 991 2950 1559 2950 
Q 2041 2950 2350 2633 
Q 2659 2316 2659 1784 
L 681 1784 
z
M 681 1966 
L 2006 1966 
Q 1991 2241 1941 2353 
Q 1863 2528 1708 2628 
Q 1553 2728 1384 2728 
Q 1125 2728 920 2526 
Q 716 2325 681 1966 
z
" transform="scale(0.015625)"/>
       <path id="TimesNewRomanPSMT-20" transform="scale(0.015625)"/>
       <path id="TimesNewRomanPSMT-28" d="M 1988 -1253 
L 1988 -1369 
Q 1516 -1131 1200 -813 
Q 750 -359 506 256 
Q 263 872 263 1534 
Q 263 2503 741 3301 
Q 1219 4100 1988 4444 
L 1988 4313 
Q 1603 4100 1356 3731 
Q 1109 3363 987 2797 
Q 866 2231 866 1616 
Q 866 947 969 400 
Q 1050 -31 1165 -292 
Q 1281 -553 1476 -793 
Q 1672 -1034 1988 -1253 
z
" transform="scale(0.015625)"/>
       <path id="TimesNewRomanPSMT-73" d="M 2050 2947 
L 2050 1972 
L 1947 1972 
Q 1828 2431 1642 2597 
Q 1456 2763 1169 2763 
Q 950 2763 815 2647 
Q 681 2531 681 2391 
Q 681 2216 781 2091 
Q 878 1963 1175 1819 
L 1631 1597 
Q 2266 1288 2266 781 
Q 2266 391 1970 151 
Q 1675 -88 1309 -88 
Q 1047 -88 709 6 
Q 606 38 541 38 
Q 469 38 428 -44 
L 325 -44 
L 325 978 
L 428 978 
Q 516 541 762 319 
Q 1009 97 1316 97 
Q 1531 97 1667 223 
Q 1803 350 1803 528 
Q 1803 744 1651 891 
Q 1500 1038 1047 1263 
Q 594 1488 453 1669 
Q 313 1847 313 2119 
Q 313 2472 555 2709 
Q 797 2947 1181 2947 
Q 1350 2947 1591 2875 
Q 1750 2828 1803 2828 
Q 1853 2828 1881 2850 
Q 1909 2872 1947 2947 
L 2050 2947 
z
" transform="scale(0.015625)"/>
       <path id="TimesNewRomanPSMT-29" d="M 144 4313 
L 144 4444 
Q 619 4209 934 3891 
Q 1381 3434 1625 2820 
Q 1869 2206 1869 1541 
Q 1869 572 1392 -226 
Q 916 -1025 144 -1369 
L 144 -1253 
Q 528 -1038 776 -670 
Q 1025 -303 1145 264 
Q 1266 831 1266 1447 
Q 1266 2113 1163 2663 
Q 1084 3094 967 3353 
Q 850 3613 656 3853 
Q 463 4094 144 4313 
z
" transform="scale(0.015625)"/>
      </defs>
      <use xlink:href="#TimesNewRomanPSMT-54"/>
      <use xlink:href="#TimesNewRomanPSMT-69" x="57.583984"/>
      <use xlink:href="#TimesNewRomanPSMT-6d" x="85.367188"/>
      <use xlink:href="#TimesNewRomanPSMT-65" x="163.150391"/>
      <use xlink:href="#TimesNewRomanPSMT-20" x="207.535156"/>
      <use xlink:href="#TimesNewRomanPSMT-28" x="232.535156"/>
      <use xlink:href="#TimesNewRomanPSMT-73" x="265.835938"/>
      <use xlink:href="#TimesNewRomanPSMT-29" x="304.751953"/>
     </g>
    </g>
   </g>
   <g id="matplotlib.axis_2">
    <g id="ytick_1">
     <g id="line2d_8">
      <defs>
       <path id="m54071aee31" d="M 0 0 
L -3.5 0 
" style="stroke: #212121; stroke-width: 0.8"/>
      </defs>
      <g>
       <use xlink:href="#m54071aee31" x="47.7375" y="441.057635" style="fill: #212121; stroke: #212121; stroke-width: 0.8"/>
      </g>
     </g>
     <g id="text_9">
      <!-- −50 -->
      <g style="fill: #212121" transform="translate(25.098438 444.52951)scale(0.1 -0.1)">
       <defs>
        <path id="TimesNewRomanPSMT-2212" d="M 3484 2000 
L 116 2000 
L 116 2256 
L 3484 2256 
L 3484 2000 
z
" transform="scale(0.015625)"/>
       </defs>
       <use xlink:href="#TimesNewRomanPSMT-2212"/>
       <use xlink:href="#TimesNewRomanPSMT-35" x="56.396484"/>
       <use xlink:href="#TimesNewRomanPSMT-30" x="106.396484"/>
      </g>
     </g>
    </g>
    <g id="ytick_2">
     <g id="line2d_9">
      <g>
       <use xlink:href="#m54071aee31" x="47.7375" y="370.109585" style="fill: #212121; stroke: #212121; stroke-width: 0.8"/>
      </g>
     </g>
     <g id="text_10">
      <!-- 0 -->
      <g style="fill: #212121" transform="translate(35.7375 373.58146)scale(0.1 -0.1)">
       <use xlink:href="#TimesNewRomanPSMT-30"/>
      </g>
     </g>
    </g>
    <g id="ytick_3">
     <g id="line2d_10">
      <g>
       <use xlink:href="#m54071aee31" x="47.7375" y="299.161535" style="fill: #212121; stroke: #212121; stroke-width: 0.8"/>
      </g>
     </g>
     <g id="text_11">
      <!-- 50 -->
      <g style="fill: #212121" transform="translate(30.7375 302.63341)scale(0.1 -0.1)">
       <use xlink:href="#TimesNewRomanPSMT-35"/>
       <use xlink:href="#TimesNewRomanPSMT-30" x="50"/>
      </g>
     </g>
    </g>
    <g id="ytick_4">
     <g id="line2d_11">
      <g>
       <use xlink:href="#m54071aee31" x="47.7375" y="228.213485" style="fill: #212121; stroke: #212121; stroke-width: 0.8"/>
      </g>
     </g>
     <g id="text_12">
      <!-- 100 -->
      <g style="fill: #212121" transform="translate(25.7375 231.68536)scale(0.1 -0.1)">
       <use xlink:href="#TimesNewRomanPSMT-31"/>
       <use xlink:href="#TimesNewRomanPSMT-30" x="50"/>
       <use xlink:href="#TimesNewRomanPSMT-30" x="100"/>
      </g>
     </g>
    </g>
    <g id="ytick_5">
     <g id="line2d_12">
      <g>
       <use xlink:href="#m54071aee31" x="47.7375" y="157.265435" style="fill: #212121; stroke: #212121; stroke-width: 0.8"/>
      </g>
     </g>
     <g id="text_13">
      <!-- 150 -->
      <g style="fill: #212121" transform="translate(25.7375 160.73731)scale(0.1 -0.1)">
       <use xlink:href="#TimesNewRomanPSMT-31"/>
       <use xlink:href="#TimesNewRomanPSMT-35" x="50"/>
       <use xlink:href="#TimesNewRomanPSMT-30" x="100"/>
      </g>
     </g>
    </g>
    <g id="ytick_6">
     <g id="line2d_13">
      <g>
       <use xlink:href="#m54071aee31" x="47.7375" y="86.317385" style="fill: #212121; stroke: #212121; stroke-width: 0.8"/>
      </g>
     </g>
     <g id="text_14">
      <!-- 200 -->
      <g style="fill: #212121" transform="translate(25.7375 89.78926)scale(0.1 -0.1)">
       <use xlink:href="#TimesNewRomanPSMT-32"/>
       <use xlink:href="#TimesNewRomanPSMT-30" x="50"/>
       <use xlink:href="#TimesNewRomanPSMT-30" x="100"/>
      </g>
     </g>
    </g>
    <g id="ytick_7">
     <g id="line2d_14">
      <g>
       <use xlink:href="#m54071aee31" x="47.7375" y="15.369335" style="fill: #212121; stroke: #212121; stroke-width: 0.8"/>
      </g>
     </g>
     <g id="text_15">
      <!-- 250 -->
      <g style="fill: #212121" transform="translate(25.7375 18.84121)scale(0.1 -0.1)">
       <use xlink:href="#TimesNewRomanPSMT-32"/>
       <use xlink:href="#TimesNewRomanPSMT-35" x="50"/>
       <use xlink:href="#TimesNewRomanPSMT-30" x="100"/>
      </g>
     </g>
    </g>
    <g id="text_16">
     <!-- Landmark Coordinate (mm) -->
     <g style="fill: #212121" transform="translate(18.959375 293.160993)rotate(-90)scale(0.1 -0.1)">
      <defs>
       <path id="TimesNewRomanPSMT-4c" d="M 3669 1172 
L 3772 1150 
L 3409 0 
L 128 0 
L 128 116 
L 288 116 
Q 556 116 672 291 
Q 738 391 738 753 
L 738 3488 
Q 738 3884 650 3984 
Q 528 4122 288 4122 
L 128 4122 
L 128 4238 
L 2047 4238 
L 2047 4122 
Q 1709 4125 1573 4059 
Q 1438 3994 1388 3894 
Q 1338 3794 1338 3416 
L 1338 753 
Q 1338 494 1388 397 
Q 1425 331 1503 300 
Q 1581 269 1991 269 
L 2300 269 
Q 2788 269 2984 341 
Q 3181 413 3343 595 
Q 3506 778 3669 1172 
z
" transform="scale(0.015625)"/>
       <path id="TimesNewRomanPSMT-61" d="M 1822 413 
Q 1381 72 1269 19 
Q 1100 -59 909 -59 
Q 613 -59 420 144 
Q 228 347 228 678 
Q 228 888 322 1041 
Q 450 1253 767 1440 
Q 1084 1628 1822 1897 
L 1822 2009 
Q 1822 2438 1686 2597 
Q 1550 2756 1291 2756 
Q 1094 2756 978 2650 
Q 859 2544 859 2406 
L 866 2225 
Q 866 2081 792 2003 
Q 719 1925 600 1925 
Q 484 1925 411 2006 
Q 338 2088 338 2228 
Q 338 2497 613 2722 
Q 888 2947 1384 2947 
Q 1766 2947 2009 2819 
Q 2194 2722 2281 2516 
Q 2338 2381 2338 1966 
L 2338 994 
Q 2338 584 2353 492 
Q 2369 400 2405 369 
Q 2441 338 2488 338 
Q 2538 338 2575 359 
Q 2641 400 2828 588 
L 2828 413 
Q 2478 -56 2159 -56 
Q 2006 -56 1915 50 
Q 1825 156 1822 413 
z
M 1822 616 
L 1822 1706 
Q 1350 1519 1213 1441 
Q 966 1303 859 1153 
Q 753 1003 753 825 
Q 753 600 887 451 
Q 1022 303 1197 303 
Q 1434 303 1822 616 
z
" transform="scale(0.015625)"/>
       <path id="TimesNewRomanPSMT-6e" d="M 1034 2341 
Q 1538 2947 1994 2947 
Q 2228 2947 2397 2830 
Q 2566 2713 2666 2444 
Q 2734 2256 2734 1869 
L 2734 647 
Q 2734 375 2778 278 
Q 2813 200 2889 156 
Q 2966 113 3172 113 
L 3172 0 
L 1756 0 
L 1756 113 
L 1816 113 
Q 2016 113 2095 173 
Q 2175 234 2206 353 
Q 2219 400 2219 647 
L 2219 1819 
Q 2219 2209 2117 2386 
Q 2016 2563 1775 2563 
Q 1403 2563 1034 2156 
L 1034 647 
Q 1034 356 1069 288 
Q 1113 197 1189 155 
Q 1266 113 1500 113 
L 1500 0 
L 84 0 
L 84 113 
L 147 113 
Q 366 113 442 223 
Q 519 334 519 647 
L 519 1709 
Q 519 2225 495 2337 
Q 472 2450 423 2490 
Q 375 2531 294 2531 
Q 206 2531 84 2484 
L 38 2597 
L 900 2947 
L 1034 2947 
L 1034 2341 
z
" transform="scale(0.015625)"/>
       <path id="TimesNewRomanPSMT-64" d="M 2222 322 
Q 2013 103 1813 7 
Q 1613 -88 1381 -88 
Q 913 -88 563 304 
Q 213 697 213 1313 
Q 213 1928 600 2439 
Q 988 2950 1597 2950 
Q 1975 2950 2222 2709 
L 2222 3238 
Q 2222 3728 2198 3840 
Q 2175 3953 2125 3993 
Q 2075 4034 2000 4034 
Q 1919 4034 1784 3984 
L 1744 4094 
L 2597 4444 
L 2738 4444 
L 2738 1134 
Q 2738 631 2761 520 
Q 2784 409 2836 365 
Q 2888 322 2956 322 
Q 3041 322 3181 375 
L 3216 266 
L 2366 -88 
L 2222 -88 
L 2222 322 
z
M 2222 541 
L 2222 2016 
Q 2203 2228 2109 2403 
Q 2016 2578 1861 2667 
Q 1706 2756 1559 2756 
Q 1284 2756 1069 2509 
Q 784 2184 784 1559 
Q 784 928 1059 592 
Q 1334 256 1672 256 
Q 1956 256 2222 541 
z
" transform="scale(0.015625)"/>
       <path id="TimesNewRomanPSMT-72" d="M 1038 2947 
L 1038 2303 
Q 1397 2947 1775 2947 
Q 1947 2947 2059 2842 
Q 2172 2738 2172 2600 
Q 2172 2478 2090 2393 
Q 2009 2309 1897 2309 
Q 1788 2309 1652 2417 
Q 1516 2525 1450 2525 
Q 1394 2525 1328 2463 
Q 1188 2334 1038 2041 
L 1038 669 
Q 1038 431 1097 309 
Q 1138 225 1241 169 
Q 1344 113 1538 113 
L 1538 0 
L 72 0 
L 72 113 
Q 291 113 397 181 
Q 475 231 506 341 
Q 522 394 522 644 
L 522 1753 
Q 522 2253 501 2348 
Q 481 2444 426 2487 
Q 372 2531 291 2531 
Q 194 2531 72 2484 
L 41 2597 
L 906 2947 
L 1038 2947 
z
" transform="scale(0.015625)"/>
       <path id="TimesNewRomanPSMT-6b" d="M 1047 4444 
L 1047 1597 
L 1775 2259 
Q 2006 2472 2044 2528 
Q 2069 2566 2069 2603 
Q 2069 2666 2017 2711 
Q 1966 2756 1847 2763 
L 1847 2863 
L 3091 2863 
L 3091 2763 
Q 2834 2756 2664 2684 
Q 2494 2613 2291 2428 
L 1556 1750 
L 2291 822 
Q 2597 438 2703 334 
Q 2853 188 2966 144 
Q 3044 113 3238 113 
L 3238 0 
L 1847 0 
L 1847 113 
Q 1966 116 2008 148 
Q 2050 181 2050 241 
Q 2050 313 1925 472 
L 1047 1594 
L 1047 644 
Q 1047 366 1086 278 
Q 1125 191 1197 153 
Q 1269 116 1509 113 
L 1509 0 
L 53 0 
L 53 113 
Q 272 113 381 166 
Q 447 200 481 272 
Q 528 375 528 628 
L 528 3234 
Q 528 3731 506 3842 
Q 484 3953 434 3995 
Q 384 4038 303 4038 
Q 238 4038 106 3984 
L 53 4094 
L 903 4444 
L 1047 4444 
z
" transform="scale(0.015625)"/>
       <path id="TimesNewRomanPSMT-43" d="M 3853 4334 
L 3950 2894 
L 3853 2894 
Q 3659 3541 3300 3825 
Q 2941 4109 2438 4109 
Q 2016 4109 1675 3895 
Q 1334 3681 1139 3212 
Q 944 2744 944 2047 
Q 944 1472 1128 1050 
Q 1313 628 1683 403 
Q 2053 178 2528 178 
Q 2941 178 3256 354 
Q 3572 531 3950 1056 
L 4047 994 
Q 3728 428 3303 165 
Q 2878 -97 2294 -97 
Q 1241 -97 663 684 
Q 231 1266 231 2053 
Q 231 2688 515 3219 
Q 800 3750 1298 4042 
Q 1797 4334 2388 4334 
Q 2847 4334 3294 4109 
Q 3425 4041 3481 4041 
Q 3566 4041 3628 4100 
Q 3709 4184 3744 4334 
L 3853 4334 
z
" transform="scale(0.015625)"/>
       <path id="TimesNewRomanPSMT-6f" d="M 1600 2947 
Q 2250 2947 2644 2453 
Q 2978 2031 2978 1484 
Q 2978 1100 2793 706 
Q 2609 313 2286 112 
Q 1963 -88 1566 -88 
Q 919 -88 538 428 
Q 216 863 216 1403 
Q 216 1797 411 2186 
Q 606 2575 925 2761 
Q 1244 2947 1600 2947 
z
M 1503 2744 
Q 1338 2744 1170 2645 
Q 1003 2547 900 2300 
Q 797 2053 797 1666 
Q 797 1041 1045 587 
Q 1294 134 1700 134 
Q 2003 134 2200 384 
Q 2397 634 2397 1244 
Q 2397 2006 2069 2444 
Q 1847 2744 1503 2744 
z
" transform="scale(0.015625)"/>
       <path id="TimesNewRomanPSMT-74" d="M 1031 3803 
L 1031 2863 
L 1700 2863 
L 1700 2644 
L 1031 2644 
L 1031 788 
Q 1031 509 1111 412 
Q 1191 316 1316 316 
Q 1419 316 1516 380 
Q 1613 444 1666 569 
L 1788 569 
Q 1678 263 1478 108 
Q 1278 -47 1066 -47 
Q 922 -47 784 33 
Q 647 113 581 261 
Q 516 409 516 719 
L 516 2644 
L 63 2644 
L 63 2747 
Q 234 2816 414 2980 
Q 594 3144 734 3369 
Q 806 3488 934 3803 
L 1031 3803 
z
" transform="scale(0.015625)"/>
      </defs>
      <use xlink:href="#TimesNewRomanPSMT-4c"/>
      <use xlink:href="#TimesNewRomanPSMT-61" x="61.083984"/>
      <use xlink:href="#TimesNewRomanPSMT-6e" x="105.46875"/>
      <use xlink:href="#TimesNewRomanPSMT-64" x="155.46875"/>
      <use xlink:href="#TimesNewRomanPSMT-6d" x="205.46875"/>
      <use xlink:href="#TimesNewRomanPSMT-61" x="283.251953"/>
      <use xlink:href="#TimesNewRomanPSMT-72" x="327.636719"/>
      <use xlink:href="#TimesNewRomanPSMT-6b" x="360.9375"/>
      <use xlink:href="#TimesNewRomanPSMT-20" x="410.9375"/>
      <use xlink:href="#TimesNewRomanPSMT-43" x="435.9375"/>
      <use xlink:href="#TimesNewRomanPSMT-6f" x="502.636719"/>
      <use xlink:href="#TimesNewRomanPSMT-6f" x="552.636719"/>
      <use xlink:href="#TimesNewRomanPSMT-72" x="602.636719"/>
      <use xlink:href="#TimesNewRomanPSMT-64" x="635.9375"/>
      <use xlink:href="#TimesNewRomanPSMT-69" x="685.9375"/>
      <use xlink:href="#TimesNewRomanPSMT-6e" x="713.720703"/>
      <use xlink:href="#TimesNewRomanPSMT-61" x="763.720703"/>
      <use xlink:href="#TimesNewRomanPSMT-74" x="808.105469"/>
      <use xlink:href="#TimesNewRomanPSMT-65" x="835.888672"/>
      <use xlink:href="#TimesNewRomanPSMT-20" x="880.273438"/>
      <use xlink:href="#TimesNewRomanPSMT-28" x="905.273438"/>
      <use xlink:href="#TimesNewRomanPSMT-6d" x="938.574219"/>
      <use xlink:href="#TimesNewRomanPSMT-6d" x="1016.357422"/>
      <use xlink:href="#TimesNewRomanPSMT-29" x="1094.140625"/>
     </g>
    </g>
   </g>
   <g id="line2d_15">
    <path d="M 71.503977 280.744131 
L 102.351322 281.190536 
L 107.959931 281.39515 
L 127.590059 282.013675 
L 144.415884 282.312934 
L 159.839557 282.622551 
L 168.252469 283.006238 
L 185.078293 284.026329 
L 187.882598 283.940199 
L 189.28475 283.728206 
L 190.686902 283.393757 
L 192.089054 282.720034 
L 193.491206 282.279447 
L 196.29551 282.029426 
L 200.501966 282.65391 
L 203.30627 282.750116 
L 204.708422 282.765157 
L 207.512726 282.285974 
L 208.914878 281.742796 
L 214.523487 278.857622 
L 218.729943 277.286407 
L 224.338551 275.907177 
L 227.142855 275.58039 
L 232.751463 275.245515 
L 248.175136 274.922843 
L 256.588048 273.053504 
L 262.196656 272.248811 
L 266.403112 271.550824 
L 267.805264 271.357562 
L 273.413873 270.018488 
L 279.022481 269.001235 
L 281.826785 268.723687 
L 293.044001 266.745655 
L 295.848306 266.1653 
L 298.65261 265.797789 
L 304.261218 265.421339 
L 307.065522 265.340174 
L 311.271978 265.694772 
L 314.076282 266.437315 
L 315.478434 267.018521 
L 316.880586 267.390998 
L 319.68489 267.921264 
L 321.087042 268.306228 
L 322.489194 268.832805 
L 323.891347 268.9896 
L 328.097803 269.132773 
L 329.499955 269.247851 
L 333.706411 268.670192 
L 335.108563 268.54362 
L 336.510715 270.037786 
L 337.912867 270.727969 
L 339.315019 271.245464 
L 340.717171 271.59169 
L 343.521475 271.928268 
L 349.130083 272.274778 
L 354.738692 272.254771 
L 361.749452 272.230649 
L 364.553756 272.299894 
L 367.35806 272.537002 
L 368.760212 272.737785 
L 370.162364 272.566659 
L 371.564516 272.585815 
L 372.966668 272.756941 
L 377.173124 272.797665 
L 379.977429 272.799794 
L 381.379581 272.984401 
L 388.390341 272.634627 
L 389.792493 272.393829 
L 393.998949 272.219439 
L 395.401101 272.244413 
L 396.803253 272.079955 
L 402.411861 270.896967 
L 405.216166 270.546909 
L 408.02047 270.306679 
L 417.835534 270.15329 
L 419.237686 270.284969 
L 422.04199 270.76699 
L 423.444142 270.902927 
L 431.857055 272.410005 
L 434.661359 272.513873 
L 440.269967 272.514725 
L 441.672119 272.793834 
L 445.878575 273.248611 
L 450.085031 273.9168 
L 454.291487 274.122407 
L 475.323768 274.319217 
L 478.128072 275.163499 
L 482.334528 276.409631 
L 483.73668 276.374724 
L 485.138832 276.544148 
L 486.540985 276.567277 
L 487.943137 276.47845 
L 489.345289 276.59963 
L 496.356049 275.564781 
L 497.758201 275.468576 
L 499.160353 274.9271 
L 507.573265 273.76412 
L 510.377569 273.246483 
L 513.181873 273.04272 
L 517.38833 272.286839 
L 520.192634 272.132598 
L 521.594786 271.975236 
L 522.996938 271.639793 
L 527.203394 271.166854 
L 531.40985 271.050499 
L 541.224915 271.049647 
L 546.833523 271.432199 
L 546.833523 271.432199 
" clip-path="url(#p92ae68594e)" style="fill: none; stroke: #1f77b4; stroke-width: 3; stroke-linecap: square"/>
   </g>
   <g id="line2d_16">
    <path d="M 71.503977 68.464018 
L 88.329802 68.55625 
L 138.807276 69.24019 
L 150.024492 68.915248 
L 172.458925 68.114954 
L 183.676141 67.457975 
L 185.078293 67.306146 
L 187.882598 66.510109 
L 189.28475 65.596298 
L 190.686902 64.283759 
L 192.089054 62.363905 
L 193.491206 60.889604 
L 194.893358 60.028295 
L 196.29551 59.452197 
L 197.697662 59.145701 
L 199.099814 58.568184 
L 200.501966 58.267364 
L 201.904118 58.119792 
L 204.708422 57.44011 
L 207.512726 56.147437 
L 210.31703 54.006224 
L 211.719182 52.63267 
L 213.121334 51.721697 
L 215.925639 49.615959 
L 217.327791 48.588631 
L 218.729943 47.734417 
L 222.936399 46.108287 
L 225.740703 45.540703 
L 239.762223 43.788286 
L 245.370832 42.536763 
L 248.175136 42.101142 
L 250.97944 40.145813 
L 252.381592 39.400859 
L 253.783744 38.911317 
L 257.9902 37.957775 
L 265.00096 36.75024 
L 267.805264 36.438068 
L 272.011721 35.56115 
L 274.816025 35.193639 
L 279.022481 34.87863 
L 283.228937 34.704098 
L 291.641849 34.027253 
L 295.848306 33.64981 
L 301.456914 33.536293 
L 304.261218 33.67677 
L 305.66337 33.878263 
L 307.065522 34.515376 
L 311.271978 36.799903 
L 312.67413 38.069873 
L 316.880586 43.206512 
L 319.68489 48.415518 
L 321.087042 50.695788 
L 322.489194 53.587631 
L 325.293499 57.773566 
L 329.499955 63.78996 
L 333.706411 67.175601 
L 335.108563 68.16036 
L 336.510715 71.463702 
L 337.912867 73.892963 
L 339.315019 75.679435 
L 340.717171 77.027448 
L 342.119323 78.094506 
L 347.727931 81.494337 
L 349.130083 82.178276 
L 350.532236 82.646533 
L 353.33654 83.236821 
L 357.542996 83.841298 
L 360.3473 83.997384 
L 367.35806 84.127928 
L 368.760212 84.177592 
L 371.564516 82.757212 
L 372.966668 82.208074 
L 374.36882 81.524135 
L 375.770972 80.441468 
L 377.173124 78.95014 
L 379.977429 75.665245 
L 381.379581 73.305513 
L 382.781733 71.385659 
L 384.183885 69.809193 
L 385.586037 66.598084 
L 386.988189 63.717593 
L 388.390341 61.22306 
L 389.792493 58.187902 
L 391.194645 56.042433 
L 392.596797 54.114065 
L 395.401101 51.281819 
L 398.205405 47.855028 
L 399.607557 46.638979 
L 401.009709 45.596043 
L 402.411861 44.802843 
L 403.814013 44.223907 
L 405.216166 43.805314 
L 408.02047 43.314353 
L 410.824774 43.280298 
L 412.226926 43.436384 
L 413.629078 43.757069 
L 415.03123 44.218231 
L 416.433382 45.117853 
L 419.237686 48.036655 
L 422.04199 52.368743 
L 423.444142 54.045955 
L 424.846294 56.571706 
L 429.05275 62.791012 
L 430.454902 64.510793 
L 431.857055 65.899955 
L 433.259207 66.669032 
L 436.063511 69.028764 
L 437.465663 70.422184 
L 438.867815 71.334576 
L 441.672119 73.606333 
L 443.074271 74.643593 
L 444.476423 75.26226 
L 445.878575 75.704976 
L 448.682879 78.223632 
L 450.085031 78.933112 
L 451.487183 79.337516 
L 454.291487 79.866789 
L 455.693639 80.440049 
L 457.095791 81.221896 
L 458.497943 81.715695 
L 461.302248 82.188209 
L 465.508704 82.50038 
L 473.921616 82.772821 
L 476.72592 82.904784 
L 478.128072 82.984246 
L 482.334528 83.636968 
L 485.138832 82.750117 
L 486.540985 82.182533 
L 489.345289 79.984562 
L 492.149593 76.367631 
L 493.551745 74.40237 
L 494.953897 72.793268 
L 497.758201 69.108226 
L 499.160353 66.711601 
L 503.366809 58.654741 
L 504.768961 56.241088 
L 506.171113 53.313771 
L 508.975417 48.272203 
L 510.377569 46.457352 
L 511.779721 45.207247 
L 514.584026 42.44453 
L 515.986178 41.194426 
L 517.38833 39.61796 
L 521.594786 35.935756 
L 524.39909 34.021578 
L 525.801242 33.249663 
L 527.203394 32.814042 
L 530.007698 32.321662 
L 534.214154 32.154225 
L 537.018458 32.220916 
L 538.42061 32.456464 
L 539.822762 32.849516 
L 542.627067 34.069822 
L 546.833523 37.123426 
L 546.833523 37.123426 
" clip-path="url(#p92ae68594e)" style="fill: none; stroke: #ff7f0e; stroke-width: 3; stroke-linecap: square"/>
   </g>
   <g id="line2d_17">
    <path d="M 71.503977 414.44644 
L 140.209428 414.429839 
L 158.437404 414.905191 
L 168.252469 415.272276 
L 175.263229 415.806089 
L 180.871837 416.373531 
L 186.480445 417.190285 
L 187.882598 417.211712 
L 190.686902 416.802199 
L 192.089054 415.570116 
L 193.491206 414.705826 
L 194.893358 414.210325 
L 196.29551 413.881978 
L 197.697662 413.851328 
L 199.099814 413.350151 
L 203.30627 414.181237 
L 204.708422 414.477658 
L 206.110574 415.09675 
L 207.512726 415.525986 
L 208.914878 416.203114 
L 210.31703 416.660587 
L 214.523487 417.531687 
L 217.327791 418.384057 
L 218.729943 419.17002 
L 222.936399 421.10378 
L 227.142855 421.323293 
L 229.947159 421.399633 
L 235.555767 421.200553 
L 242.566528 421.15841 
L 246.772984 421.297468 
L 248.175136 421.514143 
L 249.577288 421.947778 
L 252.381592 422.974538 
L 255.185896 423.403774 
L 257.9902 423.733398 
L 263.598808 423.911904 
L 274.816025 423.630665 
L 281.826785 423.788454 
L 284.631089 423.986683 
L 291.641849 425.508518 
L 295.848306 426.908749 
L 298.65261 427.40723 
L 304.261218 428.072155 
L 305.66337 428.396814 
L 308.467674 430.033585 
L 309.869826 430.558033 
L 311.271978 430.929517 
L 312.67413 431.522785 
L 318.282738 433.009146 
L 319.68489 433.157712 
L 321.087042 433.557433 
L 322.489194 433.267965 
L 329.499955 430.342067 
L 335.108563 428.255911 
L 336.510715 426.293062 
L 337.912867 424.794639 
L 342.119323 421.695345 
L 346.325779 419.119505 
L 347.727931 418.045493 
L 349.130083 417.215543 
L 351.934388 416.347564 
L 357.542996 415.279796 
L 360.3473 415.179759 
L 363.151604 415.271566 
L 365.955908 415.637516 
L 367.35806 416.106483 
L 368.760212 416.936007 
L 370.162364 418.328434 
L 372.966668 420.154921 
L 374.36882 421.400059 
L 375.770972 422.923455 
L 378.575277 426.804597 
L 381.379581 429.746387 
L 382.781733 430.977194 
L 384.183885 431.992886 
L 388.390341 434.287346 
L 389.792493 434.905304 
L 392.596797 435.686158 
L 395.401101 436.053527 
L 399.607557 435.852177 
L 405.216166 436.530156 
L 408.02047 436.622956 
L 409.422622 436.470844 
L 415.03123 435.373135 
L 416.433382 435.172494 
L 417.835534 435.105803 
L 419.237686 434.804983 
L 423.444142 432.843695 
L 427.650598 430.805926 
L 429.05275 430.009747 
L 430.454902 428.869611 
L 431.857055 427.887548 
L 433.259207 427.344796 
L 436.063511 425.82821 
L 437.465663 424.813086 
L 438.867815 424.187466 
L 440.269967 423.274932 
L 443.074271 421.01921 
L 444.476423 420.317959 
L 445.878575 419.951867 
L 447.280727 419.194142 
L 448.682879 417.894232 
L 450.085031 417.125155 
L 451.487183 416.687831 
L 454.291487 416.114003 
L 455.693639 415.127684 
L 457.095791 413.780806 
L 458.497943 412.929713 
L 459.900096 412.440881 
L 462.7044 411.889189 
L 466.910856 411.467048 
L 471.117312 411.227811 
L 475.323768 411.27265 
L 476.72592 411.935021 
L 478.128072 412.458618 
L 479.530224 413.525109 
L 480.932376 414.436791 
L 483.73668 417.880184 
L 486.540985 420.297526 
L 487.943137 421.6112 
L 489.345289 423.397388 
L 493.551745 427.829939 
L 497.758201 431.908316 
L 499.160353 434.081171 
L 500.562505 435.511484 
L 501.964657 436.6861 
L 503.366809 437.482705 
L 504.768961 438.407583 
L 507.573265 439.342679 
L 511.779721 440.152764 
L 514.584026 440.853872 
L 515.986178 441.054513 
L 517.38833 441.424011 
L 518.790482 441.417058 
L 527.203394 440.472597 
L 532.812002 440.31041 
L 537.018458 440.283024 
L 538.42061 440.461671 
L 541.224915 440.398386 
L 544.029219 440.060957 
L 546.833523 439.114794 
L 546.833523 439.114794 
" clip-path="url(#p92ae68594e)" style="fill: none; stroke: #2ca02c; stroke-width: 3; stroke-linecap: square"/>
   </g>
   <g id="patch_3">
    <path d="M 47.7375 461.8875 
L 47.7375 11.690736 
" style="fill: none; stroke: #212121; stroke-width: 0.8; stroke-linejoin: miter; stroke-linecap: square"/>
   </g>
   <g id="patch_4">
    <path d="M 570.6 461.8875 
L 570.6 11.690736 
" style="fill: none; stroke: #212121; stroke-width: 0.8; stroke-linejoin: miter; stroke-linecap: square"/>
   </g>
   <g id="patch_5">
    <path d="M 47.7375 461.8875 
L 570.6 461.8875 
" style="fill: none; stroke: #212121; stroke-width: 0.8; stroke-linejoin: miter; stroke-linecap: square"/>
   </g>
   <g id="patch_6">
    <path d="M 47.7375 11.690736 
L 570.6 11.690736 
" style="fill: none; stroke: #212121; stroke-width: 0.8; stroke-linejoin: miter; stroke-linecap: square"/>
   </g>
   <g id="legend_1">
    <g id="line2d_18">
     <path d="M 56.7375 24.190736 
L 66.7375 24.190736 
L 76.7375 24.190736 
" style="fill: none; stroke: #1f77b4; stroke-width: 3; stroke-linecap: square"/>
    </g>
    <g id="text_17">
     <!-- X -->
     <g style="fill: #212121" transform="translate(84.7375 27.690736)scale(0.1 -0.1)">
      <defs>
       <path id="TimesNewRomanPSMT-58" d="M 2613 2347 
L 3522 991 
Q 3900 428 4083 279 
Q 4266 131 4547 116 
L 4547 0 
L 2728 0 
L 2728 116 
Q 2909 119 2997 153 
Q 3063 181 3105 239 
Q 3147 297 3147 356 
Q 3147 428 3119 500 
Q 3097 553 2947 775 
L 2228 1863 
L 1341 725 
Q 1200 544 1172 483 
Q 1144 422 1144 356 
Q 1144 256 1228 190 
Q 1313 125 1550 116 
L 1550 0 
L 47 0 
L 47 116 
Q 206 131 322 181 
Q 516 263 691 400 
Q 866 538 1091 822 
L 2091 2084 
L 1256 3306 
Q 916 3803 678 3958 
Q 441 4113 131 4122 
L 131 4238 
L 2091 4238 
L 2091 4122 
Q 1841 4113 1748 4041 
Q 1656 3969 1656 3881 
Q 1656 3766 1806 3544 
L 2456 2572 
L 3209 3525 
Q 3341 3694 3370 3756 
Q 3400 3819 3400 3884 
Q 3400 3950 3363 4000 
Q 3316 4066 3244 4092 
Q 3172 4119 2947 4122 
L 2947 4238 
L 4450 4238 
L 4450 4122 
Q 4272 4113 4159 4066 
Q 3991 3994 3850 3872 
Q 3709 3750 3453 3422 
L 2613 2347 
z
" transform="scale(0.015625)"/>
      </defs>
      <use xlink:href="#TimesNewRomanPSMT-58"/>
     </g>
    </g>
    <g id="line2d_19">
     <path d="M 56.7375 38.329798 
L 66.7375 38.329798 
L 76.7375 38.329798 
" style="fill: none; stroke: #ff7f0e; stroke-width: 3; stroke-linecap: square"/>
    </g>
    <g id="text_18">
     <!-- Y -->
     <g style="fill: #212121" transform="translate(84.7375 41.829798)scale(0.1 -0.1)">
      <defs>
       <path id="TimesNewRomanPSMT-59" d="M 3050 4238 
L 4528 4238 
L 4528 4122 
L 4447 4122 
Q 4366 4122 4209 4050 
Q 4053 3978 3925 3843 
Q 3797 3709 3609 3406 
L 2588 1797 
L 2588 734 
Q 2588 344 2675 247 
Q 2794 116 3050 116 
L 3188 116 
L 3188 0 
L 1388 0 
L 1388 116 
L 1538 116 
Q 1806 116 1919 278 
Q 1988 378 1988 734 
L 1988 1738 
L 825 3513 
Q 619 3825 545 3903 
Q 472 3981 241 4091 
Q 178 4122 59 4122 
L 59 4238 
L 1872 4238 
L 1872 4122 
L 1778 4122 
Q 1631 4122 1507 4053 
Q 1384 3984 1384 3847 
Q 1384 3734 1575 3441 
L 2459 2075 
L 3291 3381 
Q 3478 3675 3478 3819 
Q 3478 3906 3433 3975 
Q 3388 4044 3303 4083 
Q 3219 4122 3050 4122 
L 3050 4238 
z
" transform="scale(0.015625)"/>
      </defs>
      <use xlink:href="#TimesNewRomanPSMT-59"/>
     </g>
    </g>
    <g id="line2d_20">
     <path d="M 56.7375 52.468861 
L 66.7375 52.468861 
L 76.7375 52.468861 
" style="fill: none; stroke: #2ca02c; stroke-width: 3; stroke-linecap: square"/>
    </g>
    <g id="text_19">
     <!-- Z -->
     <g style="fill: #212121" transform="translate(84.7375 55.968861)scale(0.1 -0.1)">
      <defs>
       <path id="TimesNewRomanPSMT-5a" d="M 3681 4238 
L 897 256 
L 2634 256 
Q 3034 256 3248 431 
Q 3463 606 3628 1141 
L 3731 1122 
L 3531 0 
L 81 0 
L 81 116 
L 2800 3984 
L 1444 3984 
Q 1106 3984 954 3911 
Q 803 3838 723 3698 
Q 644 3559 578 3178 
L 459 3178 
L 547 4238 
L 3681 4238 
z
" transform="scale(0.015625)"/>
      </defs>
      <use xlink:href="#TimesNewRomanPSMT-5a"/>
     </g>
    </g>
   </g>
  </g>
  <g id="axes_2">
   <g id="patch_7">
    <path d="M 618.3375 461.8875 
L 1141.2 461.8875 
L 1141.2 11.690736 
L 618.3375 11.690736 
z
" style="fill: #ffffff"/>
   </g>
   <g id="matplotlib.axis_3">
    <g id="xtick_8">
     <g id="line2d_21">
      <g>
       <use xlink:href="#m4b818a1cf4" x="642.103977" y="461.8875" style="fill: #212121; stroke: #212121; stroke-width: 0.8"/>
      </g>
     </g>
     <g id="text_20">
      <!-- 0.0 -->
      <g style="fill: #212121" transform="translate(635.853977 475.83125)scale(0.1 -0.1)">
       <use xlink:href="#TimesNewRomanPSMT-30"/>
       <use xlink:href="#TimesNewRomanPSMT-2e" x="50"/>
       <use xlink:href="#TimesNewRomanPSMT-30" x="75"/>
      </g>
     </g>
    </g>
    <g id="xtick_9">
     <g id="line2d_22">
      <g>
       <use xlink:href="#m4b818a1cf4" x="721.325568" y="461.8875" style="fill: #212121; stroke: #212121; stroke-width: 0.8"/>
      </g>
     </g>
     <g id="text_21">
      <!-- 0.5 -->
      <g style="fill: #212121" transform="translate(715.075568 475.83125)scale(0.1 -0.1)">
       <use xlink:href="#TimesNewRomanPSMT-30"/>
       <use xlink:href="#TimesNewRomanPSMT-2e" x="50"/>
       <use xlink:href="#TimesNewRomanPSMT-35" x="75"/>
      </g>
     </g>
    </g>
    <g id="xtick_10">
     <g id="line2d_23">
      <g>
       <use xlink:href="#m4b818a1cf4" x="800.547159" y="461.8875" style="fill: #212121; stroke: #212121; stroke-width: 0.8"/>
      </g>
     </g>
     <g id="text_22">
      <!-- 1.0 -->
      <g style="fill: #212121" transform="translate(794.297159 475.83125)scale(0.1 -0.1)">
       <use xlink:href="#TimesNewRomanPSMT-31"/>
       <use xlink:href="#TimesNewRomanPSMT-2e" x="50"/>
       <use xlink:href="#TimesNewRomanPSMT-30" x="75"/>
      </g>
     </g>
    </g>
    <g id="xtick_11">
     <g id="line2d_24">
      <g>
       <use xlink:href="#m4b818a1cf4" x="879.76875" y="461.8875" style="fill: #212121; stroke: #212121; stroke-width: 0.8"/>
      </g>
     </g>
     <g id="text_23">
      <!-- 1.5 -->
      <g style="fill: #212121" transform="translate(873.51875 475.83125)scale(0.1 -0.1)">
       <use xlink:href="#TimesNewRomanPSMT-31"/>
       <use xlink:href="#TimesNewRomanPSMT-2e" x="50"/>
       <use xlink:href="#TimesNewRomanPSMT-35" x="75"/>
      </g>
     </g>
    </g>
    <g id="xtick_12">
     <g id="line2d_25">
      <g>
       <use xlink:href="#m4b818a1cf4" x="958.990341" y="461.8875" style="fill: #212121; stroke: #212121; stroke-width: 0.8"/>
      </g>
     </g>
     <g id="text_24">
      <!-- 2.0 -->
      <g style="fill: #212121" transform="translate(952.740341 475.83125)scale(0.1 -0.1)">
       <use xlink:href="#TimesNewRomanPSMT-32"/>
       <use xlink:href="#TimesNewRomanPSMT-2e" x="50"/>
       <use xlink:href="#TimesNewRomanPSMT-30" x="75"/>
      </g>
     </g>
    </g>
    <g id="xtick_13">
     <g id="line2d_26">
      <g>
       <use xlink:href="#m4b818a1cf4" x="1038.211932" y="461.8875" style="fill: #212121; stroke: #212121; stroke-width: 0.8"/>
      </g>
     </g>
     <g id="text_25">
      <!-- 2.5 -->
      <g style="fill: #212121" transform="translate(1031.961932 475.83125)scale(0.1 -0.1)">
       <use xlink:href="#TimesNewRomanPSMT-32"/>
       <use xlink:href="#TimesNewRomanPSMT-2e" x="50"/>
       <use xlink:href="#TimesNewRomanPSMT-35" x="75"/>
      </g>
     </g>
    </g>
    <g id="xtick_14">
     <g id="line2d_27">
      <g>
       <use xlink:href="#m4b818a1cf4" x="1117.433523" y="461.8875" style="fill: #212121; stroke: #212121; stroke-width: 0.8"/>
      </g>
     </g>
     <g id="text_26">
      <!-- 3.0 -->
      <g style="fill: #212121" transform="translate(1111.183523 475.83125)scale(0.1 -0.1)">
       <use xlink:href="#TimesNewRomanPSMT-33"/>
       <use xlink:href="#TimesNewRomanPSMT-2e" x="50"/>
       <use xlink:href="#TimesNewRomanPSMT-30" x="75"/>
      </g>
     </g>
    </g>
    <g id="text_27">
     <!-- Time (s) -->
     <g style="fill: #212121" transform="translate(862.866406 488.914062)scale(0.1 -0.1)">
      <use xlink:href="#TimesNewRomanPSMT-54"/>
      <use xlink:href="#TimesNewRomanPSMT-69" x="57.583984"/>
      <use xlink:href="#TimesNewRomanPSMT-6d" x="85.367188"/>
      <use xlink:href="#TimesNewRomanPSMT-65" x="163.150391"/>
      <use xlink:href="#TimesNewRomanPSMT-20" x="207.535156"/>
      <use xlink:href="#TimesNewRomanPSMT-28" x="232.535156"/>
      <use xlink:href="#TimesNewRomanPSMT-73" x="265.835938"/>
      <use xlink:href="#TimesNewRomanPSMT-29" x="304.751953"/>
     </g>
    </g>
   </g>
   <g id="matplotlib.axis_4">
    <g id="ytick_8">
     <g id="line2d_28">
      <g>
       <use xlink:href="#m54071aee31" x="618.3375" y="435.538998" style="fill: #212121; stroke: #212121; stroke-width: 0.8"/>
      </g>
     </g>
     <g id="text_28">
      <!-- −50 -->
      <g style="fill: #212121" transform="translate(595.698437 439.010873)scale(0.1 -0.1)">
       <use xlink:href="#TimesNewRomanPSMT-2212"/>
       <use xlink:href="#TimesNewRomanPSMT-35" x="56.396484"/>
       <use xlink:href="#TimesNewRomanPSMT-30" x="106.396484"/>
      </g>
     </g>
    </g>
    <g id="ytick_9">
     <g id="line2d_29">
      <g>
       <use xlink:href="#m54071aee31" x="618.3375" y="366.966813" style="fill: #212121; stroke: #212121; stroke-width: 0.8"/>
      </g>
     </g>
     <g id="text_29">
      <!-- 0 -->
      <g style="fill: #212121" transform="translate(606.3375 370.438688)scale(0.1 -0.1)">
       <use xlink:href="#TimesNewRomanPSMT-30"/>
      </g>
     </g>
    </g>
    <g id="ytick_10">
     <g id="line2d_30">
      <g>
       <use xlink:href="#m54071aee31" x="618.3375" y="298.394628" style="fill: #212121; stroke: #212121; stroke-width: 0.8"/>
      </g>
     </g>
     <g id="text_30">
      <!-- 50 -->
      <g style="fill: #212121" transform="translate(601.3375 301.866503)scale(0.1 -0.1)">
       <use xlink:href="#TimesNewRomanPSMT-35"/>
       <use xlink:href="#TimesNewRomanPSMT-30" x="50"/>
      </g>
     </g>
    </g>
    <g id="ytick_11">
     <g id="line2d_31">
      <g>
       <use xlink:href="#m54071aee31" x="618.3375" y="229.822443" style="fill: #212121; stroke: #212121; stroke-width: 0.8"/>
      </g>
     </g>
     <g id="text_31">
      <!-- 100 -->
      <g style="fill: #212121" transform="translate(596.3375 233.294318)scale(0.1 -0.1)">
       <use xlink:href="#TimesNewRomanPSMT-31"/>
       <use xlink:href="#TimesNewRomanPSMT-30" x="50"/>
       <use xlink:href="#TimesNewRomanPSMT-30" x="100"/>
      </g>
     </g>
    </g>
    <g id="ytick_12">
     <g id="line2d_32">
      <g>
       <use xlink:href="#m54071aee31" x="618.3375" y="161.250258" style="fill: #212121; stroke: #212121; stroke-width: 0.8"/>
      </g>
     </g>
     <g id="text_32">
      <!-- 150 -->
      <g style="fill: #212121" transform="translate(596.3375 164.722133)scale(0.1 -0.1)">
       <use xlink:href="#TimesNewRomanPSMT-31"/>
       <use xlink:href="#TimesNewRomanPSMT-35" x="50"/>
       <use xlink:href="#TimesNewRomanPSMT-30" x="100"/>
      </g>
     </g>
    </g>
    <g id="ytick_13">
     <g id="line2d_33">
      <g>
       <use xlink:href="#m54071aee31" x="618.3375" y="92.678073" style="fill: #212121; stroke: #212121; stroke-width: 0.8"/>
      </g>
     </g>
     <g id="text_33">
      <!-- 200 -->
      <g style="fill: #212121" transform="translate(596.3375 96.149948)scale(0.1 -0.1)">
       <use xlink:href="#TimesNewRomanPSMT-32"/>
       <use xlink:href="#TimesNewRomanPSMT-30" x="50"/>
       <use xlink:href="#TimesNewRomanPSMT-30" x="100"/>
      </g>
     </g>
    </g>
    <g id="ytick_14">
     <g id="line2d_34">
      <g>
       <use xlink:href="#m54071aee31" x="618.3375" y="24.105888" style="fill: #212121; stroke: #212121; stroke-width: 0.8"/>
      </g>
     </g>
     <g id="text_34">
      <!-- 250 -->
      <g style="fill: #212121" transform="translate(596.3375 27.577763)scale(0.1 -0.1)">
       <use xlink:href="#TimesNewRomanPSMT-32"/>
       <use xlink:href="#TimesNewRomanPSMT-35" x="50"/>
       <use xlink:href="#TimesNewRomanPSMT-30" x="100"/>
      </g>
     </g>
    </g>
    <g id="text_35">
     <!-- Landmark Coordinate (mm) -->
     <g style="fill: #212121" transform="translate(589.559375 293.160993)rotate(-90)scale(0.1 -0.1)">
      <use xlink:href="#TimesNewRomanPSMT-4c"/>
      <use xlink:href="#TimesNewRomanPSMT-61" x="61.083984"/>
      <use xlink:href="#TimesNewRomanPSMT-6e" x="105.46875"/>
      <use xlink:href="#TimesNewRomanPSMT-64" x="155.46875"/>
      <use xlink:href="#TimesNewRomanPSMT-6d" x="205.46875"/>
      <use xlink:href="#TimesNewRomanPSMT-61" x="283.251953"/>
      <use xlink:href="#TimesNewRomanPSMT-72" x="327.636719"/>
      <use xlink:href="#TimesNewRomanPSMT-6b" x="360.9375"/>
      <use xlink:href="#TimesNewRomanPSMT-20" x="410.9375"/>
      <use xlink:href="#TimesNewRomanPSMT-43" x="435.9375"/>
      <use xlink:href="#TimesNewRomanPSMT-6f" x="502.636719"/>
      <use xlink:href="#TimesNewRomanPSMT-6f" x="552.636719"/>
      <use xlink:href="#TimesNewRomanPSMT-72" x="602.636719"/>
      <use xlink:href="#TimesNewRomanPSMT-64" x="635.9375"/>
      <use xlink:href="#TimesNewRomanPSMT-69" x="685.9375"/>
      <use xlink:href="#TimesNewRomanPSMT-6e" x="713.720703"/>
      <use xlink:href="#TimesNewRomanPSMT-61" x="763.720703"/>
      <use xlink:href="#TimesNewRomanPSMT-74" x="808.105469"/>
      <use xlink:href="#TimesNewRomanPSMT-65" x="835.888672"/>
      <use xlink:href="#TimesNewRomanPSMT-20" x="880.273438"/>
      <use xlink:href="#TimesNewRomanPSMT-28" x="905.273438"/>
      <use xlink:href="#TimesNewRomanPSMT-6d" x="938.574219"/>
      <use xlink:href="#TimesNewRomanPSMT-6d" x="1016.357422"/>
      <use xlink:href="#TimesNewRomanPSMT-29" x="1094.140625"/>
     </g>
    </g>
   </g>
   <g id="line2d_35">
    <path d="M 642.103977 278.462856 
L 644.908281 279.725104 
L 647.712585 280.624326 
L 650.51689 281.229072 
L 653.321194 281.599196 
L 656.125498 281.786621 
L 660.331954 281.821178 
L 665.940562 281.591899 
L 682.766387 280.699769 
L 689.777147 280.647082 
L 696.787907 280.844144 
L 705.20082 281.350899 
L 719.22234 282.508524 
L 730.439557 283.324086 
L 737.450317 283.635553 
L 744.461077 283.730851 
L 751.471837 283.578471 
L 758.482598 283.165959 
L 765.493358 282.498719 
L 772.504118 281.59787 
L 780.91703 280.257135 
L 790.732095 278.433448 
L 822.981592 272.189169 
L 831.394504 270.891531 
L 839.807417 269.84502 
L 846.818177 269.184933 
L 853.828937 268.723458 
L 860.839697 268.45633 
L 869.25261 268.373867 
L 877.665522 268.517031 
L 887.480586 268.906362 
L 901.502107 269.713786 
L 926.740844 271.198396 
L 939.360212 271.692551 
L 951.979581 271.961616 
L 968.805405 272.060974 
L 991.239838 272.181883 
L 1003.859207 272.493527 
L 1015.076423 272.994959 
L 1029.097943 273.869062 
L 1047.32592 275.006737 
L 1055.738832 275.293581 
L 1062.749593 275.307025 
L 1068.358201 275.131183 
L 1073.966809 274.770896 
L 1079.575417 274.225188 
L 1086.586178 273.317917 
L 1102.00985 271.144861 
L 1106.216306 270.821083 
L 1109.02061 270.768676 
L 1111.824915 270.895959 
L 1114.629219 271.252229 
L 1117.433523 271.894042 
L 1117.433523 271.894042 
" clip-path="url(#pa1e7806e55)" style="fill: none; stroke: #1f77b4; stroke-width: 3; stroke-linecap: square"/>
   </g>
   <g id="line2d_36">
    <path d="M 642.103977 63.979167 
L 643.506129 67.614992 
L 644.908281 70.695605 
L 646.310433 73.274271 
L 647.712585 75.400775 
L 649.114738 77.121588 
L 650.51689 78.480015 
L 651.919042 79.516348 
L 653.321194 80.268004 
L 654.723346 80.769671 
L 656.125498 81.053434 
L 657.52765 81.148913 
L 658.929802 81.083382 
L 660.331954 80.881894 
L 663.136258 80.160837 
L 665.940562 79.146046 
L 671.54917 76.737095 
L 675.755627 74.96313 
L 679.962083 73.452037 
L 682.766387 72.653723 
L 685.570691 72.04724 
L 688.374995 71.641211 
L 691.179299 71.435163 
L 693.983603 71.421118 
L 696.787907 71.585039 
L 700.994363 72.122483 
L 705.20082 72.939738 
L 710.809428 74.311643 
L 722.026644 77.210659 
L 726.2331 78.09165 
L 730.439557 78.748526 
L 734.646013 79.126017 
L 737.450317 79.201127 
L 740.254621 79.123974 
L 743.058925 78.888144 
L 745.863229 78.489881 
L 748.667533 77.928018 
L 751.471837 77.203875 
L 754.276141 76.321139 
L 758.482598 74.713159 
L 762.689054 72.790527 
L 766.89551 70.590672 
L 771.101966 68.158545 
L 776.710574 64.643043 
L 786.525639 58.117468 
L 794.938551 52.627041 
L 800.547159 49.259034 
L 804.753615 46.97398 
L 808.960071 44.94606 
L 813.166528 43.214393 
L 817.372984 41.811407 
L 820.177288 41.071439 
L 822.981592 40.494509 
L 825.785896 40.084686 
L 828.5902 39.844486 
L 831.394504 39.774872 
L 834.198808 39.875266 
L 837.003112 40.143575 
L 839.807417 40.576226 
L 842.611721 41.168219 
L 846.818177 42.340693 
L 851.024633 43.830206 
L 855.231089 45.604021 
L 859.437545 47.624264 
L 865.046153 50.627879 
L 872.056914 54.726038 
L 888.882738 64.824004 
L 894.491347 67.876208 
L 898.697803 69.95697 
L 902.904259 71.819988 
L 907.110715 73.436017 
L 911.317171 74.78203 
L 915.523627 75.841766 
L 919.730083 76.606149 
L 923.93654 77.073566 
L 928.142996 77.25 
L 932.349452 77.148992 
L 936.555908 76.791454 
L 940.762364 76.205302 
L 944.96882 75.424927 
L 950.577429 74.152441 
L 960.392493 71.599966 
L 968.805405 69.503804 
L 974.414013 68.373843 
L 978.62047 67.750167 
L 982.826926 67.366864 
L 987.033382 67.260621 
L 991.239838 67.45986 
L 995.446294 67.983108 
L 999.65275 68.83747 
L 1003.859207 70.01724 
L 1008.065663 71.50272 
L 1012.272119 73.259294 
L 1016.478575 75.236824 
L 1023.489335 78.837811 
L 1031.902248 83.150327 
L 1036.108704 85.049266 
L 1038.913008 86.136369 
L 1041.717312 87.035218 
L 1044.521616 87.706451 
L 1047.32592 88.110868 
L 1050.130224 88.210223 
L 1052.934528 87.968111 
L 1055.738832 87.350984 
L 1058.543137 86.329289 
L 1061.347441 84.878737 
L 1064.151745 82.98172 
L 1066.956049 80.628877 
L 1069.760353 77.820815 
L 1072.564657 74.570011 
L 1075.368961 70.902883 
L 1078.173265 66.862056 
L 1082.379721 60.239979 
L 1093.596938 41.875536 
L 1096.401242 38.007823 
L 1097.803394 36.336627 
L 1099.205546 34.888115 
L 1100.607698 33.701597 
L 1102.00985 32.819464 
L 1103.412002 32.287337 
L 1104.814154 32.154225 
L 1106.216306 32.472687 
L 1107.618458 33.299001 
L 1109.02061 34.693335 
L 1110.422762 36.719925 
L 1111.824915 39.447261 
L 1113.227067 42.948275 
L 1114.629219 47.300537 
L 1116.031371 52.586458 
L 1117.433523 58.893494 
L 1117.433523 58.893494 
" clip-path="url(#pa1e7806e55)" style="fill: none; stroke: #ff7f0e; stroke-width: 3; stroke-linecap: square"/>
   </g>
   <g id="line2d_37">
    <path d="M 642.103977 413.701353 
L 643.506129 412.477562 
L 644.908281 411.437442 
L 646.310433 410.563696 
L 647.712585 409.840145 
L 649.114738 409.251676 
L 651.919042 408.424576 
L 654.723346 407.98099 
L 657.52765 407.833588 
L 660.331954 407.907747 
L 664.53841 408.299057 
L 671.54917 409.304044 
L 679.962083 410.486347 
L 685.570691 411.03997 
L 691.179299 411.341753 
L 696.787907 411.39273 
L 702.396515 411.226373 
L 709.407276 410.795098 
L 733.243861 409.061328 
L 740.254621 408.884133 
L 745.863229 408.933077 
L 751.471837 409.163507 
L 758.482598 409.704044 
L 765.493358 410.501509 
L 772.504118 411.511951 
L 782.319182 413.172074 
L 806.155767 417.341798 
L 814.56868 418.526305 
L 821.57944 419.31091 
L 828.5902 419.89062 
L 835.60096 420.262347 
L 842.611721 420.43812 
L 851.024633 420.42737 
L 862.241849 420.148074 
L 887.480586 419.391445 
L 895.893499 419.389209 
L 904.306411 419.607393 
L 912.719323 420.063908 
L 921.132236 420.743735 
L 932.349452 421.907901 
L 951.979581 424.027922 
L 958.990341 424.569636 
L 966.001101 424.878278 
L 971.609709 424.912566 
L 977.218318 424.728115 
L 982.826926 424.306552 
L 988.435534 423.640486 
L 994.044142 422.735686 
L 999.65275 421.612991 
L 1006.663511 419.961891 
L 1029.097943 414.364201 
L 1033.3044 413.611918 
L 1037.510856 413.076039 
L 1041.717312 412.809946 
L 1044.521616 412.808098 
L 1047.32592 412.963621 
L 1050.130224 413.289744 
L 1052.934528 413.798101 
L 1055.738832 414.498265 
L 1058.543137 415.397237 
L 1061.347441 416.498877 
L 1064.151745 417.803283 
L 1066.956049 419.306104 
L 1069.760353 420.9978 
L 1073.966809 423.853623 
L 1078.173265 427.015303 
L 1090.792634 436.824098 
L 1093.596938 438.627185 
L 1096.401242 440.083493 
L 1097.803394 440.642327 
L 1099.205546 441.064961 
L 1100.607698 441.332324 
L 1102.00985 441.424011 
L 1103.412002 441.318218 
L 1104.814154 440.991683 
L 1106.216306 440.41962 
L 1107.618458 439.575652 
L 1109.02061 438.431742 
L 1110.422762 436.95812 
L 1111.824915 435.123213 
L 1113.227067 432.89357 
L 1114.629219 430.233782 
L 1116.031371 427.106402 
L 1117.433523 423.471867 
L 1117.433523 423.471867 
" clip-path="url(#pa1e7806e55)" style="fill: none; stroke: #2ca02c; stroke-width: 3; stroke-linecap: square"/>
   </g>
   <g id="patch_8">
    <path d="M 618.3375 461.8875 
L 618.3375 11.690736 
" style="fill: none; stroke: #212121; stroke-width: 0.8; stroke-linejoin: miter; stroke-linecap: square"/>
   </g>
   <g id="patch_9">
    <path d="M 1141.2 461.8875 
L 1141.2 11.690736 
" style="fill: none; stroke: #212121; stroke-width: 0.8; stroke-linejoin: miter; stroke-linecap: square"/>
   </g>
   <g id="patch_10">
    <path d="M 618.3375 461.8875 
L 1141.2 461.8875 
" style="fill: none; stroke: #212121; stroke-width: 0.8; stroke-linejoin: miter; stroke-linecap: square"/>
   </g>
   <g id="patch_11">
    <path d="M 618.3375 11.690736 
L 1141.2 11.690736 
" style="fill: none; stroke: #212121; stroke-width: 0.8; stroke-linejoin: miter; stroke-linecap: square"/>
   </g>
   <g id="legend_2">
    <g id="line2d_38">
     <path d="M 627.3375 24.190736 
L 637.3375 24.190736 
L 647.3375 24.190736 
" style="fill: none; stroke: #1f77b4; stroke-width: 3; stroke-linecap: square"/>
    </g>
    <g id="text_36">
     <!-- X (Approx) -->
     <g style="fill: #212121" transform="translate(655.3375 27.690736)scale(0.1 -0.1)">
      <defs>
       <path id="TimesNewRomanPSMT-41" d="M 2928 1419 
L 1288 1419 
L 1000 750 
Q 894 503 894 381 
Q 894 284 986 211 
Q 1078 138 1384 116 
L 1384 0 
L 50 0 
L 50 116 
Q 316 163 394 238 
Q 553 388 747 847 
L 2238 4334 
L 2347 4334 
L 3822 809 
Q 4000 384 4145 257 
Q 4291 131 4550 116 
L 4550 0 
L 2878 0 
L 2878 116 
Q 3131 128 3220 200 
Q 3309 272 3309 375 
Q 3309 513 3184 809 
L 2928 1419 
z
M 2841 1650 
L 2122 3363 
L 1384 1650 
L 2841 1650 
z
" transform="scale(0.015625)"/>
       <path id="TimesNewRomanPSMT-70" d="M -6 2578 
L 875 2934 
L 994 2934 
L 994 2266 
Q 1216 2644 1439 2795 
Q 1663 2947 1909 2947 
Q 2341 2947 2628 2609 
Q 2981 2197 2981 1534 
Q 2981 794 2556 309 
Q 2206 -88 1675 -88 
Q 1444 -88 1275 -22 
Q 1150 25 994 166 
L 994 -706 
Q 994 -1000 1030 -1079 
Q 1066 -1159 1155 -1206 
Q 1244 -1253 1478 -1253 
L 1478 -1369 
L -22 -1369 
L -22 -1253 
L 56 -1253 
Q 228 -1256 350 -1188 
Q 409 -1153 442 -1076 
Q 475 -1000 475 -688 
L 475 2019 
Q 475 2297 450 2372 
Q 425 2447 370 2484 
Q 316 2522 222 2522 
Q 147 2522 31 2478 
L -6 2578 
z
M 994 2081 
L 994 1013 
Q 994 666 1022 556 
Q 1066 375 1236 237 
Q 1406 100 1666 100 
Q 1978 100 2172 344 
Q 2425 663 2425 1241 
Q 2425 1897 2138 2250 
Q 1938 2494 1663 2494 
Q 1513 2494 1366 2419 
Q 1253 2363 994 2081 
z
" transform="scale(0.015625)"/>
       <path id="TimesNewRomanPSMT-78" d="M 84 2863 
L 1431 2863 
L 1431 2747 
Q 1303 2747 1251 2703 
Q 1200 2659 1200 2588 
Q 1200 2513 1309 2356 
Q 1344 2306 1413 2200 
L 1616 1875 
L 1850 2200 
Q 2075 2509 2075 2591 
Q 2075 2656 2022 2701 
Q 1969 2747 1850 2747 
L 1850 2863 
L 2819 2863 
L 2819 2747 
Q 2666 2738 2553 2663 
Q 2400 2556 2134 2200 
L 1744 1678 
L 2456 653 
Q 2719 275 2831 198 
Q 2944 122 3122 113 
L 3122 0 
L 1772 0 
L 1772 113 
Q 1913 113 1991 175 
Q 2050 219 2050 291 
Q 2050 363 1850 653 
L 1431 1266 
L 972 653 
Q 759 369 759 316 
Q 759 241 829 180 
Q 900 119 1041 113 
L 1041 0 
L 106 0 
L 106 113 
Q 219 128 303 191 
Q 422 281 703 653 
L 1303 1450 
L 759 2238 
Q 528 2575 401 2661 
Q 275 2747 84 2747 
L 84 2863 
z
" transform="scale(0.015625)"/>
      </defs>
      <use xlink:href="#TimesNewRomanPSMT-58"/>
      <use xlink:href="#TimesNewRomanPSMT-20" x="72.216797"/>
      <use xlink:href="#TimesNewRomanPSMT-28" x="97.216797"/>
      <use xlink:href="#TimesNewRomanPSMT-41" x="130.517578"/>
      <use xlink:href="#TimesNewRomanPSMT-70" x="202.734375"/>
      <use xlink:href="#TimesNewRomanPSMT-70" x="252.734375"/>
      <use xlink:href="#TimesNewRomanPSMT-72" x="302.734375"/>
      <use xlink:href="#TimesNewRomanPSMT-6f" x="336.035156"/>
      <use xlink:href="#TimesNewRomanPSMT-78" x="386.035156"/>
      <use xlink:href="#TimesNewRomanPSMT-29" x="436.035156"/>
     </g>
    </g>
    <g id="line2d_39">
     <path d="M 627.3375 38.329798 
L 637.3375 38.329798 
L 647.3375 38.329798 
" style="fill: none; stroke: #ff7f0e; stroke-width: 3; stroke-linecap: square"/>
    </g>
    <g id="text_37">
     <!-- Y (Approx) -->
     <g style="fill: #212121" transform="translate(655.3375 41.829798)scale(0.1 -0.1)">
      <use xlink:href="#TimesNewRomanPSMT-59"/>
      <use xlink:href="#TimesNewRomanPSMT-20" x="68.466797"/>
      <use xlink:href="#TimesNewRomanPSMT-28" x="93.466797"/>
      <use xlink:href="#TimesNewRomanPSMT-41" x="126.767578"/>
      <use xlink:href="#TimesNewRomanPSMT-70" x="198.984375"/>
      <use xlink:href="#TimesNewRomanPSMT-70" x="248.984375"/>
      <use xlink:href="#TimesNewRomanPSMT-72" x="298.984375"/>
      <use xlink:href="#TimesNewRomanPSMT-6f" x="332.285156"/>
      <use xlink:href="#TimesNewRomanPSMT-78" x="382.285156"/>
      <use xlink:href="#TimesNewRomanPSMT-29" x="432.285156"/>
     </g>
    </g>
    <g id="line2d_40">
     <path d="M 627.3375 52.468861 
L 637.3375 52.468861 
L 647.3375 52.468861 
" style="fill: none; stroke: #2ca02c; stroke-width: 3; stroke-linecap: square"/>
    </g>
    <g id="text_38">
     <!-- Z (Approx) -->
     <g style="fill: #212121" transform="translate(655.3375 55.968861)scale(0.1 -0.1)">
      <use xlink:href="#TimesNewRomanPSMT-5a"/>
      <use xlink:href="#TimesNewRomanPSMT-20" x="61.083984"/>
      <use xlink:href="#TimesNewRomanPSMT-28" x="86.083984"/>
      <use xlink:href="#TimesNewRomanPSMT-41" x="119.384766"/>
      <use xlink:href="#TimesNewRomanPSMT-70" x="191.601562"/>
      <use xlink:href="#TimesNewRomanPSMT-70" x="241.601562"/>
      <use xlink:href="#TimesNewRomanPSMT-72" x="291.601562"/>
      <use xlink:href="#TimesNewRomanPSMT-6f" x="324.902344"/>
      <use xlink:href="#TimesNewRomanPSMT-78" x="374.902344"/>
      <use xlink:href="#TimesNewRomanPSMT-29" x="424.902344"/>
     </g>
    </g>
   </g>
  </g>
 </g>
 <defs>
  <clipPath id="p92ae68594e">
   <rect x="47.7375" y="11.690736" width="522.8625" height="450.196764"/>
  </clipPath>
  <clipPath id="pa1e7806e55">
   <rect x="618.3375" y="11.690736" width="522.8625" height="450.196764"/>
  </clipPath>
 </defs>
</svg>
