<?xml version="1.0" encoding="utf-8" standalone="no"?>
<!DOCTYPE svg PUBLIC "-//W3C//DTD SVG 1.1//EN"
  "http://www.w3.org/Graphics/SVG/1.1/DTD/svg11.dtd">
<svg xmlns:xlink="http://www.w3.org/1999/xlink" width="1152pt" height="504pt" viewBox="0 0 1152 504" xmlns="http://www.w3.org/2000/svg" version="1.1">
 <metadata>
  <rdf:RDF xmlns:dc="http://purl.org/dc/elements/1.1/" xmlns:cc="http://creativecommons.org/ns#" xmlns:rdf="http://www.w3.org/1999/02/22-rdf-syntax-ns#">
   <cc:Work>
    <dc:type rdf:resource="http://purl.org/dc/dcmitype/StillImage"/>
    <dc:date>2022-06-20T18:23:20.682302</dc:date>
    <dc:format>image/svg+xml</dc:format>
    <dc:creator>
     <cc:Agent>
      <dc:title>Matplotlib v3.5.2, https://matplotlib.org/</dc:title>
     </cc:Agent>
    </dc:creator>
   </cc:Work>
  </rdf:RDF>
 </metadata>
 <defs>
  <style type="text/css">*{stroke-linejoin: round; stroke-linecap: butt}</style>
 </defs>
 <g id="figure_1">
  <g id="patch_1">
   <path d="M 0 504 
L 1152 504 
L 1152 0 
L 0 0 
L 0 504 
z
" style="fill: none"/>
  </g>
  <g id="axes_1">
   <g id="patch_2">
    <path d="M 87.51 429.24 
L 564.12 429.24 
L 564.12 23.76 
L 87.51 23.76 
z
" style="fill: #ffffff"/>
   </g>
   <g id="matplotlib.axis_1">
    <g id="xtick_1">
     <g id="line2d_1">
      <defs>
       <path id="m1cc8f5256c" d="M 0 0 
L 0 3.5 
" style="stroke: #212121; stroke-width: 0.8"/>
      </defs>
      <g>
       <use xlink:href="#m1cc8f5256c" x="109.174091" y="429.24" style="fill: #212121; stroke: #212121; stroke-width: 0.8"/>
      </g>
     </g>
     <g id="text_1">
      <!-- 0.0 -->
      <g style="fill: #212121" transform="translate(95.424091 451.51625)scale(0.22 -0.22)">
       <defs>
        <path id="TimesNewRomanPSMT-30" d="M 231 2094 
Q 231 2819 450 3342 
Q 669 3866 1031 4122 
Q 1313 4325 1613 4325 
Q 2100 4325 2488 3828 
Q 2972 3213 2972 2159 
Q 2972 1422 2759 906 
Q 2547 391 2217 158 
Q 1888 -75 1581 -75 
Q 975 -75 572 641 
Q 231 1244 231 2094 
z
M 844 2016 
Q 844 1141 1059 588 
Q 1238 122 1591 122 
Q 1759 122 1940 273 
Q 2122 425 2216 781 
Q 2359 1319 2359 2297 
Q 2359 3022 2209 3506 
Q 2097 3866 1919 4016 
Q 1791 4119 1609 4119 
Q 1397 4119 1231 3928 
Q 1006 3669 925 3112 
Q 844 2556 844 2016 
z
" transform="scale(0.015625)"/>
        <path id="TimesNewRomanPSMT-2e" d="M 800 606 
Q 947 606 1047 504 
Q 1147 403 1147 259 
Q 1147 116 1045 14 
Q 944 -88 800 -88 
Q 656 -88 554 14 
Q 453 116 453 259 
Q 453 406 554 506 
Q 656 606 800 606 
z
" transform="scale(0.015625)"/>
       </defs>
       <use xlink:href="#TimesNewRomanPSMT-30"/>
       <use xlink:href="#TimesNewRomanPSMT-2e" x="50"/>
       <use xlink:href="#TimesNewRomanPSMT-30" x="75"/>
      </g>
     </g>
    </g>
    <g id="xtick_2">
     <g id="line2d_2">
      <g>
       <use xlink:href="#m1cc8f5256c" x="181.387727" y="429.24" style="fill: #212121; stroke: #212121; stroke-width: 0.8"/>
      </g>
     </g>
     <g id="text_2">
      <!-- 0.5 -->
      <g style="fill: #212121" transform="translate(167.637727 451.51625)scale(0.22 -0.22)">
       <defs>
        <path id="TimesNewRomanPSMT-35" d="M 2778 4238 
L 2534 3706 
L 1259 3706 
L 981 3138 
Q 1809 3016 2294 2522 
Q 2709 2097 2709 1522 
Q 2709 1188 2573 903 
Q 2438 619 2231 419 
Q 2025 219 1772 97 
Q 1413 -75 1034 -75 
Q 653 -75 479 54 
Q 306 184 306 341 
Q 306 428 378 495 
Q 450 563 559 563 
Q 641 563 702 538 
Q 763 513 909 409 
Q 1144 247 1384 247 
Q 1750 247 2026 523 
Q 2303 800 2303 1197 
Q 2303 1581 2056 1914 
Q 1809 2247 1375 2428 
Q 1034 2569 447 2591 
L 1259 4238 
L 2778 4238 
z
" transform="scale(0.015625)"/>
       </defs>
       <use xlink:href="#TimesNewRomanPSMT-30"/>
       <use xlink:href="#TimesNewRomanPSMT-2e" x="50"/>
       <use xlink:href="#TimesNewRomanPSMT-35" x="75"/>
      </g>
     </g>
    </g>
    <g id="xtick_3">
     <g id="line2d_3">
      <g>
       <use xlink:href="#m1cc8f5256c" x="253.601364" y="429.24" style="fill: #212121; stroke: #212121; stroke-width: 0.8"/>
      </g>
     </g>
     <g id="text_3">
      <!-- 1.0 -->
      <g style="fill: #212121" transform="translate(239.851364 451.51625)scale(0.22 -0.22)">
       <defs>
        <path id="TimesNewRomanPSMT-31" d="M 750 3822 
L 1781 4325 
L 1884 4325 
L 1884 747 
Q 1884 391 1914 303 
Q 1944 216 2037 169 
Q 2131 122 2419 116 
L 2419 0 
L 825 0 
L 825 116 
Q 1125 122 1212 167 
Q 1300 213 1334 289 
Q 1369 366 1369 747 
L 1369 3034 
Q 1369 3497 1338 3628 
Q 1316 3728 1258 3775 
Q 1200 3822 1119 3822 
Q 1003 3822 797 3725 
L 750 3822 
z
" transform="scale(0.015625)"/>
       </defs>
       <use xlink:href="#TimesNewRomanPSMT-31"/>
       <use xlink:href="#TimesNewRomanPSMT-2e" x="50"/>
       <use xlink:href="#TimesNewRomanPSMT-30" x="75"/>
      </g>
     </g>
    </g>
    <g id="xtick_4">
     <g id="line2d_4">
      <g>
       <use xlink:href="#m1cc8f5256c" x="325.815" y="429.24" style="fill: #212121; stroke: #212121; stroke-width: 0.8"/>
      </g>
     </g>
     <g id="text_4">
      <!-- 1.5 -->
      <g style="fill: #212121" transform="translate(312.065 451.51625)scale(0.22 -0.22)">
       <use xlink:href="#TimesNewRomanPSMT-31"/>
       <use xlink:href="#TimesNewRomanPSMT-2e" x="50"/>
       <use xlink:href="#TimesNewRomanPSMT-35" x="75"/>
      </g>
     </g>
    </g>
    <g id="xtick_5">
     <g id="line2d_5">
      <g>
       <use xlink:href="#m1cc8f5256c" x="398.028636" y="429.24" style="fill: #212121; stroke: #212121; stroke-width: 0.8"/>
      </g>
     </g>
     <g id="text_5">
      <!-- 2.0 -->
      <g style="fill: #212121" transform="translate(384.278636 451.51625)scale(0.22 -0.22)">
       <defs>
        <path id="TimesNewRomanPSMT-32" d="M 2934 816 
L 2638 0 
L 138 0 
L 138 116 
Q 1241 1122 1691 1759 
Q 2141 2397 2141 2925 
Q 2141 3328 1894 3587 
Q 1647 3847 1303 3847 
Q 991 3847 742 3664 
Q 494 3481 375 3128 
L 259 3128 
Q 338 3706 661 4015 
Q 984 4325 1469 4325 
Q 1984 4325 2329 3994 
Q 2675 3663 2675 3213 
Q 2675 2891 2525 2569 
Q 2294 2063 1775 1497 
Q 997 647 803 472 
L 1909 472 
Q 2247 472 2383 497 
Q 2519 522 2628 598 
Q 2738 675 2819 816 
L 2934 816 
z
" transform="scale(0.015625)"/>
       </defs>
       <use xlink:href="#TimesNewRomanPSMT-32"/>
       <use xlink:href="#TimesNewRomanPSMT-2e" x="50"/>
       <use xlink:href="#TimesNewRomanPSMT-30" x="75"/>
      </g>
     </g>
    </g>
    <g id="xtick_6">
     <g id="line2d_6">
      <g>
       <use xlink:href="#m1cc8f5256c" x="470.242273" y="429.24" style="fill: #212121; stroke: #212121; stroke-width: 0.8"/>
      </g>
     </g>
     <g id="text_6">
      <!-- 2.5 -->
      <g style="fill: #212121" transform="translate(456.492273 451.51625)scale(0.22 -0.22)">
       <use xlink:href="#TimesNewRomanPSMT-32"/>
       <use xlink:href="#TimesNewRomanPSMT-2e" x="50"/>
       <use xlink:href="#TimesNewRomanPSMT-35" x="75"/>
      </g>
     </g>
    </g>
    <g id="xtick_7">
     <g id="line2d_7">
      <g>
       <use xlink:href="#m1cc8f5256c" x="542.455909" y="429.24" style="fill: #212121; stroke: #212121; stroke-width: 0.8"/>
      </g>
     </g>
     <g id="text_7">
      <!-- 3.0 -->
      <g style="fill: #212121" transform="translate(528.705909 451.51625)scale(0.22 -0.22)">
       <defs>
        <path id="TimesNewRomanPSMT-33" d="M 325 3431 
Q 506 3859 782 4092 
Q 1059 4325 1472 4325 
Q 1981 4325 2253 3994 
Q 2459 3747 2459 3466 
Q 2459 3003 1878 2509 
Q 2269 2356 2469 2072 
Q 2669 1788 2669 1403 
Q 2669 853 2319 450 
Q 1863 -75 997 -75 
Q 569 -75 414 31 
Q 259 138 259 259 
Q 259 350 332 419 
Q 406 488 509 488 
Q 588 488 669 463 
Q 722 447 909 348 
Q 1097 250 1169 231 
Q 1284 197 1416 197 
Q 1734 197 1970 444 
Q 2206 691 2206 1028 
Q 2206 1275 2097 1509 
Q 2016 1684 1919 1775 
Q 1784 1900 1550 2001 
Q 1316 2103 1072 2103 
L 972 2103 
L 972 2197 
Q 1219 2228 1467 2375 
Q 1716 2522 1828 2728 
Q 1941 2934 1941 3181 
Q 1941 3503 1739 3701 
Q 1538 3900 1238 3900 
Q 753 3900 428 3381 
L 325 3431 
z
" transform="scale(0.015625)"/>
       </defs>
       <use xlink:href="#TimesNewRomanPSMT-33"/>
       <use xlink:href="#TimesNewRomanPSMT-2e" x="50"/>
       <use xlink:href="#TimesNewRomanPSMT-30" x="75"/>
      </g>
     </g>
    </g>
    <g id="text_8">
     <!-- Time (s) -->
     <g style="fill: #212121" transform="translate(288.629844 475.498438)scale(0.22 -0.22)">
      <defs>
       <path id="TimesNewRomanPSMT-54" d="M 3703 4238 
L 3750 3244 
L 3631 3244 
Q 3597 3506 3538 3619 
Q 3441 3800 3280 3886 
Q 3119 3972 2856 3972 
L 2259 3972 
L 2259 734 
Q 2259 344 2344 247 
Q 2463 116 2709 116 
L 2856 116 
L 2856 0 
L 1059 0 
L 1059 116 
L 1209 116 
Q 1478 116 1591 278 
Q 1659 378 1659 734 
L 1659 3972 
L 1150 3972 
Q 853 3972 728 3928 
Q 566 3869 450 3700 
Q 334 3531 313 3244 
L 194 3244 
L 244 4238 
L 3703 4238 
z
" transform="scale(0.015625)"/>
       <path id="TimesNewRomanPSMT-69" d="M 928 4444 
Q 1059 4444 1151 4351 
Q 1244 4259 1244 4128 
Q 1244 3997 1151 3903 
Q 1059 3809 928 3809 
Q 797 3809 703 3903 
Q 609 3997 609 4128 
Q 609 4259 701 4351 
Q 794 4444 928 4444 
z
M 1188 2947 
L 1188 647 
Q 1188 378 1227 289 
Q 1266 200 1342 156 
Q 1419 113 1622 113 
L 1622 0 
L 231 0 
L 231 113 
Q 441 113 512 153 
Q 584 194 626 287 
Q 669 381 669 647 
L 669 1750 
Q 669 2216 641 2353 
Q 619 2453 572 2492 
Q 525 2531 444 2531 
Q 356 2531 231 2484 
L 188 2597 
L 1050 2947 
L 1188 2947 
z
" transform="scale(0.015625)"/>
       <path id="TimesNewRomanPSMT-6d" d="M 1050 2338 
Q 1363 2650 1419 2697 
Q 1559 2816 1721 2881 
Q 1884 2947 2044 2947 
Q 2313 2947 2506 2790 
Q 2700 2634 2766 2338 
Q 3088 2713 3309 2830 
Q 3531 2947 3766 2947 
Q 3994 2947 4170 2830 
Q 4347 2713 4450 2447 
Q 4519 2266 4519 1878 
L 4519 647 
Q 4519 378 4559 278 
Q 4591 209 4675 161 
Q 4759 113 4950 113 
L 4950 0 
L 3538 0 
L 3538 113 
L 3597 113 
Q 3781 113 3884 184 
Q 3956 234 3988 344 
Q 4000 397 4000 647 
L 4000 1878 
Q 4000 2228 3916 2372 
Q 3794 2572 3525 2572 
Q 3359 2572 3192 2489 
Q 3025 2406 2788 2181 
L 2781 2147 
L 2788 2013 
L 2788 647 
Q 2788 353 2820 281 
Q 2853 209 2943 161 
Q 3034 113 3253 113 
L 3253 0 
L 1806 0 
L 1806 113 
Q 2044 113 2133 169 
Q 2222 225 2256 338 
Q 2272 391 2272 647 
L 2272 1878 
Q 2272 2228 2169 2381 
Q 2031 2581 1784 2581 
Q 1616 2581 1450 2491 
Q 1191 2353 1050 2181 
L 1050 647 
Q 1050 366 1089 281 
Q 1128 197 1204 155 
Q 1281 113 1516 113 
L 1516 0 
L 100 0 
L 100 113 
Q 297 113 375 155 
Q 453 197 493 289 
Q 534 381 534 647 
L 534 1741 
Q 534 2213 506 2350 
Q 484 2453 437 2492 
Q 391 2531 309 2531 
Q 222 2531 100 2484 
L 53 2597 
L 916 2947 
L 1050 2947 
L 1050 2338 
z
" transform="scale(0.015625)"/>
       <path id="TimesNewRomanPSMT-65" d="M 681 1784 
Q 678 1147 991 784 
Q 1303 422 1725 422 
Q 2006 422 2214 576 
Q 2422 731 2563 1106 
L 2659 1044 
Q 2594 616 2278 264 
Q 1963 -88 1488 -88 
Q 972 -88 605 314 
Q 238 716 238 1394 
Q 238 2128 614 2539 
Q 991 2950 1559 2950 
Q 2041 2950 2350 2633 
Q 2659 2316 2659 1784 
L 681 1784 
z
M 681 1966 
L 2006 1966 
Q 1991 2241 1941 2353 
Q 1863 2528 1708 2628 
Q 1553 2728 1384 2728 
Q 1125 2728 920 2526 
Q 716 2325 681 1966 
z
" transform="scale(0.015625)"/>
       <path id="TimesNewRomanPSMT-20" transform="scale(0.015625)"/>
       <path id="TimesNewRomanPSMT-28" d="M 1988 -1253 
L 1988 -1369 
Q 1516 -1131 1200 -813 
Q 750 -359 506 256 
Q 263 872 263 1534 
Q 263 2503 741 3301 
Q 1219 4100 1988 4444 
L 1988 4313 
Q 1603 4100 1356 3731 
Q 1109 3363 987 2797 
Q 866 2231 866 1616 
Q 866 947 969 400 
Q 1050 -31 1165 -292 
Q 1281 -553 1476 -793 
Q 1672 -1034 1988 -1253 
z
" transform="scale(0.015625)"/>
       <path id="TimesNewRomanPSMT-73" d="M 2050 2947 
L 2050 1972 
L 1947 1972 
Q 1828 2431 1642 2597 
Q 1456 2763 1169 2763 
Q 950 2763 815 2647 
Q 681 2531 681 2391 
Q 681 2216 781 2091 
Q 878 1963 1175 1819 
L 1631 1597 
Q 2266 1288 2266 781 
Q 2266 391 1970 151 
Q 1675 -88 1309 -88 
Q 1047 -88 709 6 
Q 606 38 541 38 
Q 469 38 428 -44 
L 325 -44 
L 325 978 
L 428 978 
Q 516 541 762 319 
Q 1009 97 1316 97 
Q 1531 97 1667 223 
Q 1803 350 1803 528 
Q 1803 744 1651 891 
Q 1500 1038 1047 1263 
Q 594 1488 453 1669 
Q 313 1847 313 2119 
Q 313 2472 555 2709 
Q 797 2947 1181 2947 
Q 1350 2947 1591 2875 
Q 1750 2828 1803 2828 
Q 1853 2828 1881 2850 
Q 1909 2872 1947 2947 
L 2050 2947 
z
" transform="scale(0.015625)"/>
       <path id="TimesNewRomanPSMT-29" d="M 144 4313 
L 144 4444 
Q 619 4209 934 3891 
Q 1381 3434 1625 2820 
Q 1869 2206 1869 1541 
Q 1869 572 1392 -226 
Q 916 -1025 144 -1369 
L 144 -1253 
Q 528 -1038 776 -670 
Q 1025 -303 1145 264 
Q 1266 831 1266 1447 
Q 1266 2113 1163 2663 
Q 1084 3094 967 3353 
Q 850 3613 656 3853 
Q 463 4094 144 4313 
z
" transform="scale(0.015625)"/>
      </defs>
      <use xlink:href="#TimesNewRomanPSMT-54"/>
      <use xlink:href="#TimesNewRomanPSMT-69" x="57.583984"/>
      <use xlink:href="#TimesNewRomanPSMT-6d" x="85.367188"/>
      <use xlink:href="#TimesNewRomanPSMT-65" x="163.150391"/>
      <use xlink:href="#TimesNewRomanPSMT-20" x="207.535156"/>
      <use xlink:href="#TimesNewRomanPSMT-28" x="232.535156"/>
      <use xlink:href="#TimesNewRomanPSMT-73" x="265.835938"/>
      <use xlink:href="#TimesNewRomanPSMT-29" x="304.751953"/>
     </g>
    </g>
   </g>
   <g id="matplotlib.axis_2">
    <g id="ytick_1">
     <g id="line2d_8">
      <defs>
       <path id="md6f37ec066" d="M 0 0 
L -3.5 0 
" style="stroke: #212121; stroke-width: 0.8"/>
      </defs>
      <g>
       <use xlink:href="#md6f37ec066" x="87.51" y="423.068002" style="fill: #212121; stroke: #212121; stroke-width: 0.8"/>
      </g>
     </g>
     <g id="text_9">
      <!-- 0 -->
      <g style="fill: #212121" transform="translate(69.51 430.706127)scale(0.22 -0.22)">
       <use xlink:href="#TimesNewRomanPSMT-30"/>
      </g>
     </g>
    </g>
    <g id="ytick_2">
     <g id="line2d_9">
      <g>
       <use xlink:href="#md6f37ec066" x="87.51" y="352.936773" style="fill: #212121; stroke: #212121; stroke-width: 0.8"/>
      </g>
     </g>
     <g id="text_10">
      <!-- 50 -->
      <g style="fill: #212121" transform="translate(58.51 360.574898)scale(0.22 -0.22)">
       <use xlink:href="#TimesNewRomanPSMT-35"/>
       <use xlink:href="#TimesNewRomanPSMT-30" x="50"/>
      </g>
     </g>
    </g>
    <g id="ytick_3">
     <g id="line2d_10">
      <g>
       <use xlink:href="#md6f37ec066" x="87.51" y="282.805544" style="fill: #212121; stroke: #212121; stroke-width: 0.8"/>
      </g>
     </g>
     <g id="text_11">
      <!-- 100 -->
      <g style="fill: #212121" transform="translate(47.51 290.443669)scale(0.22 -0.22)">
       <use xlink:href="#TimesNewRomanPSMT-31"/>
       <use xlink:href="#TimesNewRomanPSMT-30" x="50"/>
       <use xlink:href="#TimesNewRomanPSMT-30" x="100"/>
      </g>
     </g>
    </g>
    <g id="ytick_4">
     <g id="line2d_11">
      <g>
       <use xlink:href="#md6f37ec066" x="87.51" y="212.674316" style="fill: #212121; stroke: #212121; stroke-width: 0.8"/>
      </g>
     </g>
     <g id="text_12">
      <!-- 150 -->
      <g style="fill: #212121" transform="translate(47.51 220.312441)scale(0.22 -0.22)">
       <use xlink:href="#TimesNewRomanPSMT-31"/>
       <use xlink:href="#TimesNewRomanPSMT-35" x="50"/>
       <use xlink:href="#TimesNewRomanPSMT-30" x="100"/>
      </g>
     </g>
    </g>
    <g id="ytick_5">
     <g id="line2d_12">
      <g>
       <use xlink:href="#md6f37ec066" x="87.51" y="142.543087" style="fill: #212121; stroke: #212121; stroke-width: 0.8"/>
      </g>
     </g>
     <g id="text_13">
      <!-- 200 -->
      <g style="fill: #212121" transform="translate(47.51 150.181212)scale(0.22 -0.22)">
       <use xlink:href="#TimesNewRomanPSMT-32"/>
       <use xlink:href="#TimesNewRomanPSMT-30" x="50"/>
       <use xlink:href="#TimesNewRomanPSMT-30" x="100"/>
      </g>
     </g>
    </g>
    <g id="ytick_6">
     <g id="line2d_13">
      <g>
       <use xlink:href="#md6f37ec066" x="87.51" y="72.411858" style="fill: #212121; stroke: #212121; stroke-width: 0.8"/>
      </g>
     </g>
     <g id="text_14">
      <!-- 250 -->
      <g style="fill: #212121" transform="translate(47.51 80.049983)scale(0.22 -0.22)">
       <use xlink:href="#TimesNewRomanPSMT-32"/>
       <use xlink:href="#TimesNewRomanPSMT-35" x="50"/>
       <use xlink:href="#TimesNewRomanPSMT-30" x="100"/>
      </g>
     </g>
    </g>
    <g id="text_15">
     <!-- Landmark Coordinate (mm) -->
     <g style="fill: #212121" transform="translate(38.804063 350.518125)rotate(-90)scale(0.22 -0.22)">
      <defs>
       <path id="TimesNewRomanPSMT-4c" d="M 3669 1172 
L 3772 1150 
L 3409 0 
L 128 0 
L 128 116 
L 288 116 
Q 556 116 672 291 
Q 738 391 738 753 
L 738 3488 
Q 738 3884 650 3984 
Q 528 4122 288 4122 
L 128 4122 
L 128 4238 
L 2047 4238 
L 2047 4122 
Q 1709 4125 1573 4059 
Q 1438 3994 1388 3894 
Q 1338 3794 1338 3416 
L 1338 753 
Q 1338 494 1388 397 
Q 1425 331 1503 300 
Q 1581 269 1991 269 
L 2300 269 
Q 2788 269 2984 341 
Q 3181 413 3343 595 
Q 3506 778 3669 1172 
z
" transform="scale(0.015625)"/>
       <path id="TimesNewRomanPSMT-61" d="M 1822 413 
Q 1381 72 1269 19 
Q 1100 -59 909 -59 
Q 613 -59 420 144 
Q 228 347 228 678 
Q 228 888 322 1041 
Q 450 1253 767 1440 
Q 1084 1628 1822 1897 
L 1822 2009 
Q 1822 2438 1686 2597 
Q 1550 2756 1291 2756 
Q 1094 2756 978 2650 
Q 859 2544 859 2406 
L 866 2225 
Q 866 2081 792 2003 
Q 719 1925 600 1925 
Q 484 1925 411 2006 
Q 338 2088 338 2228 
Q 338 2497 613 2722 
Q 888 2947 1384 2947 
Q 1766 2947 2009 2819 
Q 2194 2722 2281 2516 
Q 2338 2381 2338 1966 
L 2338 994 
Q 2338 584 2353 492 
Q 2369 400 2405 369 
Q 2441 338 2488 338 
Q 2538 338 2575 359 
Q 2641 400 2828 588 
L 2828 413 
Q 2478 -56 2159 -56 
Q 2006 -56 1915 50 
Q 1825 156 1822 413 
z
M 1822 616 
L 1822 1706 
Q 1350 1519 1213 1441 
Q 966 1303 859 1153 
Q 753 1003 753 825 
Q 753 600 887 451 
Q 1022 303 1197 303 
Q 1434 303 1822 616 
z
" transform="scale(0.015625)"/>
       <path id="TimesNewRomanPSMT-6e" d="M 1034 2341 
Q 1538 2947 1994 2947 
Q 2228 2947 2397 2830 
Q 2566 2713 2666 2444 
Q 2734 2256 2734 1869 
L 2734 647 
Q 2734 375 2778 278 
Q 2813 200 2889 156 
Q 2966 113 3172 113 
L 3172 0 
L 1756 0 
L 1756 113 
L 1816 113 
Q 2016 113 2095 173 
Q 2175 234 2206 353 
Q 2219 400 2219 647 
L 2219 1819 
Q 2219 2209 2117 2386 
Q 2016 2563 1775 2563 
Q 1403 2563 1034 2156 
L 1034 647 
Q 1034 356 1069 288 
Q 1113 197 1189 155 
Q 1266 113 1500 113 
L 1500 0 
L 84 0 
L 84 113 
L 147 113 
Q 366 113 442 223 
Q 519 334 519 647 
L 519 1709 
Q 519 2225 495 2337 
Q 472 2450 423 2490 
Q 375 2531 294 2531 
Q 206 2531 84 2484 
L 38 2597 
L 900 2947 
L 1034 2947 
L 1034 2341 
z
" transform="scale(0.015625)"/>
       <path id="TimesNewRomanPSMT-64" d="M 2222 322 
Q 2013 103 1813 7 
Q 1613 -88 1381 -88 
Q 913 -88 563 304 
Q 213 697 213 1313 
Q 213 1928 600 2439 
Q 988 2950 1597 2950 
Q 1975 2950 2222 2709 
L 2222 3238 
Q 2222 3728 2198 3840 
Q 2175 3953 2125 3993 
Q 2075 4034 2000 4034 
Q 1919 4034 1784 3984 
L 1744 4094 
L 2597 4444 
L 2738 4444 
L 2738 1134 
Q 2738 631 2761 520 
Q 2784 409 2836 365 
Q 2888 322 2956 322 
Q 3041 322 3181 375 
L 3216 266 
L 2366 -88 
L 2222 -88 
L 2222 322 
z
M 2222 541 
L 2222 2016 
Q 2203 2228 2109 2403 
Q 2016 2578 1861 2667 
Q 1706 2756 1559 2756 
Q 1284 2756 1069 2509 
Q 784 2184 784 1559 
Q 784 928 1059 592 
Q 1334 256 1672 256 
Q 1956 256 2222 541 
z
" transform="scale(0.015625)"/>
       <path id="TimesNewRomanPSMT-72" d="M 1038 2947 
L 1038 2303 
Q 1397 2947 1775 2947 
Q 1947 2947 2059 2842 
Q 2172 2738 2172 2600 
Q 2172 2478 2090 2393 
Q 2009 2309 1897 2309 
Q 1788 2309 1652 2417 
Q 1516 2525 1450 2525 
Q 1394 2525 1328 2463 
Q 1188 2334 1038 2041 
L 1038 669 
Q 1038 431 1097 309 
Q 1138 225 1241 169 
Q 1344 113 1538 113 
L 1538 0 
L 72 0 
L 72 113 
Q 291 113 397 181 
Q 475 231 506 341 
Q 522 394 522 644 
L 522 1753 
Q 522 2253 501 2348 
Q 481 2444 426 2487 
Q 372 2531 291 2531 
Q 194 2531 72 2484 
L 41 2597 
L 906 2947 
L 1038 2947 
z
" transform="scale(0.015625)"/>
       <path id="TimesNewRomanPSMT-6b" d="M 1047 4444 
L 1047 1597 
L 1775 2259 
Q 2006 2472 2044 2528 
Q 2069 2566 2069 2603 
Q 2069 2666 2017 2711 
Q 1966 2756 1847 2763 
L 1847 2863 
L 3091 2863 
L 3091 2763 
Q 2834 2756 2664 2684 
Q 2494 2613 2291 2428 
L 1556 1750 
L 2291 822 
Q 2597 438 2703 334 
Q 2853 188 2966 144 
Q 3044 113 3238 113 
L 3238 0 
L 1847 0 
L 1847 113 
Q 1966 116 2008 148 
Q 2050 181 2050 241 
Q 2050 313 1925 472 
L 1047 1594 
L 1047 644 
Q 1047 366 1086 278 
Q 1125 191 1197 153 
Q 1269 116 1509 113 
L 1509 0 
L 53 0 
L 53 113 
Q 272 113 381 166 
Q 447 200 481 272 
Q 528 375 528 628 
L 528 3234 
Q 528 3731 506 3842 
Q 484 3953 434 3995 
Q 384 4038 303 4038 
Q 238 4038 106 3984 
L 53 4094 
L 903 4444 
L 1047 4444 
z
" transform="scale(0.015625)"/>
       <path id="TimesNewRomanPSMT-43" d="M 3853 4334 
L 3950 2894 
L 3853 2894 
Q 3659 3541 3300 3825 
Q 2941 4109 2438 4109 
Q 2016 4109 1675 3895 
Q 1334 3681 1139 3212 
Q 944 2744 944 2047 
Q 944 1472 1128 1050 
Q 1313 628 1683 403 
Q 2053 178 2528 178 
Q 2941 178 3256 354 
Q 3572 531 3950 1056 
L 4047 994 
Q 3728 428 3303 165 
Q 2878 -97 2294 -97 
Q 1241 -97 663 684 
Q 231 1266 231 2053 
Q 231 2688 515 3219 
Q 800 3750 1298 4042 
Q 1797 4334 2388 4334 
Q 2847 4334 3294 4109 
Q 3425 4041 3481 4041 
Q 3566 4041 3628 4100 
Q 3709 4184 3744 4334 
L 3853 4334 
z
" transform="scale(0.015625)"/>
       <path id="TimesNewRomanPSMT-6f" d="M 1600 2947 
Q 2250 2947 2644 2453 
Q 2978 2031 2978 1484 
Q 2978 1100 2793 706 
Q 2609 313 2286 112 
Q 1963 -88 1566 -88 
Q 919 -88 538 428 
Q 216 863 216 1403 
Q 216 1797 411 2186 
Q 606 2575 925 2761 
Q 1244 2947 1600 2947 
z
M 1503 2744 
Q 1338 2744 1170 2645 
Q 1003 2547 900 2300 
Q 797 2053 797 1666 
Q 797 1041 1045 587 
Q 1294 134 1700 134 
Q 2003 134 2200 384 
Q 2397 634 2397 1244 
Q 2397 2006 2069 2444 
Q 1847 2744 1503 2744 
z
" transform="scale(0.015625)"/>
       <path id="TimesNewRomanPSMT-74" d="M 1031 3803 
L 1031 2863 
L 1700 2863 
L 1700 2644 
L 1031 2644 
L 1031 788 
Q 1031 509 1111 412 
Q 1191 316 1316 316 
Q 1419 316 1516 380 
Q 1613 444 1666 569 
L 1788 569 
Q 1678 263 1478 108 
Q 1278 -47 1066 -47 
Q 922 -47 784 33 
Q 647 113 581 261 
Q 516 409 516 719 
L 516 2644 
L 63 2644 
L 63 2747 
Q 234 2816 414 2980 
Q 594 3144 734 3369 
Q 806 3488 934 3803 
L 1031 3803 
z
" transform="scale(0.015625)"/>
      </defs>
      <use xlink:href="#TimesNewRomanPSMT-4c"/>
      <use xlink:href="#TimesNewRomanPSMT-61" x="61.083984"/>
      <use xlink:href="#TimesNewRomanPSMT-6e" x="105.46875"/>
      <use xlink:href="#TimesNewRomanPSMT-64" x="155.46875"/>
      <use xlink:href="#TimesNewRomanPSMT-6d" x="205.46875"/>
      <use xlink:href="#TimesNewRomanPSMT-61" x="283.251953"/>
      <use xlink:href="#TimesNewRomanPSMT-72" x="327.636719"/>
      <use xlink:href="#TimesNewRomanPSMT-6b" x="360.9375"/>
      <use xlink:href="#TimesNewRomanPSMT-20" x="410.9375"/>
      <use xlink:href="#TimesNewRomanPSMT-43" x="435.9375"/>
      <use xlink:href="#TimesNewRomanPSMT-6f" x="502.636719"/>
      <use xlink:href="#TimesNewRomanPSMT-6f" x="552.636719"/>
      <use xlink:href="#TimesNewRomanPSMT-72" x="602.636719"/>
      <use xlink:href="#TimesNewRomanPSMT-64" x="635.9375"/>
      <use xlink:href="#TimesNewRomanPSMT-69" x="685.9375"/>
      <use xlink:href="#TimesNewRomanPSMT-6e" x="713.720703"/>
      <use xlink:href="#TimesNewRomanPSMT-61" x="763.720703"/>
      <use xlink:href="#TimesNewRomanPSMT-74" x="808.105469"/>
      <use xlink:href="#TimesNewRomanPSMT-65" x="835.888672"/>
      <use xlink:href="#TimesNewRomanPSMT-20" x="880.273438"/>
      <use xlink:href="#TimesNewRomanPSMT-28" x="905.273438"/>
      <use xlink:href="#TimesNewRomanPSMT-6d" x="938.574219"/>
      <use xlink:href="#TimesNewRomanPSMT-6d" x="1016.357422"/>
      <use xlink:href="#TimesNewRomanPSMT-29" x="1094.140625"/>
     </g>
    </g>
   </g>
   <g id="line2d_14">
    <path d="M 109.174091 358.344732 
L 151.445488 358.296482 
L 156.729412 358.138827 
L 162.013337 357.612562 
L 173.902167 356.239252 
L 175.223149 356.196753 
L 176.54413 356.289046 
L 177.865111 356.515008 
L 180.507073 357.407218 
L 181.828054 358.107408 
L 183.149035 359.009576 
L 185.790998 360.981105 
L 187.111979 361.983 
L 189.753941 363.264859 
L 191.074922 364.114709 
L 192.395904 364.562427 
L 195.037866 364.668185 
L 196.358847 365.484652 
L 197.679828 366.934545 
L 199.000809 368.79148 
L 201.642772 371.731802 
L 204.284734 374.519098 
L 205.605715 375.592246 
L 206.926696 375.666304 
L 208.247677 377.19797 
L 214.852583 380.710002 
L 216.173564 381.160946 
L 218.815527 381.750469 
L 220.136508 382.294407 
L 221.457489 382.524016 
L 222.77847 383.800545 
L 224.099451 384.638333 
L 225.420432 385.870538 
L 226.741414 386.654044 
L 241.272206 396.80035 
L 245.23515 398.75084 
L 246.556131 399.227592 
L 247.877112 399.583718 
L 249.198093 401.293237 
L 251.840055 402.05921 
L 254.482018 402.473826 
L 255.802999 403.101781 
L 257.12398 404.158378 
L 261.086924 405.720201 
L 263.728886 406.336374 
L 265.049867 406.583516 
L 269.01281 406.950723 
L 270.333792 407.267015 
L 272.975754 407.358747 
L 279.58066 407.896513 
L 280.901641 408.053046 
L 283.543603 408.717048 
L 286.185565 409.347823 
L 287.506547 409.640578 
L 294.111452 410.428783 
L 300.716358 410.689377 
L 302.037339 410.63201 
L 303.35832 410.809091 
L 307.321264 410.278955 
L 308.642245 409.86058 
L 309.963226 409.322028 
L 311.284207 408.534567 
L 312.605188 407.913204 
L 313.92617 406.754917 
L 315.247151 406.137902 
L 316.568132 404.862075 
L 317.889113 404.310002 
L 320.531075 402.722091 
L 321.852057 402.607777 
L 324.494019 401.035014 
L 325.815 400.299618 
L 327.135981 399.939564 
L 329.777943 397.599145 
L 331.098925 396.443803 
L 335.061868 393.648091 
L 336.382849 393.092933 
L 337.70383 393.019716 
L 339.024812 392.228776 
L 340.345793 391.610358 
L 341.666774 390.864443 
L 342.987755 390.297923 
L 345.629717 389.002459 
L 346.950698 388.343786 
L 348.27168 387.868156 
L 352.234623 386.755174 
L 356.197567 385.36377 
L 358.839529 384.476189 
L 362.802472 382.294547 
L 366.765416 381.683283 
L 369.407378 380.985618 
L 372.04934 380.747312 
L 374.691303 380.098738 
L 376.012284 379.603752 
L 377.333265 378.527378 
L 378.654246 377.950899 
L 379.975227 377.566019 
L 381.296208 376.880416 
L 383.938171 375.834339 
L 385.259152 376.040244 
L 386.580133 376.098313 
L 387.901114 376.039402 
L 389.222095 375.074256 
L 390.543076 374.459907 
L 395.827001 372.833423 
L 397.147982 371.983433 
L 398.468963 371.306666 
L 399.789945 371.026983 
L 401.110926 370.863297 
L 402.431907 371.12166 
L 406.39485 373.213394 
L 409.036813 374.023691 
L 414.320737 374.154135 
L 418.283681 374.165075 
L 419.604662 375.401489 
L 420.925643 375.97965 
L 423.567605 373.288154 
L 424.888586 372.539714 
L 426.209568 372.091295 
L 428.85153 371.610755 
L 432.814473 371.214654 
L 439.419379 370.871152 
L 456.592134 370.211918 
L 459.234096 369.990584 
L 465.839002 369.764761 
L 473.764889 369.672328 
L 476.406851 369.72689 
L 477.727833 370.359053 
L 479.048814 370.611385 
L 480.369795 370.719388 
L 494.900588 370.733975 
L 498.863531 371.161916 
L 501.505493 371.583545 
L 504.147456 372.725702 
L 506.789418 374.230017 
L 508.110399 374.789944 
L 510.752361 375.48761 
L 517.357267 377.013525 
L 521.320211 377.430105 
L 531.88806 377.923688 
L 542.455909 378.088917 
L 542.455909 378.088917 
" clip-path="url(#pcdc1c85519)" style="fill: none; stroke: #1f77b4; stroke-width: 3; stroke-linecap: square"/>
   </g>
   <g id="line2d_15">
    <path d="M 109.174091 201.541684 
L 151.445488 202.053642 
L 155.408431 202.018577 
L 158.050394 201.858677 
L 160.692356 201.548697 
L 164.655299 200.819333 
L 169.939224 199.656557 
L 172.581186 198.854256 
L 175.223149 197.396929 
L 177.865111 195.01948 
L 179.186092 193.622466 
L 183.149035 188.505692 
L 184.470017 186.331623 
L 185.790998 185.178666 
L 187.111979 183.515153 
L 191.074922 177.319761 
L 192.395904 175.445854 
L 193.716885 175.839992 
L 195.037866 175.971838 
L 196.358847 175.917136 
L 197.679828 175.297176 
L 200.32179 173.332099 
L 201.642772 171.74012 
L 202.963753 169.198564 
L 204.284734 164.886896 
L 205.605715 159.326893 
L 208.247677 151.810227 
L 209.568659 149.306543 
L 210.88964 147.58412 
L 212.210621 146.338589 
L 213.531602 143.003148 
L 214.852583 140.447566 
L 216.173564 139.202035 
L 217.494545 134.670155 
L 218.815527 126.074872 
L 220.136508 124.109795 
L 221.457489 123.582408 
L 222.77847 117.884947 
L 224.099451 116.274734 
L 225.420432 110.913903 
L 226.741414 109.441147 
L 228.062395 104.928904 
L 229.383376 100.827629 
L 230.704357 97.336497 
L 232.025338 94.709381 
L 233.346319 92.417492 
L 234.6673 89.574372 
L 235.988282 86.055187 
L 237.309263 83.286406 
L 238.630244 81.13478 
L 239.951225 77.797937 
L 241.272206 75.339136 
L 242.593187 73.448398 
L 243.914169 72.087852 
L 245.23515 70.34439 
L 247.877112 67.769171 
L 249.198093 61.662143 
L 250.519074 61.196472 
L 251.840055 60.482536 
L 253.161037 59.605896 
L 254.482018 58.936844 
L 255.802999 57.201797 
L 257.12398 54.700918 
L 258.444961 53.155225 
L 259.765942 50.483226 
L 261.086924 48.990833 
L 263.728886 47.226331 
L 265.049867 46.522214 
L 267.691829 45.54739 
L 270.333792 43.435037 
L 271.654773 43.220436 
L 274.296735 42.583644 
L 276.938697 42.223169 
L 279.58066 42.221767 
L 280.901641 42.259638 
L 282.222622 42.70427 
L 283.543603 43.847409 
L 284.864584 44.637086 
L 286.185565 46.53624 
L 287.506547 47.170226 
L 288.827528 48.532175 
L 290.148509 50.612267 
L 291.46949 51.808706 
L 292.790471 53.775185 
L 294.111452 53.671391 
L 295.432433 55.23111 
L 298.074396 58.037762 
L 299.395377 61.171225 
L 300.716358 63.969461 
L 302.037339 64.66376 
L 303.35832 66.687747 
L 304.679302 68.145074 
L 306.000283 71.495944 
L 307.321264 75.201678 
L 308.642245 78.302881 
L 309.963226 81.04922 
L 311.284207 84.140605 
L 312.605188 85.865833 
L 321.852057 106.48722 
L 323.173038 110.317787 
L 324.494019 113.672865 
L 327.135981 118.583454 
L 329.777943 124.043871 
L 331.098925 127.220816 
L 333.740887 132.679831 
L 336.382849 138.562438 
L 337.70383 140.976355 
L 339.024812 143.841917 
L 344.308736 154.17926 
L 345.629717 156.748869 
L 348.27168 161.205007 
L 349.592661 163.231799 
L 353.555604 170.200038 
L 356.197567 174.476641 
L 358.839529 178.81075 
L 360.16051 180.498108 
L 361.481491 182.926051 
L 362.802472 184.327273 
L 364.123453 185.470412 
L 368.086397 190.411858 
L 369.407378 192.668681 
L 370.728359 195.32385 
L 372.04934 197.626959 
L 373.370322 198.148735 
L 374.691303 199.760351 
L 377.333265 204.743876 
L 378.654246 206.788903 
L 379.975227 208.143838 
L 382.61719 214.896073 
L 383.938171 217.37451 
L 386.580133 218.820616 
L 387.901114 219.75757 
L 394.50602 223.736816 
L 395.827001 224.222124 
L 397.147982 227.777777 
L 398.468963 228.870422 
L 399.789945 229.322067 
L 401.110926 229.58576 
L 405.073869 231.677073 
L 406.39485 232.583169 
L 407.715831 233.159647 
L 409.036813 233.580435 
L 410.357794 235.984533 
L 411.678775 237.48955 
L 412.999756 238.249772 
L 414.320737 238.880953 
L 418.283681 239.324182 
L 419.604662 239.927311 
L 420.925643 240.160147 
L 422.246624 240.683326 
L 423.567605 241.339754 
L 426.209568 241.711449 
L 431.493492 241.90922 
L 443.382323 242.056495 
L 448.666247 242.087353 
L 453.950172 241.764749 
L 457.913115 241.516485 
L 464.518021 241.022761 
L 472.443908 240.742236 
L 476.406851 240.791328 
L 477.727833 241.195284 
L 480.369795 241.72267 
L 485.65372 241.666565 
L 486.974701 241.857322 
L 488.295682 241.885375 
L 489.616663 242.069119 
L 490.937644 242.111197 
L 492.258625 242.272499 
L 497.54255 242.366475 
L 498.863531 242.435204 
L 500.184512 242.806899 
L 502.826475 243.220674 
L 505.468437 243.337091 
L 508.110399 243.383378 
L 523.962173 243.43808 
L 526.604135 243.536264 
L 542.455909 243.649877 
L 542.455909 243.649877 
" clip-path="url(#pcdc1c85519)" style="fill: none; stroke: #ff7f0e; stroke-width: 3; stroke-linecap: square"/>
   </g>
   <g id="line2d_16">
    <path d="M 109.174091 353.905987 
L 158.050394 354.120308 
L 162.013337 354.265199 
L 165.97628 354.612068 
L 172.581186 355.155304 
L 175.223149 355.497264 
L 180.507073 355.811452 
L 183.149035 356.897083 
L 184.470017 357.622661 
L 185.790998 358.207135 
L 187.111979 359.17747 
L 189.753941 361.841475 
L 191.074922 362.916868 
L 192.395904 363.396425 
L 193.716885 363.434576 
L 195.037866 363.636554 
L 197.679828 365.783832 
L 199.000809 366.476448 
L 200.32179 366.883069 
L 201.642772 367.044371 
L 202.963753 366.939174 
L 205.605715 367.656476 
L 206.926696 369.56124 
L 208.247677 369.916245 
L 209.568659 369.73208 
L 212.210621 370.249789 
L 213.531602 370.679693 
L 214.852583 371.392086 
L 216.173564 371.74162 
L 217.494545 372.214024 
L 218.815527 371.80558 
L 221.457489 371.685796 
L 222.77847 370.710691 
L 224.099451 370.279244 
L 225.420432 369.507099 
L 226.741414 369.430516 
L 228.062395 368.658371 
L 232.025338 367.556469 
L 233.346319 367.808942 
L 237.309263 366.250345 
L 238.630244 365.816513 
L 241.272206 364.828084 
L 242.593187 364.366761 
L 246.556131 363.9067 
L 247.877112 363.617619 
L 249.198093 361.87093 
L 250.519074 361.716782 
L 254.482018 360.560739 
L 255.802999 360.964975 
L 257.12398 361.996465 
L 258.444961 362.30883 
L 259.765942 362.9661 
L 261.086924 363.434296 
L 262.407905 363.66082 
L 265.049867 363.557586 
L 267.691829 363.177756 
L 269.01281 362.660468 
L 270.333792 362.587672 
L 271.654773 362.643636 
L 276.938697 362.174599 
L 280.901641 362.097595 
L 282.222622 362.233649 
L 283.543603 362.699882 
L 284.864584 362.964136 
L 286.185565 363.718047 
L 287.506547 363.837971 
L 288.827528 364.207282 
L 290.148509 364.726534 
L 291.46949 365.008742 
L 292.790471 365.604156 
L 294.111452 365.447483 
L 298.074396 366.702692 
L 299.395377 367.935599 
L 300.716358 368.829211 
L 302.037339 368.912947 
L 303.35832 369.360104 
L 304.679302 369.441877 
L 306.000283 369.667559 
L 307.321264 370.326372 
L 308.642245 370.797373 
L 311.284207 370.961481 
L 312.605188 370.440967 
L 313.92617 369.71062 
L 315.247151 369.421679 
L 316.568132 368.178954 
L 317.889113 367.711599 
L 319.210094 367.420274 
L 320.531075 367.25252 
L 321.852057 367.615099 
L 323.173038 367.681443 
L 325.815 367.351686 
L 327.135981 367.616361 
L 331.098925 365.987072 
L 332.419906 365.513967 
L 333.740887 365.167238 
L 335.061868 364.590619 
L 336.382849 364.256935 
L 337.70383 364.32917 
L 339.024812 364.103909 
L 345.629717 361.598962 
L 350.913642 360.313316 
L 354.876585 358.571256 
L 357.518548 357.299216 
L 358.839529 356.504489 
L 360.16051 356.006697 
L 361.481491 355.385335 
L 362.802472 355.101724 
L 364.123453 355.001857 
L 366.765416 354.201099 
L 368.086397 353.671468 
L 369.407378 352.793425 
L 372.04934 350.692714 
L 373.370322 350.063076 
L 374.691303 349.202145 
L 376.012284 348.159574 
L 377.333265 347.291349 
L 379.975227 345.985085 
L 382.61719 343.470039 
L 383.938171 342.613316 
L 385.259152 342.402081 
L 386.580133 341.949173 
L 387.901114 341.358107 
L 390.543076 340.821463 
L 391.864058 340.310206 
L 393.185039 339.919716 
L 394.50602 339.369185 
L 395.827001 339.08852 
L 397.147982 336.694801 
L 402.431907 336.442469 
L 405.073869 335.734424 
L 406.39485 335.233266 
L 409.036813 334.674461 
L 410.357794 333.035634 
L 411.678775 332.009194 
L 414.320737 331.060599 
L 418.283681 330.757912 
L 419.604662 330.13711 
L 423.567605 329.568066 
L 427.530549 329.753072 
L 436.777417 329.88548 
L 449.987228 330.075535 
L 453.950172 330.379484 
L 457.913115 330.678383 
L 460.555078 330.809108 
L 472.443908 331.026655 
L 476.406851 330.963817 
L 477.727833 330.154503 
L 479.048814 329.708609 
L 480.369795 329.449404 
L 484.332738 329.534403 
L 485.65372 329.605095 
L 488.295682 329.560071 
L 492.258625 329.582372 
L 493.579606 329.688271 
L 497.54255 329.491062 
L 498.863531 329.384182 
L 500.184512 329.115298 
L 501.505493 328.972652 
L 506.789418 327.916335 
L 509.43138 327.606495 
L 512.073343 327.409707 
L 514.715305 327.28824 
L 517.357267 327.098465 
L 526.604135 326.923137 
L 541.134928 326.712182 
L 542.455909 326.793815 
L 542.455909 326.793815 
" clip-path="url(#pcdc1c85519)" style="fill: none; stroke: #2ca02c; stroke-width: 3; stroke-linecap: square"/>
   </g>
   <g id="patch_3">
    <path d="M 87.51 429.24 
L 87.51 23.76 
" style="fill: none; stroke: #212121; stroke-width: 0.8; stroke-linejoin: miter; stroke-linecap: square"/>
   </g>
   <g id="patch_4">
    <path d="M 564.12 429.24 
L 564.12 23.76 
" style="fill: none; stroke: #212121; stroke-width: 0.8; stroke-linejoin: miter; stroke-linecap: square"/>
   </g>
   <g id="patch_5">
    <path d="M 87.51 429.24 
L 564.12 429.24 
" style="fill: none; stroke: #212121; stroke-width: 0.8; stroke-linejoin: miter; stroke-linecap: square"/>
   </g>
   <g id="patch_6">
    <path d="M 87.51 23.76 
L 564.12 23.76 
" style="fill: none; stroke: #212121; stroke-width: 0.8; stroke-linejoin: miter; stroke-linecap: square"/>
   </g>
   <g id="legend_1">
    <g id="line2d_17">
     <path d="M 466.831875 51.26 
L 488.831875 51.26 
L 510.831875 51.26 
" style="fill: none; stroke: #1f77b4; stroke-width: 3; stroke-linecap: square"/>
    </g>
    <g id="text_16">
     <!-- X -->
     <g style="fill: #212121" transform="translate(528.431875 58.96)scale(0.22 -0.22)">
      <defs>
       <path id="TimesNewRomanPSMT-58" d="M 2613 2347 
L 3522 991 
Q 3900 428 4083 279 
Q 4266 131 4547 116 
L 4547 0 
L 2728 0 
L 2728 116 
Q 2909 119 2997 153 
Q 3063 181 3105 239 
Q 3147 297 3147 356 
Q 3147 428 3119 500 
Q 3097 553 2947 775 
L 2228 1863 
L 1341 725 
Q 1200 544 1172 483 
Q 1144 422 1144 356 
Q 1144 256 1228 190 
Q 1313 125 1550 116 
L 1550 0 
L 47 0 
L 47 116 
Q 206 131 322 181 
Q 516 263 691 400 
Q 866 538 1091 822 
L 2091 2084 
L 1256 3306 
Q 916 3803 678 3958 
Q 441 4113 131 4122 
L 131 4238 
L 2091 4238 
L 2091 4122 
Q 1841 4113 1748 4041 
Q 1656 3969 1656 3881 
Q 1656 3766 1806 3544 
L 2456 2572 
L 3209 3525 
Q 3341 3694 3370 3756 
Q 3400 3819 3400 3884 
Q 3400 3950 3363 4000 
Q 3316 4066 3244 4092 
Q 3172 4119 2947 4122 
L 2947 4238 
L 4450 4238 
L 4450 4122 
Q 4272 4113 4159 4066 
Q 3991 3994 3850 3872 
Q 3709 3750 3453 3422 
L 2613 2347 
z
" transform="scale(0.015625)"/>
      </defs>
      <use xlink:href="#TimesNewRomanPSMT-58"/>
     </g>
    </g>
    <g id="line2d_18">
     <path d="M 466.831875 82.365937 
L 488.831875 82.365937 
L 510.831875 82.365937 
" style="fill: none; stroke: #ff7f0e; stroke-width: 3; stroke-linecap: square"/>
    </g>
    <g id="text_17">
     <!-- Y -->
     <g style="fill: #212121" transform="translate(528.431875 90.065937)scale(0.22 -0.22)">
      <defs>
       <path id="TimesNewRomanPSMT-59" d="M 3050 4238 
L 4528 4238 
L 4528 4122 
L 4447 4122 
Q 4366 4122 4209 4050 
Q 4053 3978 3925 3843 
Q 3797 3709 3609 3406 
L 2588 1797 
L 2588 734 
Q 2588 344 2675 247 
Q 2794 116 3050 116 
L 3188 116 
L 3188 0 
L 1388 0 
L 1388 116 
L 1538 116 
Q 1806 116 1919 278 
Q 1988 378 1988 734 
L 1988 1738 
L 825 3513 
Q 619 3825 545 3903 
Q 472 3981 241 4091 
Q 178 4122 59 4122 
L 59 4238 
L 1872 4238 
L 1872 4122 
L 1778 4122 
Q 1631 4122 1507 4053 
Q 1384 3984 1384 3847 
Q 1384 3734 1575 3441 
L 2459 2075 
L 3291 3381 
Q 3478 3675 3478 3819 
Q 3478 3906 3433 3975 
Q 3388 4044 3303 4083 
Q 3219 4122 3050 4122 
L 3050 4238 
z
" transform="scale(0.015625)"/>
      </defs>
      <use xlink:href="#TimesNewRomanPSMT-59"/>
     </g>
    </g>
    <g id="line2d_19">
     <path d="M 466.831875 113.471875 
L 488.831875 113.471875 
L 510.831875 113.471875 
" style="fill: none; stroke: #2ca02c; stroke-width: 3; stroke-linecap: square"/>
    </g>
    <g id="text_18">
     <!-- Z -->
     <g style="fill: #212121" transform="translate(528.431875 121.171875)scale(0.22 -0.22)">
      <defs>
       <path id="TimesNewRomanPSMT-5a" d="M 3681 4238 
L 897 256 
L 2634 256 
Q 3034 256 3248 431 
Q 3463 606 3628 1141 
L 3731 1122 
L 3531 0 
L 81 0 
L 81 116 
L 2800 3984 
L 1444 3984 
Q 1106 3984 954 3911 
Q 803 3838 723 3698 
Q 644 3559 578 3178 
L 459 3178 
L 547 4238 
L 3681 4238 
z
" transform="scale(0.015625)"/>
      </defs>
      <use xlink:href="#TimesNewRomanPSMT-5a"/>
     </g>
    </g>
   </g>
  </g>
  <g id="axes_2">
   <g id="patch_7">
    <path d="M 651.63 429.24 
L 1128.24 429.24 
L 1128.24 23.76 
L 651.63 23.76 
z
" style="fill: #ffffff"/>
   </g>
   <g id="matplotlib.axis_3">
    <g id="xtick_8">
     <g id="line2d_20">
      <g>
       <use xlink:href="#m1cc8f5256c" x="673.294091" y="429.24" style="fill: #212121; stroke: #212121; stroke-width: 0.8"/>
      </g>
     </g>
     <g id="text_19">
      <!-- 0.0 -->
      <g style="fill: #212121" transform="translate(659.544091 451.51625)scale(0.22 -0.22)">
       <use xlink:href="#TimesNewRomanPSMT-30"/>
       <use xlink:href="#TimesNewRomanPSMT-2e" x="50"/>
       <use xlink:href="#TimesNewRomanPSMT-30" x="75"/>
      </g>
     </g>
    </g>
    <g id="xtick_9">
     <g id="line2d_21">
      <g>
       <use xlink:href="#m1cc8f5256c" x="745.507727" y="429.24" style="fill: #212121; stroke: #212121; stroke-width: 0.8"/>
      </g>
     </g>
     <g id="text_20">
      <!-- 0.5 -->
      <g style="fill: #212121" transform="translate(731.757727 451.51625)scale(0.22 -0.22)">
       <use xlink:href="#TimesNewRomanPSMT-30"/>
       <use xlink:href="#TimesNewRomanPSMT-2e" x="50"/>
       <use xlink:href="#TimesNewRomanPSMT-35" x="75"/>
      </g>
     </g>
    </g>
    <g id="xtick_10">
     <g id="line2d_22">
      <g>
       <use xlink:href="#m1cc8f5256c" x="817.721364" y="429.24" style="fill: #212121; stroke: #212121; stroke-width: 0.8"/>
      </g>
     </g>
     <g id="text_21">
      <!-- 1.0 -->
      <g style="fill: #212121" transform="translate(803.971364 451.51625)scale(0.22 -0.22)">
       <use xlink:href="#TimesNewRomanPSMT-31"/>
       <use xlink:href="#TimesNewRomanPSMT-2e" x="50"/>
       <use xlink:href="#TimesNewRomanPSMT-30" x="75"/>
      </g>
     </g>
    </g>
    <g id="xtick_11">
     <g id="line2d_23">
      <g>
       <use xlink:href="#m1cc8f5256c" x="889.935" y="429.24" style="fill: #212121; stroke: #212121; stroke-width: 0.8"/>
      </g>
     </g>
     <g id="text_22">
      <!-- 1.5 -->
      <g style="fill: #212121" transform="translate(876.185 451.51625)scale(0.22 -0.22)">
       <use xlink:href="#TimesNewRomanPSMT-31"/>
       <use xlink:href="#TimesNewRomanPSMT-2e" x="50"/>
       <use xlink:href="#TimesNewRomanPSMT-35" x="75"/>
      </g>
     </g>
    </g>
    <g id="xtick_12">
     <g id="line2d_24">
      <g>
       <use xlink:href="#m1cc8f5256c" x="962.148636" y="429.24" style="fill: #212121; stroke: #212121; stroke-width: 0.8"/>
      </g>
     </g>
     <g id="text_23">
      <!-- 2.0 -->
      <g style="fill: #212121" transform="translate(948.398636 451.51625)scale(0.22 -0.22)">
       <use xlink:href="#TimesNewRomanPSMT-32"/>
       <use xlink:href="#TimesNewRomanPSMT-2e" x="50"/>
       <use xlink:href="#TimesNewRomanPSMT-30" x="75"/>
      </g>
     </g>
    </g>
    <g id="xtick_13">
     <g id="line2d_25">
      <g>
       <use xlink:href="#m1cc8f5256c" x="1034.362273" y="429.24" style="fill: #212121; stroke: #212121; stroke-width: 0.8"/>
      </g>
     </g>
     <g id="text_24">
      <!-- 2.5 -->
      <g style="fill: #212121" transform="translate(1020.612273 451.51625)scale(0.22 -0.22)">
       <use xlink:href="#TimesNewRomanPSMT-32"/>
       <use xlink:href="#TimesNewRomanPSMT-2e" x="50"/>
       <use xlink:href="#TimesNewRomanPSMT-35" x="75"/>
      </g>
     </g>
    </g>
    <g id="xtick_14">
     <g id="line2d_26">
      <g>
       <use xlink:href="#m1cc8f5256c" x="1106.575909" y="429.24" style="fill: #212121; stroke: #212121; stroke-width: 0.8"/>
      </g>
     </g>
     <g id="text_25">
      <!-- 3.0 -->
      <g style="fill: #212121" transform="translate(1092.825909 451.51625)scale(0.22 -0.22)">
       <use xlink:href="#TimesNewRomanPSMT-33"/>
       <use xlink:href="#TimesNewRomanPSMT-2e" x="50"/>
       <use xlink:href="#TimesNewRomanPSMT-30" x="75"/>
      </g>
     </g>
    </g>
    <g id="text_26">
     <!-- Time (s) -->
     <g style="fill: #212121" transform="translate(852.749844 475.498438)scale(0.22 -0.22)">
      <use xlink:href="#TimesNewRomanPSMT-54"/>
      <use xlink:href="#TimesNewRomanPSMT-69" x="57.583984"/>
      <use xlink:href="#TimesNewRomanPSMT-6d" x="85.367188"/>
      <use xlink:href="#TimesNewRomanPSMT-65" x="163.150391"/>
      <use xlink:href="#TimesNewRomanPSMT-20" x="207.535156"/>
      <use xlink:href="#TimesNewRomanPSMT-28" x="232.535156"/>
      <use xlink:href="#TimesNewRomanPSMT-73" x="265.835938"/>
      <use xlink:href="#TimesNewRomanPSMT-29" x="304.751953"/>
     </g>
    </g>
   </g>
   <g id="matplotlib.axis_4">
    <g id="ytick_7">
     <g id="line2d_27">
      <g>
       <use xlink:href="#md6f37ec066" x="651.63" y="423.44101" style="fill: #212121; stroke: #212121; stroke-width: 0.8"/>
      </g>
     </g>
     <g id="text_27">
      <!-- 0 -->
      <g style="fill: #212121" transform="translate(633.63 431.079135)scale(0.22 -0.22)">
       <use xlink:href="#TimesNewRomanPSMT-30"/>
      </g>
     </g>
    </g>
    <g id="ytick_8">
     <g id="line2d_28">
      <g>
       <use xlink:href="#md6f37ec066" x="651.63" y="352.628558" style="fill: #212121; stroke: #212121; stroke-width: 0.8"/>
      </g>
     </g>
     <g id="text_28">
      <!-- 50 -->
      <g style="fill: #212121" transform="translate(622.63 360.266683)scale(0.22 -0.22)">
       <use xlink:href="#TimesNewRomanPSMT-35"/>
       <use xlink:href="#TimesNewRomanPSMT-30" x="50"/>
      </g>
     </g>
    </g>
    <g id="ytick_9">
     <g id="line2d_29">
      <g>
       <use xlink:href="#md6f37ec066" x="651.63" y="281.816106" style="fill: #212121; stroke: #212121; stroke-width: 0.8"/>
      </g>
     </g>
     <g id="text_29">
      <!-- 100 -->
      <g style="fill: #212121" transform="translate(611.63 289.454231)scale(0.22 -0.22)">
       <use xlink:href="#TimesNewRomanPSMT-31"/>
       <use xlink:href="#TimesNewRomanPSMT-30" x="50"/>
       <use xlink:href="#TimesNewRomanPSMT-30" x="100"/>
      </g>
     </g>
    </g>
    <g id="ytick_10">
     <g id="line2d_30">
      <g>
       <use xlink:href="#md6f37ec066" x="651.63" y="211.003654" style="fill: #212121; stroke: #212121; stroke-width: 0.8"/>
      </g>
     </g>
     <g id="text_30">
      <!-- 150 -->
      <g style="fill: #212121" transform="translate(611.63 218.641779)scale(0.22 -0.22)">
       <use xlink:href="#TimesNewRomanPSMT-31"/>
       <use xlink:href="#TimesNewRomanPSMT-35" x="50"/>
       <use xlink:href="#TimesNewRomanPSMT-30" x="100"/>
      </g>
     </g>
    </g>
    <g id="ytick_11">
     <g id="line2d_31">
      <g>
       <use xlink:href="#md6f37ec066" x="651.63" y="140.191202" style="fill: #212121; stroke: #212121; stroke-width: 0.8"/>
      </g>
     </g>
     <g id="text_31">
      <!-- 200 -->
      <g style="fill: #212121" transform="translate(611.63 147.829327)scale(0.22 -0.22)">
       <use xlink:href="#TimesNewRomanPSMT-32"/>
       <use xlink:href="#TimesNewRomanPSMT-30" x="50"/>
       <use xlink:href="#TimesNewRomanPSMT-30" x="100"/>
      </g>
     </g>
    </g>
    <g id="ytick_12">
     <g id="line2d_32">
      <g>
       <use xlink:href="#md6f37ec066" x="651.63" y="69.37875" style="fill: #212121; stroke: #212121; stroke-width: 0.8"/>
      </g>
     </g>
     <g id="text_32">
      <!-- 250 -->
      <g style="fill: #212121" transform="translate(611.63 77.016875)scale(0.22 -0.22)">
       <use xlink:href="#TimesNewRomanPSMT-32"/>
       <use xlink:href="#TimesNewRomanPSMT-35" x="50"/>
       <use xlink:href="#TimesNewRomanPSMT-30" x="100"/>
      </g>
     </g>
    </g>
    <g id="text_33">
     <!-- Landmark Coordinate (mm) -->
     <g style="fill: #212121" transform="translate(602.924062 350.518125)rotate(-90)scale(0.22 -0.22)">
      <use xlink:href="#TimesNewRomanPSMT-4c"/>
      <use xlink:href="#TimesNewRomanPSMT-61" x="61.083984"/>
      <use xlink:href="#TimesNewRomanPSMT-6e" x="105.46875"/>
      <use xlink:href="#TimesNewRomanPSMT-64" x="155.46875"/>
      <use xlink:href="#TimesNewRomanPSMT-6d" x="205.46875"/>
      <use xlink:href="#TimesNewRomanPSMT-61" x="283.251953"/>
      <use xlink:href="#TimesNewRomanPSMT-72" x="327.636719"/>
      <use xlink:href="#TimesNewRomanPSMT-6b" x="360.9375"/>
      <use xlink:href="#TimesNewRomanPSMT-20" x="410.9375"/>
      <use xlink:href="#TimesNewRomanPSMT-43" x="435.9375"/>
      <use xlink:href="#TimesNewRomanPSMT-6f" x="502.636719"/>
      <use xlink:href="#TimesNewRomanPSMT-6f" x="552.636719"/>
      <use xlink:href="#TimesNewRomanPSMT-72" x="602.636719"/>
      <use xlink:href="#TimesNewRomanPSMT-64" x="635.9375"/>
      <use xlink:href="#TimesNewRomanPSMT-69" x="685.9375"/>
      <use xlink:href="#TimesNewRomanPSMT-6e" x="713.720703"/>
      <use xlink:href="#TimesNewRomanPSMT-61" x="763.720703"/>
      <use xlink:href="#TimesNewRomanPSMT-74" x="808.105469"/>
      <use xlink:href="#TimesNewRomanPSMT-65" x="835.888672"/>
      <use xlink:href="#TimesNewRomanPSMT-20" x="880.273438"/>
      <use xlink:href="#TimesNewRomanPSMT-28" x="905.273438"/>
      <use xlink:href="#TimesNewRomanPSMT-6d" x="938.574219"/>
      <use xlink:href="#TimesNewRomanPSMT-6d" x="1016.357422"/>
      <use xlink:href="#TimesNewRomanPSMT-29" x="1094.140625"/>
     </g>
    </g>
   </g>
   <g id="line2d_33">
    <path d="M 673.294091 357.297638 
L 677.257034 357.969308 
L 681.219978 358.421366 
L 685.182921 358.658438 
L 689.145865 358.699699 
L 694.429789 358.503109 
L 701.034695 357.98363 
L 715.565488 356.727403 
L 720.849412 356.546363 
L 724.812356 356.591844 
L 728.775299 356.823864 
L 732.738243 357.26448 
L 736.701186 357.929973 
L 740.66413 358.83079 
L 744.627073 359.971619 
L 748.590017 361.351587 
L 752.55296 362.96455 
L 756.515904 364.799472 
L 760.478847 366.84086 
L 765.762772 369.849745 
L 771.046696 373.135335 
L 777.651602 377.533534 
L 788.219451 384.915283 
L 797.466319 391.315058 
L 804.071225 395.625087 
L 809.35515 398.816043 
L 814.639074 401.714484 
L 818.602018 403.66548 
L 822.564961 405.405012 
L 826.527905 406.917896 
L 830.490848 408.192079 
L 834.453792 409.218711 
L 838.416735 409.992187 
L 842.379678 410.510133 
L 846.342622 410.773345 
L 850.305565 410.785696 
L 854.268509 410.553994 
L 858.231452 410.087808 
L 862.194396 409.399261 
L 866.157339 408.502794 
L 870.120283 407.414903 
L 875.404207 405.698397 
L 880.688132 403.721436 
L 887.293038 400.961134 
L 895.218925 397.360422 
L 918.996585 386.331438 
L 925.601491 383.590973 
L 932.206397 381.112047 
L 937.490322 379.3436 
L 942.774246 377.77894 
L 948.058171 376.422295 
L 953.342095 375.270876 
L 958.62602 374.315361 
L 965.230926 373.372904 
L 971.835831 372.672527 
L 979.761718 372.083211 
L 990.329568 371.574738 
L 1033.921946 370.001949 
L 1041.847833 369.94126 
L 1048.452738 370.12792 
L 1053.736663 370.490659 
L 1059.020588 371.080831 
L 1064.304512 371.919104 
L 1069.588437 373.003519 
L 1076.193343 374.646711 
L 1088.082173 377.756224 
L 1092.045116 378.504276 
L 1094.687079 378.804426 
L 1097.329041 378.880317 
L 1099.971003 378.665414 
L 1102.612966 378.082808 
L 1103.933947 377.62649 
L 1105.254928 377.04417 
L 1106.575909 376.322839 
L 1106.575909 376.322839 
" clip-path="url(#p0abf474110)" style="fill: none; stroke: #1f77b4; stroke-width: 3; stroke-linecap: square"/>
   </g>
   <g id="line2d_34">
    <path d="M 673.294091 205.176204 
L 675.936053 202.682299 
L 678.578016 200.654198 
L 681.219978 199.079391 
L 683.86194 197.935343 
L 686.503902 197.191236 
L 689.145865 196.809574 
L 691.787827 196.747645 
L 694.429789 196.958843 
L 697.071752 197.393865 
L 701.034695 198.354479 
L 707.639601 200.348989 
L 712.923525 201.852009 
L 716.886469 202.684744 
L 719.528431 203.023136 
L 722.170394 203.146029 
L 724.812356 203.021603 
L 727.454318 202.622017 
L 730.09628 201.923538 
L 732.738243 200.90661 
L 735.380205 199.55588 
L 738.022167 197.860183 
L 740.66413 195.812485 
L 743.306092 193.409795 
L 745.948054 190.653044 
L 748.590017 187.546934 
L 751.231979 184.09977 
L 753.873941 180.323261 
L 756.515904 176.232311 
L 760.478847 169.546149 
L 764.44179 162.264883 
L 768.404734 154.471932 
L 773.688659 143.447804 
L 780.293564 128.993185 
L 793.503376 99.7774 
L 798.7873 88.70937 
L 802.750244 80.876106 
L 806.713187 73.553243 
L 810.676131 66.831471 
L 813.318093 62.725215 
L 815.960055 58.944922 
L 818.602018 55.510681 
L 821.24398 52.44051 
L 823.885942 49.750272 
L 826.527905 47.453608 
L 829.169867 45.561892 
L 831.811829 44.08419 
L 834.453792 43.027241 
L 837.095754 42.395454 
L 839.737716 42.190909 
L 842.379678 42.413385 
L 845.021641 43.06039 
L 847.663603 44.12721 
L 850.305565 45.60697 
L 852.947528 47.490704 
L 855.58949 49.767437 
L 858.231452 52.424278 
L 860.873415 55.446525 
L 863.515377 58.817772 
L 866.157339 62.520035 
L 868.799302 66.533871 
L 872.762245 73.093088 
L 876.725188 80.231463 
L 880.688132 87.869239 
L 885.972057 98.685122 
L 891.255981 110.035807 
L 900.502849 130.56371 
L 909.749717 151.012039 
L 915.033642 162.27465 
L 920.317567 173.023006 
L 924.28051 180.660803 
L 928.243453 187.878267 
L 932.206397 194.632541 
L 936.16934 200.889328 
L 940.132284 206.623184 
L 944.095227 211.817676 
L 946.73719 214.976996 
L 949.379152 217.89313 
L 952.021114 220.567811 
L 954.663076 223.004451 
L 957.305039 225.208078 
L 959.947001 227.185266 
L 962.588963 228.944048 
L 965.230926 230.493824 
L 967.872888 231.845244 
L 970.51485 233.010096 
L 973.156813 234.001169 
L 977.119756 235.192014 
L 981.0827 236.07168 
L 985.045643 236.691498 
L 989.008586 237.103914 
L 994.292511 237.421242 
L 1003.539379 237.663635 
L 1012.786247 237.960606 
L 1019.391153 238.412275 
L 1025.996059 239.130262 
L 1032.600965 240.0928 
L 1051.094701 243.033861 
L 1055.057644 243.421576 
L 1059.020588 243.621164 
L 1062.983531 243.595625 
L 1066.946475 243.321728 
L 1070.909418 242.796886 
L 1074.872361 242.047219 
L 1081.477267 240.49429 
L 1085.440211 239.597226 
L 1088.082173 239.139737 
L 1090.724135 238.893053 
L 1093.366098 238.962686 
L 1094.687079 239.154889 
L 1096.00806 239.475594 
L 1097.329041 239.944441 
L 1098.650022 240.582743 
L 1099.971003 241.413572 
L 1101.291984 242.461859 
L 1102.612966 243.754486 
L 1103.933947 245.320387 
L 1105.254928 247.190655 
L 1106.575909 249.398648 
L 1106.575909 249.398648 
" clip-path="url(#p0abf474110)" style="fill: none; stroke: #ff7f0e; stroke-width: 3; stroke-linecap: square"/>
   </g>
   <g id="line2d_35">
    <path d="M 673.294091 354.337603 
L 675.936053 354.483992 
L 678.578016 354.417983 
L 682.540959 354.062399 
L 697.071752 352.358267 
L 701.034695 352.16981 
L 704.997639 352.175906 
L 708.960582 352.383211 
L 712.923525 352.784856 
L 718.20745 353.592446 
L 723.491375 354.65649 
L 730.09628 356.239887 
L 753.873941 362.252057 
L 760.478847 363.559555 
L 767.083753 364.599348 
L 773.688659 365.359669 
L 780.293564 365.852932 
L 786.89847 366.110727 
L 794.824357 366.17337 
L 805.392206 365.989688 
L 830.490848 365.432591 
L 842.379678 365.455892 
L 874.083226 365.743629 
L 880.688132 365.511323 
L 887.293038 365.050758 
L 892.576962 364.482666 
L 897.860887 363.712268 
L 903.144812 362.721764 
L 908.428736 361.499302 
L 913.712661 360.039885 
L 918.996585 358.346059 
L 924.28051 356.428382 
L 929.564435 354.305628 
L 936.16934 351.405548 
L 944.095227 347.657743 
L 966.551907 336.831584 
L 971.835831 334.564988 
L 977.119756 332.52003 
L 982.403681 330.744713 
L 986.366624 329.614681 
L 990.329568 328.672343 
L 994.292511 327.927119 
L 998.255455 327.3841 
L 1002.218398 327.043585 
L 1006.181341 326.900688 
L 1010.144285 326.945042 
L 1015.42821 327.266923 
L 1020.712134 327.838765 
L 1027.31704 328.795165 
L 1040.526851 330.824844 
L 1045.810776 331.388255 
L 1049.77372 331.618909 
L 1053.736663 331.641491 
L 1057.699606 331.425052 
L 1061.66255 330.950058 
L 1065.625493 330.212538 
L 1069.588437 329.228852 
L 1074.872361 327.611679 
L 1085.440211 324.198281 
L 1088.082173 323.587791 
L 1090.724135 323.215112 
L 1093.366098 323.174184 
L 1094.687079 323.311765 
L 1096.00806 323.574765 
L 1097.329041 323.97964 
L 1098.650022 324.54404 
L 1099.971003 325.286865 
L 1101.291984 326.228328 
L 1102.612966 327.390007 
L 1103.933947 328.794913 
L 1105.254928 330.467551 
L 1106.575909 332.433985 
L 1106.575909 332.433985 
" clip-path="url(#p0abf474110)" style="fill: none; stroke: #2ca02c; stroke-width: 3; stroke-linecap: square"/>
   </g>
   <g id="patch_8">
    <path d="M 651.63 429.24 
L 651.63 23.76 
" style="fill: none; stroke: #212121; stroke-width: 0.8; stroke-linejoin: miter; stroke-linecap: square"/>
   </g>
   <g id="patch_9">
    <path d="M 1128.24 429.24 
L 1128.24 23.76 
" style="fill: none; stroke: #212121; stroke-width: 0.8; stroke-linejoin: miter; stroke-linecap: square"/>
   </g>
   <g id="patch_10">
    <path d="M 651.63 429.24 
L 1128.24 429.24 
" style="fill: none; stroke: #212121; stroke-width: 0.8; stroke-linejoin: miter; stroke-linecap: square"/>
   </g>
   <g id="patch_11">
    <path d="M 651.63 23.76 
L 1128.24 23.76 
" style="fill: none; stroke: #212121; stroke-width: 0.8; stroke-linejoin: miter; stroke-linecap: square"/>
   </g>
   <g id="legend_2">
    <g id="line2d_36">
     <path d="M 943.587813 51.26 
L 965.587813 51.26 
L 987.587813 51.26 
" style="fill: none; stroke: #1f77b4; stroke-width: 3; stroke-linecap: square"/>
    </g>
    <g id="text_34">
     <!-- X (Approx) -->
     <g style="fill: #212121" transform="translate(1005.187813 58.96)scale(0.22 -0.22)">
      <defs>
       <path id="TimesNewRomanPSMT-41" d="M 2928 1419 
L 1288 1419 
L 1000 750 
Q 894 503 894 381 
Q 894 284 986 211 
Q 1078 138 1384 116 
L 1384 0 
L 50 0 
L 50 116 
Q 316 163 394 238 
Q 553 388 747 847 
L 2238 4334 
L 2347 4334 
L 3822 809 
Q 4000 384 4145 257 
Q 4291 131 4550 116 
L 4550 0 
L 2878 0 
L 2878 116 
Q 3131 128 3220 200 
Q 3309 272 3309 375 
Q 3309 513 3184 809 
L 2928 1419 
z
M 2841 1650 
L 2122 3363 
L 1384 1650 
L 2841 1650 
z
" transform="scale(0.015625)"/>
       <path id="TimesNewRomanPSMT-70" d="M -6 2578 
L 875 2934 
L 994 2934 
L 994 2266 
Q 1216 2644 1439 2795 
Q 1663 2947 1909 2947 
Q 2341 2947 2628 2609 
Q 2981 2197 2981 1534 
Q 2981 794 2556 309 
Q 2206 -88 1675 -88 
Q 1444 -88 1275 -22 
Q 1150 25 994 166 
L 994 -706 
Q 994 -1000 1030 -1079 
Q 1066 -1159 1155 -1206 
Q 1244 -1253 1478 -1253 
L 1478 -1369 
L -22 -1369 
L -22 -1253 
L 56 -1253 
Q 228 -1256 350 -1188 
Q 409 -1153 442 -1076 
Q 475 -1000 475 -688 
L 475 2019 
Q 475 2297 450 2372 
Q 425 2447 370 2484 
Q 316 2522 222 2522 
Q 147 2522 31 2478 
L -6 2578 
z
M 994 2081 
L 994 1013 
Q 994 666 1022 556 
Q 1066 375 1236 237 
Q 1406 100 1666 100 
Q 1978 100 2172 344 
Q 2425 663 2425 1241 
Q 2425 1897 2138 2250 
Q 1938 2494 1663 2494 
Q 1513 2494 1366 2419 
Q 1253 2363 994 2081 
z
" transform="scale(0.015625)"/>
       <path id="TimesNewRomanPSMT-78" d="M 84 2863 
L 1431 2863 
L 1431 2747 
Q 1303 2747 1251 2703 
Q 1200 2659 1200 2588 
Q 1200 2513 1309 2356 
Q 1344 2306 1413 2200 
L 1616 1875 
L 1850 2200 
Q 2075 2509 2075 2591 
Q 2075 2656 2022 2701 
Q 1969 2747 1850 2747 
L 1850 2863 
L 2819 2863 
L 2819 2747 
Q 2666 2738 2553 2663 
Q 2400 2556 2134 2200 
L 1744 1678 
L 2456 653 
Q 2719 275 2831 198 
Q 2944 122 3122 113 
L 3122 0 
L 1772 0 
L 1772 113 
Q 1913 113 1991 175 
Q 2050 219 2050 291 
Q 2050 363 1850 653 
L 1431 1266 
L 972 653 
Q 759 369 759 316 
Q 759 241 829 180 
Q 900 119 1041 113 
L 1041 0 
L 106 0 
L 106 113 
Q 219 128 303 191 
Q 422 281 703 653 
L 1303 1450 
L 759 2238 
Q 528 2575 401 2661 
Q 275 2747 84 2747 
L 84 2863 
z
" transform="scale(0.015625)"/>
      </defs>
      <use xlink:href="#TimesNewRomanPSMT-58"/>
      <use xlink:href="#TimesNewRomanPSMT-20" x="72.216797"/>
      <use xlink:href="#TimesNewRomanPSMT-28" x="97.216797"/>
      <use xlink:href="#TimesNewRomanPSMT-41" x="130.517578"/>
      <use xlink:href="#TimesNewRomanPSMT-70" x="202.734375"/>
      <use xlink:href="#TimesNewRomanPSMT-70" x="252.734375"/>
      <use xlink:href="#TimesNewRomanPSMT-72" x="302.734375"/>
      <use xlink:href="#TimesNewRomanPSMT-6f" x="336.035156"/>
      <use xlink:href="#TimesNewRomanPSMT-78" x="386.035156"/>
      <use xlink:href="#TimesNewRomanPSMT-29" x="436.035156"/>
     </g>
    </g>
    <g id="line2d_37">
     <path d="M 943.587813 82.365937 
L 965.587813 82.365937 
L 987.587813 82.365937 
" style="fill: none; stroke: #ff7f0e; stroke-width: 3; stroke-linecap: square"/>
    </g>
    <g id="text_35">
     <!-- Y (Approx) -->
     <g style="fill: #212121" transform="translate(1005.187813 90.065937)scale(0.22 -0.22)">
      <use xlink:href="#TimesNewRomanPSMT-59"/>
      <use xlink:href="#TimesNewRomanPSMT-20" x="68.466797"/>
      <use xlink:href="#TimesNewRomanPSMT-28" x="93.466797"/>
      <use xlink:href="#TimesNewRomanPSMT-41" x="126.767578"/>
      <use xlink:href="#TimesNewRomanPSMT-70" x="198.984375"/>
      <use xlink:href="#TimesNewRomanPSMT-70" x="248.984375"/>
      <use xlink:href="#TimesNewRomanPSMT-72" x="298.984375"/>
      <use xlink:href="#TimesNewRomanPSMT-6f" x="332.285156"/>
      <use xlink:href="#TimesNewRomanPSMT-78" x="382.285156"/>
      <use xlink:href="#TimesNewRomanPSMT-29" x="432.285156"/>
     </g>
    </g>
    <g id="line2d_38">
     <path d="M 943.587813 113.471875 
L 965.587813 113.471875 
L 987.587813 113.471875 
" style="fill: none; stroke: #2ca02c; stroke-width: 3; stroke-linecap: square"/>
    </g>
    <g id="text_36">
     <!-- Z (Approx) -->
     <g style="fill: #212121" transform="translate(1005.187813 121.171875)scale(0.22 -0.22)">
      <use xlink:href="#TimesNewRomanPSMT-5a"/>
      <use xlink:href="#TimesNewRomanPSMT-20" x="61.083984"/>
      <use xlink:href="#TimesNewRomanPSMT-28" x="86.083984"/>
      <use xlink:href="#TimesNewRomanPSMT-41" x="119.384766"/>
      <use xlink:href="#TimesNewRomanPSMT-70" x="191.601562"/>
      <use xlink:href="#TimesNewRomanPSMT-70" x="241.601562"/>
      <use xlink:href="#TimesNewRomanPSMT-72" x="291.601562"/>
      <use xlink:href="#TimesNewRomanPSMT-6f" x="324.902344"/>
      <use xlink:href="#TimesNewRomanPSMT-78" x="374.902344"/>
      <use xlink:href="#TimesNewRomanPSMT-29" x="424.902344"/>
     </g>
    </g>
   </g>
  </g>
 </g>
 <defs>
  <clipPath id="pcdc1c85519">
   <rect x="87.51" y="23.76" width="476.61" height="405.48"/>
  </clipPath>
  <clipPath id="p0abf474110">
   <rect x="651.63" y="23.76" width="476.61" height="405.48"/>
  </clipPath>
 </defs>
</svg>
