<?xml version="1.0" encoding="utf-8" standalone="no"?>
<!DOCTYPE svg PUBLIC "-//W3C//DTD SVG 1.1//EN"
  "http://www.w3.org/Graphics/SVG/1.1/DTD/svg11.dtd">
<svg xmlns:xlink="http://www.w3.org/1999/xlink" width="1152pt" height="432pt" viewBox="0 0 1152 432" xmlns="http://www.w3.org/2000/svg" version="1.1">
 <metadata>
  <rdf:RDF xmlns:dc="http://purl.org/dc/elements/1.1/" xmlns:cc="http://creativecommons.org/ns#" xmlns:rdf="http://www.w3.org/1999/02/22-rdf-syntax-ns#">
   <cc:Work>
    <dc:type rdf:resource="http://purl.org/dc/dcmitype/StillImage"/>
    <dc:date>2022-06-28T21:35:20.527581</dc:date>
    <dc:format>image/svg+xml</dc:format>
    <dc:creator>
     <cc:Agent>
      <dc:title>Matplotlib v3.5.2, https://matplotlib.org/</dc:title>
     </cc:Agent>
    </dc:creator>
   </cc:Work>
  </rdf:RDF>
 </metadata>
 <defs>
  <style type="text/css">*{stroke-linejoin: round; stroke-linecap: butt}</style>
 </defs>
 <g id="figure_1">
  <g id="patch_1">
   <path d="M 0 432 
L 1152 432 
L 1152 0 
L 0 0 
L 0 432 
z
" style="fill: none"/>
  </g>
  <g id="axes_1">
   <g id="patch_2">
    <path d="M 120.21 357.24 
L 564.12 357.24 
L 564.12 23.76 
L 120.21 23.76 
z
" style="fill: #ffffff"/>
   </g>
   <g id="matplotlib.axis_1">
    <g id="xtick_1">
     <g id="line2d_1">
      <defs>
       <path id="m37ecfce701" d="M 0 0 
L 0 3.5 
" style="stroke: #212121; stroke-width: 0.8"/>
      </defs>
      <g>
       <use xlink:href="#m37ecfce701" x="140.387727" y="357.24" style="fill: #212121; stroke: #212121; stroke-width: 0.8"/>
      </g>
     </g>
     <g id="text_1">
      <!-- 0 -->
      <g style="fill: #212121" transform="translate(133.388977 380.956562)scale(0.22 -0.22)">
       <defs>
        <path id="DejaVuSans-30" d="M 2034 4250 
Q 1547 4250 1301 3770 
Q 1056 3291 1056 2328 
Q 1056 1369 1301 889 
Q 1547 409 2034 409 
Q 2525 409 2770 889 
Q 3016 1369 3016 2328 
Q 3016 3291 2770 3770 
Q 2525 4250 2034 4250 
z
M 2034 4750 
Q 2819 4750 3233 4129 
Q 3647 3509 3647 2328 
Q 3647 1150 3233 529 
Q 2819 -91 2034 -91 
Q 1250 -91 836 529 
Q 422 1150 422 2328 
Q 422 3509 836 4129 
Q 1250 4750 2034 4750 
z
" transform="scale(0.015625)"/>
       </defs>
       <use xlink:href="#DejaVuSans-30"/>
      </g>
     </g>
    </g>
    <g id="xtick_2">
     <g id="line2d_2">
      <g>
       <use xlink:href="#m37ecfce701" x="274.905909" y="357.24" style="fill: #212121; stroke: #212121; stroke-width: 0.8"/>
      </g>
     </g>
     <g id="text_2">
      <!-- 1 -->
      <g style="fill: #212121" transform="translate(267.907159 380.956562)scale(0.22 -0.22)">
       <defs>
        <path id="DejaVuSans-31" d="M 794 531 
L 1825 531 
L 1825 4091 
L 703 3866 
L 703 4441 
L 1819 4666 
L 2450 4666 
L 2450 531 
L 3481 531 
L 3481 0 
L 794 0 
L 794 531 
z
" transform="scale(0.015625)"/>
       </defs>
       <use xlink:href="#DejaVuSans-31"/>
      </g>
     </g>
    </g>
    <g id="xtick_3">
     <g id="line2d_3">
      <g>
       <use xlink:href="#m37ecfce701" x="409.424091" y="357.24" style="fill: #212121; stroke: #212121; stroke-width: 0.8"/>
      </g>
     </g>
     <g id="text_3">
      <!-- 2 -->
      <g style="fill: #212121" transform="translate(402.425341 380.956562)scale(0.22 -0.22)">
       <defs>
        <path id="DejaVuSans-32" d="M 1228 531 
L 3431 531 
L 3431 0 
L 469 0 
L 469 531 
Q 828 903 1448 1529 
Q 2069 2156 2228 2338 
Q 2531 2678 2651 2914 
Q 2772 3150 2772 3378 
Q 2772 3750 2511 3984 
Q 2250 4219 1831 4219 
Q 1534 4219 1204 4116 
Q 875 4013 500 3803 
L 500 4441 
Q 881 4594 1212 4672 
Q 1544 4750 1819 4750 
Q 2544 4750 2975 4387 
Q 3406 4025 3406 3419 
Q 3406 3131 3298 2873 
Q 3191 2616 2906 2266 
Q 2828 2175 2409 1742 
Q 1991 1309 1228 531 
z
" transform="scale(0.015625)"/>
       </defs>
       <use xlink:href="#DejaVuSans-32"/>
      </g>
     </g>
    </g>
    <g id="xtick_4">
     <g id="line2d_4">
      <g>
       <use xlink:href="#m37ecfce701" x="543.942273" y="357.24" style="fill: #212121; stroke: #212121; stroke-width: 0.8"/>
      </g>
     </g>
     <g id="text_4">
      <!-- 3 -->
      <g style="fill: #212121" transform="translate(536.943523 380.956562)scale(0.22 -0.22)">
       <defs>
        <path id="DejaVuSans-33" d="M 2597 2516 
Q 3050 2419 3304 2112 
Q 3559 1806 3559 1356 
Q 3559 666 3084 287 
Q 2609 -91 1734 -91 
Q 1441 -91 1130 -33 
Q 819 25 488 141 
L 488 750 
Q 750 597 1062 519 
Q 1375 441 1716 441 
Q 2309 441 2620 675 
Q 2931 909 2931 1356 
Q 2931 1769 2642 2001 
Q 2353 2234 1838 2234 
L 1294 2234 
L 1294 2753 
L 1863 2753 
Q 2328 2753 2575 2939 
Q 2822 3125 2822 3475 
Q 2822 3834 2567 4026 
Q 2313 4219 1838 4219 
Q 1578 4219 1281 4162 
Q 984 4106 628 3988 
L 628 4550 
Q 988 4650 1302 4700 
Q 1616 4750 1894 4750 
Q 2613 4750 3031 4423 
Q 3450 4097 3450 3541 
Q 3450 3153 3228 2886 
Q 3006 2619 2597 2516 
z
" transform="scale(0.015625)"/>
       </defs>
       <use xlink:href="#DejaVuSans-33"/>
      </g>
     </g>
    </g>
    <g id="text_5">
     <!-- Time (s) -->
     <g style="fill: #212121" transform="translate(297.441406 406.248437)scale(0.22 -0.22)">
      <defs>
       <path id="DejaVuSans-54" d="M -19 4666 
L 3928 4666 
L 3928 4134 
L 2272 4134 
L 2272 0 
L 1638 0 
L 1638 4134 
L -19 4134 
L -19 4666 
z
" transform="scale(0.015625)"/>
       <path id="DejaVuSans-69" d="M 603 3500 
L 1178 3500 
L 1178 0 
L 603 0 
L 603 3500 
z
M 603 4863 
L 1178 4863 
L 1178 4134 
L 603 4134 
L 603 4863 
z
" transform="scale(0.015625)"/>
       <path id="DejaVuSans-6d" d="M 3328 2828 
Q 3544 3216 3844 3400 
Q 4144 3584 4550 3584 
Q 5097 3584 5394 3201 
Q 5691 2819 5691 2113 
L 5691 0 
L 5113 0 
L 5113 2094 
Q 5113 2597 4934 2840 
Q 4756 3084 4391 3084 
Q 3944 3084 3684 2787 
Q 3425 2491 3425 1978 
L 3425 0 
L 2847 0 
L 2847 2094 
Q 2847 2600 2669 2842 
Q 2491 3084 2119 3084 
Q 1678 3084 1418 2786 
Q 1159 2488 1159 1978 
L 1159 0 
L 581 0 
L 581 3500 
L 1159 3500 
L 1159 2956 
Q 1356 3278 1631 3431 
Q 1906 3584 2284 3584 
Q 2666 3584 2933 3390 
Q 3200 3197 3328 2828 
z
" transform="scale(0.015625)"/>
       <path id="DejaVuSans-65" d="M 3597 1894 
L 3597 1613 
L 953 1613 
Q 991 1019 1311 708 
Q 1631 397 2203 397 
Q 2534 397 2845 478 
Q 3156 559 3463 722 
L 3463 178 
Q 3153 47 2828 -22 
Q 2503 -91 2169 -91 
Q 1331 -91 842 396 
Q 353 884 353 1716 
Q 353 2575 817 3079 
Q 1281 3584 2069 3584 
Q 2775 3584 3186 3129 
Q 3597 2675 3597 1894 
z
M 3022 2063 
Q 3016 2534 2758 2815 
Q 2500 3097 2075 3097 
Q 1594 3097 1305 2825 
Q 1016 2553 972 2059 
L 3022 2063 
z
" transform="scale(0.015625)"/>
       <path id="DejaVuSans-20" transform="scale(0.015625)"/>
       <path id="DejaVuSans-28" d="M 1984 4856 
Q 1566 4138 1362 3434 
Q 1159 2731 1159 2009 
Q 1159 1288 1364 580 
Q 1569 -128 1984 -844 
L 1484 -844 
Q 1016 -109 783 600 
Q 550 1309 550 2009 
Q 550 2706 781 3412 
Q 1013 4119 1484 4856 
L 1984 4856 
z
" transform="scale(0.015625)"/>
       <path id="DejaVuSans-73" d="M 2834 3397 
L 2834 2853 
Q 2591 2978 2328 3040 
Q 2066 3103 1784 3103 
Q 1356 3103 1142 2972 
Q 928 2841 928 2578 
Q 928 2378 1081 2264 
Q 1234 2150 1697 2047 
L 1894 2003 
Q 2506 1872 2764 1633 
Q 3022 1394 3022 966 
Q 3022 478 2636 193 
Q 2250 -91 1575 -91 
Q 1294 -91 989 -36 
Q 684 19 347 128 
L 347 722 
Q 666 556 975 473 
Q 1284 391 1588 391 
Q 1994 391 2212 530 
Q 2431 669 2431 922 
Q 2431 1156 2273 1281 
Q 2116 1406 1581 1522 
L 1381 1569 
Q 847 1681 609 1914 
Q 372 2147 372 2553 
Q 372 3047 722 3315 
Q 1072 3584 1716 3584 
Q 2034 3584 2315 3537 
Q 2597 3491 2834 3397 
z
" transform="scale(0.015625)"/>
       <path id="DejaVuSans-29" d="M 513 4856 
L 1013 4856 
Q 1481 4119 1714 3412 
Q 1947 2706 1947 2009 
Q 1947 1309 1714 600 
Q 1481 -109 1013 -844 
L 513 -844 
Q 928 -128 1133 580 
Q 1338 1288 1338 2009 
Q 1338 2731 1133 3434 
Q 928 4138 513 4856 
z
" transform="scale(0.015625)"/>
      </defs>
      <use xlink:href="#DejaVuSans-54"/>
      <use xlink:href="#DejaVuSans-69" x="57.958984"/>
      <use xlink:href="#DejaVuSans-6d" x="85.742188"/>
      <use xlink:href="#DejaVuSans-65" x="183.154297"/>
      <use xlink:href="#DejaVuSans-20" x="244.677734"/>
      <use xlink:href="#DejaVuSans-28" x="276.464844"/>
      <use xlink:href="#DejaVuSans-73" x="315.478516"/>
      <use xlink:href="#DejaVuSans-29" x="367.578125"/>
     </g>
    </g>
   </g>
   <g id="matplotlib.axis_2">
    <g id="ytick_1">
     <g id="line2d_5">
      <defs>
       <path id="me283b4a9ff" d="M 0 0 
L -3.5 0 
" style="stroke: #212121; stroke-width: 0.8"/>
      </defs>
      <g>
       <use xlink:href="#me283b4a9ff" x="120.21" y="352.163947" style="fill: #212121; stroke: #212121; stroke-width: 0.8"/>
      </g>
     </g>
     <g id="text_6">
      <!-- 0 -->
      <g style="fill: #212121" transform="translate(99.2125 360.522228)scale(0.22 -0.22)">
       <use xlink:href="#DejaVuSans-30"/>
      </g>
     </g>
    </g>
    <g id="ytick_2">
     <g id="line2d_6">
      <g>
       <use xlink:href="#me283b4a9ff" x="120.21" y="294.485733" style="fill: #212121; stroke: #212121; stroke-width: 0.8"/>
      </g>
     </g>
     <g id="text_7">
      <!-- 50 -->
      <g style="fill: #212121" transform="translate(85.215 302.844014)scale(0.22 -0.22)">
       <defs>
        <path id="DejaVuSans-35" d="M 691 4666 
L 3169 4666 
L 3169 4134 
L 1269 4134 
L 1269 2991 
Q 1406 3038 1543 3061 
Q 1681 3084 1819 3084 
Q 2600 3084 3056 2656 
Q 3513 2228 3513 1497 
Q 3513 744 3044 326 
Q 2575 -91 1722 -91 
Q 1428 -91 1123 -41 
Q 819 9 494 109 
L 494 744 
Q 775 591 1075 516 
Q 1375 441 1709 441 
Q 2250 441 2565 725 
Q 2881 1009 2881 1497 
Q 2881 1984 2565 2268 
Q 2250 2553 1709 2553 
Q 1456 2553 1204 2497 
Q 953 2441 691 2322 
L 691 4666 
z
" transform="scale(0.015625)"/>
       </defs>
       <use xlink:href="#DejaVuSans-35"/>
       <use xlink:href="#DejaVuSans-30" x="63.623047"/>
      </g>
     </g>
    </g>
    <g id="ytick_3">
     <g id="line2d_7">
      <g>
       <use xlink:href="#me283b4a9ff" x="120.21" y="236.807519" style="fill: #212121; stroke: #212121; stroke-width: 0.8"/>
      </g>
     </g>
     <g id="text_8">
      <!-- 100 -->
      <g style="fill: #212121" transform="translate(71.2175 245.1658)scale(0.22 -0.22)">
       <use xlink:href="#DejaVuSans-31"/>
       <use xlink:href="#DejaVuSans-30" x="63.623047"/>
       <use xlink:href="#DejaVuSans-30" x="127.246094"/>
      </g>
     </g>
    </g>
    <g id="ytick_4">
     <g id="line2d_8">
      <g>
       <use xlink:href="#me283b4a9ff" x="120.21" y="179.129305" style="fill: #212121; stroke: #212121; stroke-width: 0.8"/>
      </g>
     </g>
     <g id="text_9">
      <!-- 150 -->
      <g style="fill: #212121" transform="translate(71.2175 187.487587)scale(0.22 -0.22)">
       <use xlink:href="#DejaVuSans-31"/>
       <use xlink:href="#DejaVuSans-35" x="63.623047"/>
       <use xlink:href="#DejaVuSans-30" x="127.246094"/>
      </g>
     </g>
    </g>
    <g id="ytick_5">
     <g id="line2d_9">
      <g>
       <use xlink:href="#me283b4a9ff" x="120.21" y="121.451092" style="fill: #212121; stroke: #212121; stroke-width: 0.8"/>
      </g>
     </g>
     <g id="text_10">
      <!-- 200 -->
      <g style="fill: #212121" transform="translate(71.2175 129.809373)scale(0.22 -0.22)">
       <use xlink:href="#DejaVuSans-32"/>
       <use xlink:href="#DejaVuSans-30" x="63.623047"/>
       <use xlink:href="#DejaVuSans-30" x="127.246094"/>
      </g>
     </g>
    </g>
    <g id="ytick_6">
     <g id="line2d_10">
      <g>
       <use xlink:href="#me283b4a9ff" x="120.21" y="63.772878" style="fill: #212121; stroke: #212121; stroke-width: 0.8"/>
      </g>
     </g>
     <g id="text_11">
      <!-- 250 -->
      <g style="fill: #212121" transform="translate(71.2175 72.131159)scale(0.22 -0.22)">
       <use xlink:href="#DejaVuSans-32"/>
       <use xlink:href="#DejaVuSans-35" x="63.623047"/>
       <use xlink:href="#DejaVuSans-30" x="127.246094"/>
      </g>
     </g>
    </g>
    <g id="text_12">
     <!-- Landmark -->
     <g style="fill: #212121" transform="translate(38.007 245.671875)rotate(-90)scale(0.22 -0.22)">
      <defs>
       <path id="DejaVuSans-4c" d="M 628 4666 
L 1259 4666 
L 1259 531 
L 3531 531 
L 3531 0 
L 628 0 
L 628 4666 
z
" transform="scale(0.015625)"/>
       <path id="DejaVuSans-61" d="M 2194 1759 
Q 1497 1759 1228 1600 
Q 959 1441 959 1056 
Q 959 750 1161 570 
Q 1363 391 1709 391 
Q 2188 391 2477 730 
Q 2766 1069 2766 1631 
L 2766 1759 
L 2194 1759 
z
M 3341 1997 
L 3341 0 
L 2766 0 
L 2766 531 
Q 2569 213 2275 61 
Q 1981 -91 1556 -91 
Q 1019 -91 701 211 
Q 384 513 384 1019 
Q 384 1609 779 1909 
Q 1175 2209 1959 2209 
L 2766 2209 
L 2766 2266 
Q 2766 2663 2505 2880 
Q 2244 3097 1772 3097 
Q 1472 3097 1187 3025 
Q 903 2953 641 2809 
L 641 3341 
Q 956 3463 1253 3523 
Q 1550 3584 1831 3584 
Q 2591 3584 2966 3190 
Q 3341 2797 3341 1997 
z
" transform="scale(0.015625)"/>
       <path id="DejaVuSans-6e" d="M 3513 2113 
L 3513 0 
L 2938 0 
L 2938 2094 
Q 2938 2591 2744 2837 
Q 2550 3084 2163 3084 
Q 1697 3084 1428 2787 
Q 1159 2491 1159 1978 
L 1159 0 
L 581 0 
L 581 3500 
L 1159 3500 
L 1159 2956 
Q 1366 3272 1645 3428 
Q 1925 3584 2291 3584 
Q 2894 3584 3203 3211 
Q 3513 2838 3513 2113 
z
" transform="scale(0.015625)"/>
       <path id="DejaVuSans-64" d="M 2906 2969 
L 2906 4863 
L 3481 4863 
L 3481 0 
L 2906 0 
L 2906 525 
Q 2725 213 2448 61 
Q 2172 -91 1784 -91 
Q 1150 -91 751 415 
Q 353 922 353 1747 
Q 353 2572 751 3078 
Q 1150 3584 1784 3584 
Q 2172 3584 2448 3432 
Q 2725 3281 2906 2969 
z
M 947 1747 
Q 947 1113 1208 752 
Q 1469 391 1925 391 
Q 2381 391 2643 752 
Q 2906 1113 2906 1747 
Q 2906 2381 2643 2742 
Q 2381 3103 1925 3103 
Q 1469 3103 1208 2742 
Q 947 2381 947 1747 
z
" transform="scale(0.015625)"/>
       <path id="DejaVuSans-72" d="M 2631 2963 
Q 2534 3019 2420 3045 
Q 2306 3072 2169 3072 
Q 1681 3072 1420 2755 
Q 1159 2438 1159 1844 
L 1159 0 
L 581 0 
L 581 3500 
L 1159 3500 
L 1159 2956 
Q 1341 3275 1631 3429 
Q 1922 3584 2338 3584 
Q 2397 3584 2469 3576 
Q 2541 3569 2628 3553 
L 2631 2963 
z
" transform="scale(0.015625)"/>
       <path id="DejaVuSans-6b" d="M 581 4863 
L 1159 4863 
L 1159 1991 
L 2875 3500 
L 3609 3500 
L 1753 1863 
L 3688 0 
L 2938 0 
L 1159 1709 
L 1159 0 
L 581 0 
L 581 4863 
z
" transform="scale(0.015625)"/>
      </defs>
      <use xlink:href="#DejaVuSans-4c"/>
      <use xlink:href="#DejaVuSans-61" x="55.712891"/>
      <use xlink:href="#DejaVuSans-6e" x="116.992188"/>
      <use xlink:href="#DejaVuSans-64" x="180.371094"/>
      <use xlink:href="#DejaVuSans-6d" x="243.847656"/>
      <use xlink:href="#DejaVuSans-61" x="341.259766"/>
      <use xlink:href="#DejaVuSans-72" x="402.539062"/>
      <use xlink:href="#DejaVuSans-6b" x="443.652344"/>
     </g>
     <!-- Coordinate (mm) -->
     <g style="fill: #212121" transform="translate(62.642188 284.312813)rotate(-90)scale(0.22 -0.22)">
      <defs>
       <path id="DejaVuSans-43" d="M 4122 4306 
L 4122 3641 
Q 3803 3938 3442 4084 
Q 3081 4231 2675 4231 
Q 1875 4231 1450 3742 
Q 1025 3253 1025 2328 
Q 1025 1406 1450 917 
Q 1875 428 2675 428 
Q 3081 428 3442 575 
Q 3803 722 4122 1019 
L 4122 359 
Q 3791 134 3420 21 
Q 3050 -91 2638 -91 
Q 1578 -91 968 557 
Q 359 1206 359 2328 
Q 359 3453 968 4101 
Q 1578 4750 2638 4750 
Q 3056 4750 3426 4639 
Q 3797 4528 4122 4306 
z
" transform="scale(0.015625)"/>
       <path id="DejaVuSans-6f" d="M 1959 3097 
Q 1497 3097 1228 2736 
Q 959 2375 959 1747 
Q 959 1119 1226 758 
Q 1494 397 1959 397 
Q 2419 397 2687 759 
Q 2956 1122 2956 1747 
Q 2956 2369 2687 2733 
Q 2419 3097 1959 3097 
z
M 1959 3584 
Q 2709 3584 3137 3096 
Q 3566 2609 3566 1747 
Q 3566 888 3137 398 
Q 2709 -91 1959 -91 
Q 1206 -91 779 398 
Q 353 888 353 1747 
Q 353 2609 779 3096 
Q 1206 3584 1959 3584 
z
" transform="scale(0.015625)"/>
       <path id="DejaVuSans-74" d="M 1172 4494 
L 1172 3500 
L 2356 3500 
L 2356 3053 
L 1172 3053 
L 1172 1153 
Q 1172 725 1289 603 
Q 1406 481 1766 481 
L 2356 481 
L 2356 0 
L 1766 0 
Q 1100 0 847 248 
Q 594 497 594 1153 
L 594 3053 
L 172 3053 
L 172 3500 
L 594 3500 
L 594 4494 
L 1172 4494 
z
" transform="scale(0.015625)"/>
      </defs>
      <use xlink:href="#DejaVuSans-43"/>
      <use xlink:href="#DejaVuSans-6f" x="69.824219"/>
      <use xlink:href="#DejaVuSans-6f" x="131.005859"/>
      <use xlink:href="#DejaVuSans-72" x="192.1875"/>
      <use xlink:href="#DejaVuSans-64" x="231.550781"/>
      <use xlink:href="#DejaVuSans-69" x="295.027344"/>
      <use xlink:href="#DejaVuSans-6e" x="322.810547"/>
      <use xlink:href="#DejaVuSans-61" x="386.189453"/>
      <use xlink:href="#DejaVuSans-74" x="447.46875"/>
      <use xlink:href="#DejaVuSans-65" x="486.677734"/>
      <use xlink:href="#DejaVuSans-20" x="548.201172"/>
      <use xlink:href="#DejaVuSans-28" x="579.988281"/>
      <use xlink:href="#DejaVuSans-6d" x="619.001953"/>
      <use xlink:href="#DejaVuSans-6d" x="716.414062"/>
      <use xlink:href="#DejaVuSans-29" x="813.826172"/>
     </g>
    </g>
   </g>
   <g id="line2d_11">
    <path d="M 140.387727 298.933415 
L 182.219601 298.868585 
L 185.910649 298.673979 
L 192.062395 298.118999 
L 199.44449 297.285664 
L 201.905188 297.166847 
L 204.365887 297.428591 
L 206.826585 298.162373 
L 208.056935 298.738232 
L 210.517633 300.342725 
L 212.978331 301.925646 
L 215.43903 302.979888 
L 216.669379 303.678833 
L 217.899728 304.047051 
L 220.360427 304.134029 
L 221.590776 304.805519 
L 222.821125 305.997958 
L 224.051475 307.525162 
L 227.742522 311.149661 
L 228.972871 312.235742 
L 230.203221 313.118334 
L 231.43357 313.179242 
L 232.663919 314.438934 
L 240.046014 317.698215 
L 242.506713 318.183058 
L 243.737062 318.63041 
L 244.967411 318.819249 
L 246.197761 319.869107 
L 247.42811 320.558131 
L 248.658459 321.571538 
L 251.119157 322.981655 
L 253.579856 324.619139 
L 254.810205 325.202843 
L 259.731602 328.405945 
L 260.961951 329.208941 
L 265.883348 331.638116 
L 267.113697 332.164718 
L 269.574396 332.849705 
L 270.804745 334.255669 
L 273.265443 334.88563 
L 275.726142 335.226624 
L 276.956491 335.743075 
L 278.18684 336.612055 
L 281.877888 337.896549 
L 284.338586 338.403309 
L 285.568936 338.606567 
L 289.259983 338.90857 
L 290.490333 339.168699 
L 294.18138 339.321777 
L 300.333126 339.815157 
L 302.793825 340.361254 
L 305.254523 340.880023 
L 307.715222 341.265983 
L 310.17592 341.511254 
L 312.636619 341.769041 
L 321.249063 342.081818 
L 324.940111 341.645817 
L 327.400809 340.858809 
L 328.631159 340.211175 
L 329.861508 339.700146 
L 331.091857 338.747533 
L 332.322206 338.24008 
L 333.552555 337.190798 
L 334.782905 336.736755 
L 337.243603 335.430805 
L 338.473952 335.336789 
L 342.165 333.438484 
L 343.395349 333.142364 
L 348.316746 329.535745 
L 350.777445 327.968052 
L 352.007794 327.511471 
L 353.238143 327.451255 
L 354.468492 326.80076 
L 358.15954 325.212763 
L 361.850588 323.605618 
L 364.311286 322.937935 
L 365.541635 322.677114 
L 372.923731 320.424779 
L 376.614778 318.630526 
L 380.305826 318.127802 
L 382.766524 317.554019 
L 385.227223 317.358029 
L 387.687921 316.824621 
L 388.918271 316.417528 
L 390.14862 315.532283 
L 391.378969 315.058168 
L 392.609318 314.74163 
L 393.839667 314.177767 
L 396.300366 313.317439 
L 397.530715 313.486782 
L 399.991414 313.48609 
L 401.221763 312.692323 
L 402.452112 312.187062 
L 407.373509 310.849388 
L 408.603858 310.150328 
L 409.834207 309.593734 
L 412.294906 309.229092 
L 413.525255 309.441579 
L 417.216303 311.161889 
L 419.677001 311.828303 
L 424.598398 311.935585 
L 428.289446 311.944582 
L 429.519795 312.961449 
L 430.750144 313.436948 
L 433.210843 311.223374 
L 434.441192 310.607832 
L 435.671541 310.239038 
L 438.132239 309.843826 
L 441.823287 309.51806 
L 447.975033 309.235552 
L 463.969573 308.693377 
L 467.660621 308.45805 
L 476.273065 308.270134 
L 482.424812 308.294474 
L 483.655161 308.814386 
L 484.88551 309.021912 
L 487.346208 309.105084 
L 495.958653 309.020412 
L 500.88005 309.227362 
L 504.571098 309.677367 
L 505.801447 309.821447 
L 508.262145 310.760795 
L 510.722844 311.997992 
L 511.953193 312.458495 
L 514.413891 313.032278 
L 521.795987 314.429706 
L 524.256685 314.629849 
L 535.329828 315.050669 
L 543.942273 315.171678 
L 543.942273 315.171678 
" clip-path="url(#p32d3c35478)" style="fill: none; stroke: #1f77b4; stroke-width: 3; stroke-linecap: square"/>
   </g>
   <g id="line2d_12">
    <path d="M 140.387727 169.973466 
L 184.680299 170.325303 
L 188.371347 169.979234 
L 192.062395 169.37938 
L 196.983792 168.423075 
L 199.44449 167.763237 
L 201.905188 166.564683 
L 205.596236 163.460442 
L 209.287284 159.252239 
L 210.517633 157.464215 
L 211.747982 156.515985 
L 212.978331 155.147858 
L 216.669379 150.052564 
L 217.899728 148.511402 
L 219.130078 148.835554 
L 220.360427 148.943989 
L 221.590776 148.899 
L 222.821125 148.389125 
L 225.281824 146.772981 
L 226.512173 145.463686 
L 227.742522 143.373427 
L 228.972871 139.82737 
L 230.203221 135.254642 
L 232.663919 129.072691 
L 233.894268 127.013578 
L 235.124618 125.597002 
L 236.354967 124.572636 
L 237.585316 121.829461 
L 238.815665 119.727667 
L 240.046014 118.703301 
L 241.276364 114.976135 
L 242.506713 107.907093 
L 243.737062 106.29095 
L 244.967411 105.85721 
L 246.197761 101.171432 
L 247.42811 99.84714 
L 248.658459 95.438217 
L 249.888808 94.226975 
L 252.349507 87.142936 
L 253.579856 84.271715 
L 254.810205 82.111089 
L 256.040554 80.226165 
L 257.270904 77.88789 
L 258.501253 74.993597 
L 259.731602 72.716462 
L 260.961951 70.946894 
L 262.1923 68.202565 
L 263.42265 66.180366 
L 264.652999 64.625362 
L 265.883348 63.506404 
L 267.113697 62.072524 
L 269.574396 59.95458 
L 270.804745 54.931961 
L 272.035094 54.548978 
L 273.265443 53.961814 
L 274.495793 53.240836 
L 275.726142 52.690586 
L 276.956491 51.263627 
L 278.18684 49.206822 
L 279.41719 47.935594 
L 280.647539 45.738054 
L 281.877888 44.510661 
L 284.338586 43.059478 
L 285.568936 42.480388 
L 288.029634 41.678661 
L 290.490333 39.941393 
L 292.951031 39.486889 
L 295.411729 39.061224 
L 297.872428 38.918182 
L 300.333126 38.974706 
L 301.563476 39.340386 
L 302.793825 40.280541 
L 304.024174 40.929998 
L 305.254523 42.491924 
L 306.484873 43.013335 
L 307.715222 44.133446 
L 308.945571 45.844182 
L 310.17592 46.828172 
L 311.406269 48.445469 
L 312.636619 48.360105 
L 313.866968 49.642869 
L 316.327666 51.951151 
L 317.558016 54.528214 
L 318.788365 56.829574 
L 320.018714 57.400589 
L 321.249063 59.065182 
L 322.479412 60.263735 
L 323.709762 63.0196 
L 324.940111 66.067317 
L 326.17046 68.617848 
L 327.400809 70.876527 
L 328.631159 73.418982 
L 329.861508 74.837866 
L 338.473952 91.797568 
L 339.704302 94.947952 
L 340.934651 97.707278 
L 343.395349 101.745907 
L 345.856048 106.236732 
L 347.086397 108.849555 
L 349.547095 113.339228 
L 352.007794 118.177276 
L 353.238143 120.16256 
L 354.468492 122.519292 
L 359.389889 131.021061 
L 360.620238 133.134391 
L 363.080937 136.799264 
L 364.311286 138.466165 
L 368.002334 144.197072 
L 370.463032 147.714289 
L 372.923731 151.278803 
L 374.15408 152.666541 
L 375.384429 154.663361 
L 376.614778 155.815771 
L 377.845127 156.755926 
L 381.536175 160.819933 
L 382.766524 162.676018 
L 383.996874 164.859715 
L 385.227223 166.753868 
L 386.457572 167.182994 
L 387.687921 168.508439 
L 390.14862 172.607053 
L 391.378969 174.28895 
L 392.609318 175.403293 
L 395.070017 180.956551 
L 396.300366 182.994899 
L 399.991414 184.954805 
L 406.14316 188.227467 
L 407.373509 188.6266 
L 408.603858 191.550886 
L 409.834207 192.449512 
L 411.064557 192.82096 
L 412.294906 193.03783 
L 415.985953 194.757794 
L 417.216303 195.502997 
L 418.446652 195.977112 
L 419.677001 196.323181 
L 420.90735 198.30039 
L 422.1377 199.538165 
L 424.598398 200.6825 
L 428.289446 201.047027 
L 429.519795 201.543059 
L 430.750144 201.734551 
L 433.210843 202.704699 
L 435.671541 203.010393 
L 441.823287 203.196117 
L 455.357129 203.31378 
L 457.817827 203.237645 
L 475.042716 202.305565 
L 479.964113 202.19713 
L 482.424812 202.253655 
L 484.88551 202.805059 
L 486.115859 203.019622 
L 492.267605 203.130364 
L 493.497955 203.153435 
L 494.728304 203.304552 
L 503.340748 203.605632 
L 504.571098 203.911327 
L 507.031796 204.251628 
L 509.492494 204.347374 
L 514.413891 204.416588 
L 521.795987 204.395824 
L 536.560177 204.633458 
L 542.711924 204.714207 
L 543.942273 204.604619 
L 543.942273 204.604619 
" clip-path="url(#p32d3c35478)" style="fill: none; stroke: #ff7f0e; stroke-width: 3; stroke-linecap: square"/>
   </g>
   <g id="line2d_13">
    <path d="M 140.387727 295.282846 
L 187.140998 295.480567 
L 189.601696 295.578274 
L 193.292744 295.86355 
L 199.44449 296.310326 
L 201.905188 296.591565 
L 206.826585 296.849963 
L 209.287284 297.742822 
L 212.978331 299.618287 
L 215.43903 301.809251 
L 216.669379 302.693689 
L 217.899728 303.088093 
L 219.130078 303.11947 
L 220.360427 303.285583 
L 222.821125 305.051574 
L 224.051475 305.621204 
L 225.281824 305.955623 
L 226.512173 306.088283 
L 227.742522 306.001765 
L 230.203221 306.591698 
L 231.43357 308.158238 
L 232.663919 308.450205 
L 233.894268 308.298742 
L 236.354967 308.724523 
L 237.585316 309.07809 
L 238.815665 309.663986 
L 241.276364 310.339974 
L 242.506713 310.004056 
L 244.967411 309.905542 
L 246.197761 309.103584 
L 247.42811 308.748748 
L 248.658459 308.113711 
L 249.888808 308.050726 
L 251.119157 307.415689 
L 254.810205 306.509449 
L 256.040554 306.71709 
L 259.731602 305.43525 
L 263.42265 304.265536 
L 264.652999 303.886128 
L 268.344047 303.507759 
L 269.574396 303.27001 
L 270.804745 301.833476 
L 272.035094 301.706699 
L 275.726142 300.755932 
L 276.956491 301.088389 
L 278.18684 301.93672 
L 279.41719 302.193619 
L 280.647539 302.734179 
L 281.877888 303.119239 
L 283.108237 303.305539 
L 285.568936 303.220637 
L 288.029634 302.908252 
L 289.259983 302.482817 
L 300.333126 302.019892 
L 301.563476 302.131788 
L 302.793825 302.515233 
L 304.024174 302.732564 
L 305.254523 303.352605 
L 306.484873 303.451235 
L 307.715222 303.754968 
L 308.945571 304.182018 
L 310.17592 304.414115 
L 311.406269 304.903803 
L 312.636619 304.77495 
L 316.327666 305.807274 
L 317.558016 306.821257 
L 318.788365 307.556193 
L 320.018714 307.625061 
L 321.249063 307.992817 
L 322.479412 308.06007 
L 323.709762 308.245678 
L 324.940111 308.787508 
L 326.17046 309.174874 
L 328.631159 309.309842 
L 329.861508 308.881754 
L 331.091857 308.281093 
L 332.322206 308.043459 
L 333.552555 307.021401 
L 334.782905 306.637033 
L 337.243603 306.259471 
L 338.473952 306.557668 
L 339.704302 306.612231 
L 342.165 306.341028 
L 343.395349 306.558706 
L 347.086397 305.218726 
L 350.777445 304.070237 
L 352.007794 303.795804 
L 353.238143 303.855213 
L 354.468492 303.66995 
L 360.620238 301.6098 
L 365.541635 300.552443 
L 370.463032 298.637757 
L 375.384429 296.49951 
L 376.614778 296.26626 
L 377.845127 296.184126 
L 380.305826 295.525556 
L 381.536175 295.08997 
L 382.766524 294.367839 
L 385.227223 292.640146 
L 386.457572 292.122311 
L 387.687921 291.414253 
L 388.918271 290.556808 
L 390.14862 289.842752 
L 392.609318 288.768438 
L 395.070017 286.699982 
L 396.300366 285.995385 
L 397.530715 285.821658 
L 401.221763 284.784142 
L 402.452112 284.521706 
L 406.14316 283.327306 
L 407.373509 283.096478 
L 408.603858 281.127805 
L 413.525255 280.920279 
L 415.985953 280.337959 
L 417.216303 279.925791 
L 419.677001 279.466211 
L 420.90735 278.118386 
L 422.1377 277.274208 
L 424.598398 276.494052 
L 428.289446 276.245113 
L 429.519795 275.734546 
L 433.210843 275.266545 
L 436.90189 275.4187 
L 446.744684 275.535094 
L 457.817827 275.683904 
L 462.739224 275.990522 
L 465.199922 276.179706 
L 468.89097 276.316173 
L 479.964113 276.476403 
L 482.424812 276.414457 
L 483.655161 275.74885 
L 484.88551 275.382132 
L 486.115859 275.168953 
L 497.189002 275.278311 
L 498.419351 275.365405 
L 502.110399 275.203214 
L 503.340748 275.115312 
L 509.492494 274.092447 
L 511.953193 273.756875 
L 515.644241 273.49144 
L 518.104939 273.391541 
L 520.565637 273.235464 
L 530.408431 273.073042 
L 536.560177 272.97049 
L 543.942273 272.98491 
L 543.942273 272.98491 
" clip-path="url(#p32d3c35478)" style="fill: none; stroke: #2ca02c; stroke-width: 3; stroke-linecap: square"/>
   </g>
   <g id="patch_3">
    <path d="M 120.21 357.24 
L 120.21 23.76 
" style="fill: none; stroke: #212121; stroke-width: 0.8; stroke-linejoin: miter; stroke-linecap: square"/>
   </g>
   <g id="patch_4">
    <path d="M 564.12 357.24 
L 564.12 23.76 
" style="fill: none; stroke: #212121; stroke-width: 0.8; stroke-linejoin: miter; stroke-linecap: square"/>
   </g>
   <g id="patch_5">
    <path d="M 120.21 357.24 
L 564.12 357.24 
" style="fill: none; stroke: #212121; stroke-width: 0.8; stroke-linejoin: miter; stroke-linecap: square"/>
   </g>
   <g id="patch_6">
    <path d="M 120.21 23.76 
L 564.12 23.76 
" style="fill: none; stroke: #212121; stroke-width: 0.8; stroke-linejoin: miter; stroke-linecap: square"/>
   </g>
   <g id="legend_1">
    <g id="line2d_14">
     <path d="M 467.65 52.576563 
L 489.65 52.576563 
L 511.65 52.576563 
" style="fill: none; stroke: #1f77b4; stroke-width: 3; stroke-linecap: square"/>
    </g>
    <g id="text_13">
     <!-- X -->
     <g style="fill: #212121" transform="translate(529.25 60.276563)scale(0.22 -0.22)">
      <defs>
       <path id="DejaVuSans-58" d="M 403 4666 
L 1081 4666 
L 2241 2931 
L 3406 4666 
L 4084 4666 
L 2584 2425 
L 4184 0 
L 3506 0 
L 2194 1984 
L 872 0 
L 191 0 
L 1856 2491 
L 403 4666 
z
" transform="scale(0.015625)"/>
      </defs>
      <use xlink:href="#DejaVuSans-58"/>
     </g>
    </g>
    <g id="line2d_15">
     <path d="M 467.65 84.868438 
L 489.65 84.868438 
L 511.65 84.868438 
" style="fill: none; stroke: #ff7f0e; stroke-width: 3; stroke-linecap: square"/>
    </g>
    <g id="text_14">
     <!-- Y -->
     <g style="fill: #212121" transform="translate(529.25 92.568438)scale(0.22 -0.22)">
      <defs>
       <path id="DejaVuSans-59" d="M -13 4666 
L 666 4666 
L 1959 2747 
L 3244 4666 
L 3922 4666 
L 2272 2222 
L 2272 0 
L 1638 0 
L 1638 2222 
L -13 4666 
z
" transform="scale(0.015625)"/>
      </defs>
      <use xlink:href="#DejaVuSans-59"/>
     </g>
    </g>
    <g id="line2d_16">
     <path d="M 467.65 117.160313 
L 489.65 117.160313 
L 511.65 117.160313 
" style="fill: none; stroke: #2ca02c; stroke-width: 3; stroke-linecap: square"/>
    </g>
    <g id="text_15">
     <!-- Z -->
     <g style="fill: #212121" transform="translate(529.25 124.860313)scale(0.22 -0.22)">
      <defs>
       <path id="DejaVuSans-5a" d="M 359 4666 
L 4025 4666 
L 4025 4184 
L 1075 531 
L 4097 531 
L 4097 0 
L 288 0 
L 288 481 
L 3238 4134 
L 359 4134 
L 359 4666 
z
" transform="scale(0.015625)"/>
      </defs>
      <use xlink:href="#DejaVuSans-5a"/>
     </g>
    </g>
   </g>
  </g>
  <g id="axes_2">
   <g id="patch_7">
    <path d="M 684.33 357.24 
L 1128.24 357.24 
L 1128.24 23.76 
L 684.33 23.76 
z
" style="fill: #ffffff"/>
   </g>
   <g id="matplotlib.axis_3">
    <g id="xtick_5">
     <g id="line2d_17">
      <g>
       <use xlink:href="#m37ecfce701" x="704.507727" y="357.24" style="fill: #212121; stroke: #212121; stroke-width: 0.8"/>
      </g>
     </g>
     <g id="text_16">
      <!-- 0 -->
      <g style="fill: #212121" transform="translate(697.508977 380.956562)scale(0.22 -0.22)">
       <use xlink:href="#DejaVuSans-30"/>
      </g>
     </g>
    </g>
    <g id="xtick_6">
     <g id="line2d_18">
      <g>
       <use xlink:href="#m37ecfce701" x="839.025909" y="357.24" style="fill: #212121; stroke: #212121; stroke-width: 0.8"/>
      </g>
     </g>
     <g id="text_17">
      <!-- 1 -->
      <g style="fill: #212121" transform="translate(832.027159 380.956562)scale(0.22 -0.22)">
       <use xlink:href="#DejaVuSans-31"/>
      </g>
     </g>
    </g>
    <g id="xtick_7">
     <g id="line2d_19">
      <g>
       <use xlink:href="#m37ecfce701" x="973.544091" y="357.24" style="fill: #212121; stroke: #212121; stroke-width: 0.8"/>
      </g>
     </g>
     <g id="text_18">
      <!-- 2 -->
      <g style="fill: #212121" transform="translate(966.545341 380.956562)scale(0.22 -0.22)">
       <use xlink:href="#DejaVuSans-32"/>
      </g>
     </g>
    </g>
    <g id="xtick_8">
     <g id="line2d_20">
      <g>
       <use xlink:href="#m37ecfce701" x="1108.062273" y="357.24" style="fill: #212121; stroke: #212121; stroke-width: 0.8"/>
      </g>
     </g>
     <g id="text_19">
      <!-- 3 -->
      <g style="fill: #212121" transform="translate(1101.063523 380.956562)scale(0.22 -0.22)">
       <use xlink:href="#DejaVuSans-33"/>
      </g>
     </g>
    </g>
    <g id="text_20">
     <!-- Time (s) -->
     <g style="fill: #212121" transform="translate(861.561406 406.248437)scale(0.22 -0.22)">
      <use xlink:href="#DejaVuSans-54"/>
      <use xlink:href="#DejaVuSans-69" x="57.958984"/>
      <use xlink:href="#DejaVuSans-6d" x="85.742188"/>
      <use xlink:href="#DejaVuSans-65" x="183.154297"/>
      <use xlink:href="#DejaVuSans-20" x="244.677734"/>
      <use xlink:href="#DejaVuSans-28" x="276.464844"/>
      <use xlink:href="#DejaVuSans-73" x="315.478516"/>
      <use xlink:href="#DejaVuSans-29" x="367.578125"/>
     </g>
    </g>
   </g>
   <g id="matplotlib.axis_4">
    <g id="ytick_7">
     <g id="line2d_21">
      <g>
       <use xlink:href="#me283b4a9ff" x="684.33" y="352.470721" style="fill: #212121; stroke: #212121; stroke-width: 0.8"/>
      </g>
     </g>
     <g id="text_21">
      <!-- 0 -->
      <g style="fill: #212121" transform="translate(663.3325 360.829002)scale(0.22 -0.22)">
       <use xlink:href="#DejaVuSans-30"/>
      </g>
     </g>
    </g>
    <g id="ytick_8">
     <g id="line2d_22">
      <g>
       <use xlink:href="#me283b4a9ff" x="684.33" y="294.232247" style="fill: #212121; stroke: #212121; stroke-width: 0.8"/>
      </g>
     </g>
     <g id="text_22">
      <!-- 50 -->
      <g style="fill: #212121" transform="translate(649.335 302.590528)scale(0.22 -0.22)">
       <use xlink:href="#DejaVuSans-35"/>
       <use xlink:href="#DejaVuSans-30" x="63.623047"/>
      </g>
     </g>
    </g>
    <g id="ytick_9">
     <g id="line2d_23">
      <g>
       <use xlink:href="#me283b4a9ff" x="684.33" y="235.993773" style="fill: #212121; stroke: #212121; stroke-width: 0.8"/>
      </g>
     </g>
     <g id="text_23">
      <!-- 100 -->
      <g style="fill: #212121" transform="translate(635.3375 244.352054)scale(0.22 -0.22)">
       <use xlink:href="#DejaVuSans-31"/>
       <use xlink:href="#DejaVuSans-30" x="63.623047"/>
       <use xlink:href="#DejaVuSans-30" x="127.246094"/>
      </g>
     </g>
    </g>
    <g id="ytick_10">
     <g id="line2d_24">
      <g>
       <use xlink:href="#me283b4a9ff" x="684.33" y="177.755299" style="fill: #212121; stroke: #212121; stroke-width: 0.8"/>
      </g>
     </g>
     <g id="text_24">
      <!-- 150 -->
      <g style="fill: #212121" transform="translate(635.3375 186.11358)scale(0.22 -0.22)">
       <use xlink:href="#DejaVuSans-31"/>
       <use xlink:href="#DejaVuSans-35" x="63.623047"/>
       <use xlink:href="#DejaVuSans-30" x="127.246094"/>
      </g>
     </g>
    </g>
    <g id="ytick_11">
     <g id="line2d_25">
      <g>
       <use xlink:href="#me283b4a9ff" x="684.33" y="119.516824" style="fill: #212121; stroke: #212121; stroke-width: 0.8"/>
      </g>
     </g>
     <g id="text_25">
      <!-- 200 -->
      <g style="fill: #212121" transform="translate(635.3375 127.875106)scale(0.22 -0.22)">
       <use xlink:href="#DejaVuSans-32"/>
       <use xlink:href="#DejaVuSans-30" x="63.623047"/>
       <use xlink:href="#DejaVuSans-30" x="127.246094"/>
      </g>
     </g>
    </g>
    <g id="ytick_12">
     <g id="line2d_26">
      <g>
       <use xlink:href="#me283b4a9ff" x="684.33" y="61.27835" style="fill: #212121; stroke: #212121; stroke-width: 0.8"/>
      </g>
     </g>
     <g id="text_26">
      <!-- 250 -->
      <g style="fill: #212121" transform="translate(635.3375 69.636631)scale(0.22 -0.22)">
       <use xlink:href="#DejaVuSans-32"/>
       <use xlink:href="#DejaVuSans-35" x="63.623047"/>
       <use xlink:href="#DejaVuSans-30" x="127.246094"/>
      </g>
     </g>
    </g>
    <g id="text_27">
     <!-- Landmark -->
     <g style="fill: #212121" transform="translate(602.127 245.671875)rotate(-90)scale(0.22 -0.22)">
      <use xlink:href="#DejaVuSans-4c"/>
      <use xlink:href="#DejaVuSans-61" x="55.712891"/>
      <use xlink:href="#DejaVuSans-6e" x="116.992188"/>
      <use xlink:href="#DejaVuSans-64" x="180.371094"/>
      <use xlink:href="#DejaVuSans-6d" x="243.847656"/>
      <use xlink:href="#DejaVuSans-61" x="341.259766"/>
      <use xlink:href="#DejaVuSans-72" x="402.539062"/>
      <use xlink:href="#DejaVuSans-6b" x="443.652344"/>
     </g>
     <!-- Coordinate (mm) -->
     <g style="fill: #212121" transform="translate(626.762187 284.312813)rotate(-90)scale(0.22 -0.22)">
      <use xlink:href="#DejaVuSans-43"/>
      <use xlink:href="#DejaVuSans-6f" x="69.824219"/>
      <use xlink:href="#DejaVuSans-6f" x="131.005859"/>
      <use xlink:href="#DejaVuSans-72" x="192.1875"/>
      <use xlink:href="#DejaVuSans-64" x="231.550781"/>
      <use xlink:href="#DejaVuSans-69" x="295.027344"/>
      <use xlink:href="#DejaVuSans-6e" x="322.810547"/>
      <use xlink:href="#DejaVuSans-61" x="386.189453"/>
      <use xlink:href="#DejaVuSans-74" x="447.46875"/>
      <use xlink:href="#DejaVuSans-65" x="486.677734"/>
      <use xlink:href="#DejaVuSans-20" x="548.201172"/>
      <use xlink:href="#DejaVuSans-28" x="579.988281"/>
      <use xlink:href="#DejaVuSans-6d" x="619.001953"/>
      <use xlink:href="#DejaVuSans-6d" x="716.414062"/>
      <use xlink:href="#DejaVuSans-29" x="813.826172"/>
     </g>
    </g>
   </g>
   <g id="line2d_27">
    <path d="M 704.507727 298.072251 
L 708.198775 298.624654 
L 711.889823 298.996442 
L 715.58087 299.191417 
L 720.502267 299.204937 
L 725.423664 298.993933 
L 732.805759 298.429603 
L 742.648553 297.669328 
L 747.56995 297.472203 
L 752.491347 297.491783 
L 757.412744 297.783574 
L 761.103792 298.206349 
L 764.794839 298.817467 
L 768.485887 299.623928 
L 772.176935 300.628041 
L 775.867982 301.827613 
L 779.55903 303.216213 
L 784.480427 305.343332 
L 789.401824 307.753615 
L 794.323221 310.403583 
L 800.474967 313.974916 
L 810.317761 320.021325 
L 821.390904 326.777321 
L 827.54265 330.270101 
L 832.464047 332.83859 
L 837.385443 335.155421 
L 842.30684 337.180591 
L 845.997888 338.488201 
L 849.688936 339.602509 
L 853.379983 340.515353 
L 857.071031 341.221234 
L 860.762079 341.717317 
L 864.453126 342.003394 
L 868.144174 342.081818 
L 871.835222 341.957399 
L 875.526269 341.637267 
L 879.217317 341.130712 
L 884.138714 340.185045 
L 889.060111 338.959662 
L 893.981508 337.490634 
L 900.133254 335.372321 
L 907.515349 332.526025 
L 918.588492 327.93889 
L 930.891984 322.902611 
L 938.27408 320.131572 
L 944.425826 318.046818 
L 950.577572 316.203571 
L 956.729318 314.62176 
L 962.881064 313.306773 
L 969.03281 312.250145 
L 975.184557 311.430997 
L 981.336303 310.818173 
L 988.718398 310.300386 
L 998.561192 309.857366 
L 1037.932367 308.57566 
L 1046.544812 308.464078 
L 1052.696558 308.575784 
L 1058.848304 308.922622 
L 1063.769701 309.407999 
L 1068.691098 310.097422 
L 1073.612494 310.989281 
L 1079.764241 312.340695 
L 1090.837384 314.89806 
L 1094.528431 315.513283 
L 1096.98913 315.760136 
L 1099.449828 315.822551 
L 1101.910527 315.645808 
L 1104.371225 315.166654 
L 1106.831924 314.312444 
L 1108.062273 313.719198 
L 1108.062273 313.719198 
" clip-path="url(#p70c0e1d71f)" style="fill: none; stroke: #1f77b4; stroke-width: 3; stroke-linecap: square"/>
   </g>
   <g id="line2d_28">
    <path d="M 704.507727 172.962614 
L 706.968426 170.911545 
L 709.429124 169.243568 
L 711.889823 167.948396 
L 714.350521 167.007493 
L 716.81122 166.395514 
L 719.271918 166.081623 
L 721.732616 166.030691 
L 724.193315 166.204387 
L 726.654013 166.562164 
L 730.345061 167.352204 
L 737.727156 169.322646 
L 742.648553 170.487317 
L 746.339601 171.073102 
L 748.800299 171.266261 
L 751.260998 171.2687 
L 753.721696 171.05587 
L 756.182395 170.606555 
L 758.643093 169.902946 
L 761.103792 168.930688 
L 763.56449 167.678882 
L 766.025188 166.14005 
L 768.485887 164.310081 
L 770.946585 162.188141 
L 773.407284 159.776565 
L 775.867982 157.080719 
L 778.328681 154.108855 
L 780.789379 150.871938 
L 784.480427 145.549768 
L 788.171475 139.717388 
L 791.862522 133.440327 
L 796.783919 124.508491 
L 802.935665 112.716549 
L 817.699856 83.957987 
L 822.621253 74.987262 
L 826.3123 68.676173 
L 830.003348 62.810435 
L 833.694396 57.462413 
L 836.155094 54.217166 
L 838.615793 51.248471 
L 841.076491 48.572008 
L 843.53719 46.201716 
L 845.997888 44.149733 
L 848.458586 42.426352 
L 850.919285 41.039979 
L 853.379983 39.997116 
L 855.840682 39.302347 
L 858.30138 38.958339 
L 860.762079 38.965853 
L 863.222777 39.323769 
L 865.683476 40.029119 
L 868.144174 41.07713 
L 870.604873 42.46128 
L 873.065571 44.173361 
L 875.526269 46.203547 
L 877.986968 48.540482 
L 880.447666 51.171362 
L 882.908365 54.082031 
L 885.369063 57.257086 
L 889.060111 62.478914 
L 892.751159 68.198084 
L 896.442206 74.35023 
L 901.363603 83.109161 
L 906.285 92.350336 
L 913.667095 106.743851 
L 924.740238 128.416235 
L 930.891984 139.933435 
L 935.813381 148.648586 
L 939.504429 154.819266 
L 943.195477 160.631737 
L 946.886524 166.053068 
L 950.577572 171.057457 
L 954.26862 175.626438 
L 957.959667 179.748975 
L 961.650715 183.421429 
L 965.341763 186.647404 
L 967.802461 188.55496 
L 970.26316 190.273426 
L 972.723858 191.80882 
L 975.184557 193.168321 
L 978.875604 194.896103 
L 982.566652 196.278839 
L 986.2577 197.352607 
L 989.948747 198.156767 
L 993.639795 198.732991 
L 998.561192 199.221005 
L 1004.712938 199.523363 
L 1025.628875 200.205747 
L 1031.780621 200.751883 
L 1037.932367 201.507688 
L 1058.848304 204.326025 
L 1063.769701 204.581005 
L 1067.460748 204.56 
L 1071.151796 204.334739 
L 1074.842844 203.903092 
L 1079.764241 203.047994 
L 1090.837384 200.895332 
L 1093.298082 200.692452 
L 1095.75878 200.74972 
L 1098.219479 201.171552 
L 1099.449828 201.557148 
L 1100.680177 202.082108 
L 1101.910527 202.765409 
L 1103.140876 203.627554 
L 1104.371225 204.690653 
L 1105.601574 205.978501 
L 1106.831924 207.516671 
L 1108.062273 209.332596 
L 1108.062273 209.332596 
" clip-path="url(#p70c0e1d71f)" style="fill: none; stroke: #ff7f0e; stroke-width: 3; stroke-linecap: square"/>
   </g>
   <g id="line2d_29">
    <path d="M 704.507727 295.637821 
L 706.968426 295.758217 
L 710.659473 295.62862 
L 715.58087 295.139517 
L 724.193315 294.19303 
L 729.114712 293.889496 
L 734.036109 293.859971 
L 738.957506 294.123357 
L 743.878902 294.663208 
L 748.800299 295.43963 
L 754.952045 296.660299 
L 764.794839 298.914926 
L 775.867982 301.408629 
L 783.250078 302.817255 
L 789.401824 303.762877 
L 795.55357 304.479933 
L 801.705316 304.971129 
L 807.857062 305.256673 
L 815.239157 305.375281 
L 825.081951 305.273545 
L 854.610333 304.748446 
L 868.144174 304.85948 
L 887.829762 305.062541 
L 895.211857 304.923826 
L 901.363603 304.625587 
L 907.515349 304.113188 
L 913.667095 303.347853 
L 918.588492 302.533229 
L 923.509889 301.527837 
L 928.431286 300.327565 
L 933.352683 298.934507 
L 939.504429 296.935951 
L 945.656175 294.682027 
L 953.038271 291.708825 
L 964.111414 286.940011 
L 975.184557 282.227108 
L 981.336303 279.826774 
L 986.2577 278.095454 
L 991.179096 276.576553 
L 996.100493 275.304883 
L 1001.02189 274.307277 
L 1005.943287 273.600667 
L 1010.864684 273.190329 
L 1015.786081 273.068409 
L 1020.707478 273.212842 
L 1025.628875 273.586798 
L 1031.780621 274.297252 
L 1050.235859 276.667646 
L 1055.157256 276.953226 
L 1058.848304 276.971797 
L 1062.539351 276.793791 
L 1066.230399 276.403141 
L 1069.921447 275.79658 
L 1073.612494 274.987564 
L 1078.533891 273.657549 
L 1088.376685 270.850258 
L 1090.837384 270.348172 
L 1093.298082 270.041668 
L 1095.75878 270.008007 
L 1098.219479 270.337459 
L 1099.449828 270.670441 
L 1100.680177 271.134622 
L 1101.910527 271.745546 
L 1103.140876 272.519835 
L 1104.371225 273.475238 
L 1105.601574 274.630679 
L 1106.831924 276.006311 
L 1108.062273 277.62357 
L 1108.062273 277.62357 
" clip-path="url(#p70c0e1d71f)" style="fill: none; stroke: #2ca02c; stroke-width: 3; stroke-linecap: square"/>
   </g>
   <g id="patch_8">
    <path d="M 684.33 357.24 
L 684.33 23.76 
" style="fill: none; stroke: #212121; stroke-width: 0.8; stroke-linejoin: miter; stroke-linecap: square"/>
   </g>
   <g id="patch_9">
    <path d="M 1128.24 357.24 
L 1128.24 23.76 
" style="fill: none; stroke: #212121; stroke-width: 0.8; stroke-linejoin: miter; stroke-linecap: square"/>
   </g>
   <g id="patch_10">
    <path d="M 684.33 357.24 
L 1128.24 357.24 
" style="fill: none; stroke: #212121; stroke-width: 0.8; stroke-linejoin: miter; stroke-linecap: square"/>
   </g>
   <g id="patch_11">
    <path d="M 684.33 23.76 
L 1128.24 23.76 
" style="fill: none; stroke: #212121; stroke-width: 0.8; stroke-linejoin: miter; stroke-linecap: square"/>
   </g>
   <g id="legend_2">
    <g id="line2d_30">
     <path d="M 930.284688 52.576563 
L 952.284688 52.576563 
L 974.284688 52.576563 
" style="fill: none; stroke: #1f77b4; stroke-width: 3; stroke-linecap: square"/>
    </g>
    <g id="text_28">
     <!-- X (Approx) -->
     <g style="fill: #212121" transform="translate(991.884688 60.276563)scale(0.22 -0.22)">
      <defs>
       <path id="DejaVuSans-41" d="M 2188 4044 
L 1331 1722 
L 3047 1722 
L 2188 4044 
z
M 1831 4666 
L 2547 4666 
L 4325 0 
L 3669 0 
L 3244 1197 
L 1141 1197 
L 716 0 
L 50 0 
L 1831 4666 
z
" transform="scale(0.015625)"/>
       <path id="DejaVuSans-70" d="M 1159 525 
L 1159 -1331 
L 581 -1331 
L 581 3500 
L 1159 3500 
L 1159 2969 
Q 1341 3281 1617 3432 
Q 1894 3584 2278 3584 
Q 2916 3584 3314 3078 
Q 3713 2572 3713 1747 
Q 3713 922 3314 415 
Q 2916 -91 2278 -91 
Q 1894 -91 1617 61 
Q 1341 213 1159 525 
z
M 3116 1747 
Q 3116 2381 2855 2742 
Q 2594 3103 2138 3103 
Q 1681 3103 1420 2742 
Q 1159 2381 1159 1747 
Q 1159 1113 1420 752 
Q 1681 391 2138 391 
Q 2594 391 2855 752 
Q 3116 1113 3116 1747 
z
" transform="scale(0.015625)"/>
       <path id="DejaVuSans-78" d="M 3513 3500 
L 2247 1797 
L 3578 0 
L 2900 0 
L 1881 1375 
L 863 0 
L 184 0 
L 1544 1831 
L 300 3500 
L 978 3500 
L 1906 2253 
L 2834 3500 
L 3513 3500 
z
" transform="scale(0.015625)"/>
      </defs>
      <use xlink:href="#DejaVuSans-58"/>
      <use xlink:href="#DejaVuSans-20" x="68.505859"/>
      <use xlink:href="#DejaVuSans-28" x="100.292969"/>
      <use xlink:href="#DejaVuSans-41" x="139.306641"/>
      <use xlink:href="#DejaVuSans-70" x="207.714844"/>
      <use xlink:href="#DejaVuSans-70" x="271.191406"/>
      <use xlink:href="#DejaVuSans-72" x="334.667969"/>
      <use xlink:href="#DejaVuSans-6f" x="373.53125"/>
      <use xlink:href="#DejaVuSans-78" x="431.587891"/>
      <use xlink:href="#DejaVuSans-29" x="490.767578"/>
     </g>
    </g>
    <g id="line2d_31">
     <path d="M 930.284688 84.868438 
L 952.284688 84.868438 
L 974.284688 84.868438 
" style="fill: none; stroke: #ff7f0e; stroke-width: 3; stroke-linecap: square"/>
    </g>
    <g id="text_29">
     <!-- Y (Approx) -->
     <g style="fill: #212121" transform="translate(991.884688 92.568438)scale(0.22 -0.22)">
      <use xlink:href="#DejaVuSans-59"/>
      <use xlink:href="#DejaVuSans-20" x="61.083984"/>
      <use xlink:href="#DejaVuSans-28" x="92.871094"/>
      <use xlink:href="#DejaVuSans-41" x="131.884766"/>
      <use xlink:href="#DejaVuSans-70" x="200.292969"/>
      <use xlink:href="#DejaVuSans-70" x="263.769531"/>
      <use xlink:href="#DejaVuSans-72" x="327.246094"/>
      <use xlink:href="#DejaVuSans-6f" x="366.109375"/>
      <use xlink:href="#DejaVuSans-78" x="424.166016"/>
      <use xlink:href="#DejaVuSans-29" x="483.345703"/>
     </g>
    </g>
    <g id="line2d_32">
     <path d="M 930.284688 117.160313 
L 952.284688 117.160313 
L 974.284688 117.160313 
" style="fill: none; stroke: #2ca02c; stroke-width: 3; stroke-linecap: square"/>
    </g>
    <g id="text_30">
     <!-- Z (Approx) -->
     <g style="fill: #212121" transform="translate(991.884688 124.860313)scale(0.22 -0.22)">
      <use xlink:href="#DejaVuSans-5a"/>
      <use xlink:href="#DejaVuSans-20" x="68.505859"/>
      <use xlink:href="#DejaVuSans-28" x="100.292969"/>
      <use xlink:href="#DejaVuSans-41" x="139.306641"/>
      <use xlink:href="#DejaVuSans-70" x="207.714844"/>
      <use xlink:href="#DejaVuSans-70" x="271.191406"/>
      <use xlink:href="#DejaVuSans-72" x="334.667969"/>
      <use xlink:href="#DejaVuSans-6f" x="373.53125"/>
      <use xlink:href="#DejaVuSans-78" x="431.587891"/>
      <use xlink:href="#DejaVuSans-29" x="490.767578"/>
     </g>
    </g>
   </g>
  </g>
 </g>
 <defs>
  <clipPath id="p32d3c35478">
   <rect x="120.21" y="23.76" width="443.91" height="333.48"/>
  </clipPath>
  <clipPath id="p70c0e1d71f">
   <rect x="684.33" y="23.76" width="443.91" height="333.48"/>
  </clipPath>
 </defs>
</svg>
